<svg width="213" height="164" viewBox="0 0 213 164" fill="none" xmlns="http://www.w3.org/2000/svg">
<path d="M48.4862 163.584H174.409C186.097 158.08 198.449 147.952 205.123 136.459C214.783 119.828 215.998 97.8333 206.19 80.98C200.581 71.3387 191.774 66.3587 183.366 59.5187C166.811 46.052 156.387 25.6573 135.997 17.4853C117.939 10.2493 96.6115 10.4373 78.2488 16.4907C61.0542 22.1587 50.4808 33.048 41.9368 48.5147C35.5902 60.0013 23.8355 66.9267 15.1355 76.3827C3.54217 88.9827 -1.2405 106.605 0.271503 123.459C1.24084 134.291 5.72084 160.389 18.8968 163.556H48.4862" fill="#FE662E"/>
<path d="M127.877 50.165C128.565 48.657 129.757 47.3597 131.843 47.3077C133.105 47.2783 134.025 48.201 134.454 48.905C135.469 50.5677 135.614 52.5943 135.122 54.465C134.714 56.0077 133.766 58.1077 131.639 58.9717C130.69 59.3583 129.405 59.433 128.587 58.9837C127.774 58.537 127.417 57.7517 127.21 57.0383C126.927 56.0597 126.879 54.9863 126.97 53.965C127.054 53.021 127.265 51.509 127.877 50.165Z" fill="#FFCA9A"/>
<path d="M127.685 51.4685C128.157 50.4311 128.979 49.5378 130.413 49.5031C131.281 49.4818 131.915 50.1178 132.211 50.6018C132.908 51.7458 133.008 53.1391 132.668 54.4258C132.388 55.4885 131.736 56.9325 130.273 57.5258C129.62 57.7925 128.737 57.8445 128.173 57.5351C127.615 57.2271 127.369 56.6885 127.227 56.1965C127.032 55.5231 126.999 54.7845 127.061 54.0818C127.119 53.4325 127.264 52.3925 127.685 51.4685Z" fill="#FF9670"/>
<path d="M75.6083 56.3274C74.499 53.8901 72.571 51.7928 69.2003 51.7114C67.1617 51.6621 65.6737 53.1541 64.979 54.2901C63.3403 56.9781 63.1057 60.2528 63.903 63.2754C64.5603 65.7714 66.091 69.1634 69.527 70.5594C71.063 71.1834 73.1377 71.3061 74.4617 70.5781C75.775 69.8568 76.3537 68.5888 76.687 67.4354C77.143 65.8541 77.2203 64.1181 77.075 62.4674C76.939 60.9434 76.599 58.5008 75.6083 56.3274Z" fill="#FFCA9A"/>
<path d="M75.9182 58.4343C75.1555 56.7583 73.8288 55.3143 71.5102 55.2583C70.1075 55.2249 69.0835 56.2516 68.6075 57.0329C67.4782 58.8823 67.3182 61.1343 67.8662 63.2143C68.3182 64.9303 69.3715 67.2649 71.7342 68.2249C72.7902 68.6543 74.2195 68.7383 75.1288 68.2383C76.0328 67.7409 76.4302 66.8703 76.6608 66.0756C76.9742 64.9876 77.0275 63.7943 76.9275 62.6583C76.8342 61.6089 76.6008 59.9289 75.9182 58.4343Z" fill="#FF9670"/>
<path d="M84.1682 27.6928H125.244C125.244 27.6928 125.594 40.2008 129.798 56.4115C129.798 56.4115 147.158 90.0822 124.043 103.742C114.414 109.433 102.49 110.337 92.4949 105.011C71.4122 93.7782 70.2282 64.7995 75.3415 44.4942C76.2722 40.7942 78.9055 27.6928 84.1682 27.6928Z" fill="#FFCA9A"/>
<path d="M83.9677 36.6147C90.1117 38.392 96.9331 38.8067 103.026 39.0493C111.3 39.38 120.448 38.1213 126.489 31.8987C127.573 30.7813 128.522 29.5347 129.328 28.2013C130.333 26.532 131.06 24.7027 131.556 22.82C132.848 17.912 132.336 12.1173 130.012 7.58801C126.738 1.208 118.405 -0.033329 111.92 0.334671C102.996 0.838673 94.7624 5.18 88.1331 10.9827C84.8171 13.8853 81.7997 17.188 79.2291 20.7707C77.2704 23.5 72.9877 28.652 75.3531 32.1893C75.8944 32.9987 76.7024 33.596 77.5597 34.0573C79.5597 35.1307 81.7184 35.964 83.9677 36.6147Z" fill="#081116"/>
<path d="M130.349 7.31322C127.076 0.933216 118.743 -0.309452 112.257 0.058548C103.333 0.563885 95.1001 4.90388 88.4694 10.7066C86.8521 12.1226 85.3107 13.6372 83.8521 15.2279C84.2894 14.8212 84.7174 14.4025 85.1667 14.0092C91.7974 8.20522 100.032 3.86655 108.955 3.35988C115.44 2.99322 123.773 4.23455 127.047 10.6159C129.372 15.1439 129.883 20.9385 128.591 25.8465C128.096 27.7292 127.369 29.5586 126.363 31.2279C125.909 31.9786 125.399 32.6919 124.856 33.3799C125.54 32.8412 126.203 32.2639 126.824 31.6226C127.911 30.5052 128.86 29.2585 129.664 27.9252C130.671 26.2559 131.397 24.4266 131.892 22.5439C133.185 17.6359 132.673 11.8412 130.349 7.31322Z" fill="#44494B"/>
<path d="M83.7661 32.434C83.4381 27.9274 80.6488 23.3327 75.7714 22.9234C67.4221 22.2247 63.0461 34.3274 63.6968 41.03C64.0194 44.3527 65.3034 47.5914 67.3021 50.2607C69.4408 53.1167 72.3141 54.3247 72.5074 58.2874C72.5954 60.1367 72.0848 62.054 72.3154 63.874C72.2834 63.6167 76.1928 59.4874 76.5714 58.914C77.9928 56.7594 79.2221 54.4767 80.2434 52.1074C82.8928 45.9727 84.2501 39.118 83.7661 32.434Z" fill="#081116"/>
<path d="M76.969 23.1271C76.5837 23.0337 76.1877 22.9591 75.7717 22.9231C67.4223 22.2244 63.0463 34.3271 63.697 41.0297C63.9557 43.6951 64.8423 46.3017 66.213 48.6084C65.8197 47.2897 65.541 45.9364 65.4077 44.5697C64.709 37.3671 68.869 24.9511 76.969 23.1271Z" fill="#44494B"/>
<path d="M126.504 31.8828C126.216 32.1788 125.916 32.4522 125.615 32.7268C126.048 37.3068 126.996 44.6495 129.044 53.2948L129.046 53.2988C129.046 53.2988 133.402 35.6668 129.612 27.6922C129.522 27.8562 129.439 28.0242 129.343 28.1842C128.538 29.5188 127.588 30.7642 126.504 31.8828Z" fill="#081116"/>
<path d="M103.054 39.043C96.9591 38.8003 90.1378 38.3843 83.9938 36.607C83.9431 36.5936 83.8938 36.575 83.8445 36.5603C83.8351 36.7843 83.8378 37.007 83.8245 37.2296C83.8818 37.247 83.9365 37.2656 83.9938 37.283C90.1378 39.0603 96.9591 39.475 103.054 39.7176C110.959 40.0336 119.656 38.8856 125.686 33.355C125.664 33.1416 125.644 32.9376 125.626 32.7363C119.599 38.219 110.932 39.3563 103.054 39.043Z" fill="#FF9670"/>
<path d="M124.059 103.742C114.428 109.433 102.505 110.338 92.5108 105.013C84.3895 100.685 79.2308 93.7195 76.2375 85.6369C76.3082 97.5449 72.1082 134.312 72.1082 134.312H122.439C120.084 112.08 124.053 104.394 124.631 103.369C124.435 103.492 124.26 103.624 124.059 103.742Z" fill="#FFCA9A"/>
<path d="M90.8989 108.973C100.894 114.298 112.816 113.393 122.447 107.704C122.668 107.573 122.862 107.428 123.076 107.293C123.704 105.084 124.416 103.72 124.635 103.329C124.439 103.45 124.264 103.582 124.063 103.701C118.043 107.258 111.128 108.945 104.348 108.41C100.276 108.09 96.2522 106.97 92.5002 104.97C92.2269 104.825 91.9709 104.664 91.7042 104.512C91.4389 104.362 91.1722 104.214 90.9149 104.058C90.5922 103.862 90.2775 103.66 89.9655 103.456C89.7522 103.316 89.5402 103.177 89.3335 103.034C89.0082 102.812 88.6882 102.585 88.3735 102.354C88.2229 102.242 88.0789 102.128 87.9295 102.014C86.7722 101.126 85.6922 100.176 84.6855 99.1662C84.6375 99.1169 84.5882 99.0702 84.5389 99.0209C84.1829 98.6582 83.8349 98.2889 83.4962 97.9115C83.4909 97.9049 83.4855 97.8995 83.4815 97.8929C80.2935 94.3369 77.9242 90.1675 76.2415 85.6382C76.2522 87.6849 76.1562 90.1715 75.9949 92.8822C79.1055 99.5542 83.9015 105.245 90.8989 108.973Z" fill="#FF9670"/>
<path d="M102.158 54.409L94.3845 52.9223C93.4632 52.7463 92.5752 53.349 92.4005 54.2703C92.2232 55.189 92.8272 56.0783 93.7459 56.2543L101.521 57.741C102.441 57.917 103.33 57.313 103.506 56.393C103.682 55.473 103.078 54.585 102.158 54.409Z" fill="#081116"/>
<path d="M124.362 54.3095L117.441 55.1321C116.621 55.2295 116.036 55.9721 116.133 56.7921C116.23 57.6108 116.973 58.1961 117.793 58.0988L124.716 57.2761C125.534 57.1788 126.118 56.4361 126.021 55.6161C125.925 54.7975 125.181 54.2121 124.362 54.3095Z" fill="#081116"/>
<path d="M98.5889 64.3554C98.5889 65.0941 97.9915 65.6914 97.2529 65.6914C96.5142 65.6914 95.9155 65.0941 95.9155 64.3554C95.9155 63.6167 96.5142 63.0194 97.2529 63.0194C97.9915 63.0194 98.5889 63.6167 98.5889 64.3554Z" fill="#081116"/>
<path d="M124.616 64.8603C124.616 65.599 124.019 66.1963 123.28 66.1963C122.542 66.1963 121.943 65.599 121.943 64.8603C121.943 64.1216 122.542 63.5243 123.28 63.5243C124.019 63.5243 124.616 64.1216 124.616 64.8603Z" fill="#081116"/>
<path d="M116.218 81.5338L109.619 62.2858V62.7711L104.963 81.6338C104.775 82.3884 105.284 83.1324 106.054 83.2418C107.882 83.5004 111.283 83.8018 115.159 83.2564C115.972 83.1431 116.483 82.3111 116.218 81.5338Z" fill="#FFAA8D"/>
<path d="M119.982 90.1485C119.982 90.1485 111.582 84.1911 102.243 90.3418" stroke="#FFAA8D" stroke-width="1.33333" stroke-miterlimit="10"/>
<path d="M97.3154 76.4212C97.3154 80.1879 94.2621 83.2412 90.4954 83.2412C86.7301 83.2412 83.6768 80.1879 83.6768 76.4212C83.6768 72.6545 86.7301 69.6012 90.4954 69.6012C94.2621 69.6012 97.3154 72.6545 97.3154 76.4212Z" fill="#FFAA8D"/>
<path d="M135.395 75.8802C135.395 79.6469 132.342 82.7002 128.575 82.7002C124.808 82.7002 121.755 79.6469 121.755 75.8802C121.755 72.1135 124.808 69.0602 128.575 69.0602C132.342 69.0602 135.395 72.1135 135.395 75.8802Z" fill="#FFAA8D"/>
<path d="M122.627 124.356C164.613 124.356 171.099 163.38 171.099 163.38H17C32.2093 124.156 72.296 124.356 72.296 124.356C72.296 124.356 81.216 134.387 97.652 133.636C97.652 133.636 112.961 134.161 122.043 125.08L122.627 124.356Z" fill="#2F0578"/>
<path d="M139.99 74.3398C139.433 71.7958 139.211 69.1025 139.442 66.1838C139.699 62.9251 139.095 59.6731 138.538 56.4758C137.927 52.9638 138.427 49.1345 137.126 45.7598C137.126 45.7598 136.546 44.2691 135.173 45.3451C135.173 45.3451 133.466 46.5091 133.815 49.8118L134.829 57.9811C134.829 57.9811 134.166 59.1918 133.239 58.3158L125.638 38.1318C125.638 38.1318 125.386 36.0905 123.238 36.7625C123.238 36.7625 121.721 37.3518 122.151 38.8118L127.762 54.2411C127.762 54.2411 127.502 55.4905 126.51 54.7518L120.327 37.9571C120.327 37.9571 119.486 36.2731 118.259 36.6905C118.259 36.6905 116.521 36.9571 116.922 39.0678C117.323 41.1785 123.055 56.0878 123.055 56.0878C123.055 56.0878 122.862 57.4491 121.758 56.4345L115.977 40.9131C115.977 40.9131 115.201 39.3065 113.807 39.8158C113.807 39.8158 112.126 40.1171 112.55 41.7438L118.323 57.7851C118.323 57.7851 118.13 59.0278 116.998 58.2785L113.235 47.8065C113.235 47.8065 112.501 45.6891 110.717 46.3491C110.717 46.3491 109.239 46.9998 109.795 48.7838C111.47 53.4771 113.145 58.1705 114.819 62.8651C115.607 65.0718 116.395 67.2798 117.183 69.4878C119.377 75.6398 124.685 79.7531 126.219 86.2438C127.983 93.7105 128.514 101.608 129.501 109.285C130.385 116.149 131.193 125.476 135.925 130.95C136.669 131.81 138.299 133.237 139.599 132.778C144.122 131.18 148.642 129.577 153.169 127.98C157.554 126.433 163.713 125.448 162.155 119.29C159.851 110.177 155.001 100.986 149.739 93.2598C145.507 87.0438 141.505 81.2425 139.99 74.3398Z" fill="#FFD4AB"/>
<path d="M136.017 46.2899C137.366 49.7859 136.848 53.7526 137.481 57.3899C138.056 60.7006 138.682 64.0713 138.416 67.4459C138.177 70.4699 138.405 73.2593 138.984 75.8939C140.552 83.0446 144.698 89.0539 149.082 95.4926C154.532 103.497 159.556 113.017 161.942 122.457C161.992 122.653 162.012 122.83 162.046 123.017C162.452 122.045 162.538 120.851 162.156 119.345C159.853 110.231 155.001 101.041 149.741 93.3139C145.508 87.0966 141.506 81.2953 139.992 74.3926C139.434 71.8486 139.213 69.1553 139.444 66.2366C139.701 62.9793 139.097 59.7259 138.541 56.5286C137.93 53.0166 138.43 49.1873 137.128 45.8139C137.128 45.8139 136.546 44.3219 135.174 45.3979C135.174 45.3979 135.133 45.4286 135.074 45.4806C135.721 45.5686 136.017 46.2899 136.017 46.2899Z" fill="#FF9670"/>
<path d="M173.865 163.638L147.467 163.38C147.467 163.38 131.421 157.612 131.162 127.231C131.162 127.231 157.678 125.415 163.527 114.927C163.527 114.927 179.966 148.963 173.865 163.638Z" fill="#2F0578"/>
</svg>
