<svg width="205" height="170" viewBox="0 0 205 170" fill="none" xmlns="http://www.w3.org/2000/svg">
<path d="M86.617 167.481C74.6864 167.401 62.7624 167.428 50.8344 167.834C34.1664 168.401 17.7117 160.342 8.44771 147.073C-0.816293 133.804 -2.61496 115.721 3.8157 100.489C9.5237 86.9716 20.801 76.4556 29.3157 64.3716C38.7184 51.0276 41.909 34.8596 52.041 21.8583C58.729 13.2783 68.1997 6.02893 78.5344 2.28627C85.817 -0.351074 94.033 -0.965729 101.084 1.82361C112.606 6.38228 120.245 17.5916 131.17 23.4556C143.806 30.2396 157.58 35.2396 169.501 43.2116C181.922 51.5169 191.893 63.2196 198.034 76.7036C202.412 86.3143 204.868 97.1063 202.974 107.642C198.313 133.561 173.498 156.808 150.074 167.857C140.34 167.828 130.605 167.797 120.87 167.768C109.437 167.732 98.0237 167.558 86.617 167.481Z" fill="#7474B4"/>
<path d="M160.07 49.9645L138.839 62.7552C138.839 62.7552 135.577 64.0219 132.559 62.2725C132.559 62.2725 122.229 59.9059 113.577 64.0259L81.8754 74.3605C81.8754 74.3605 79.1461 76.0712 81.7394 78.3952C81.7394 78.3952 84.6234 81.3512 90.9954 79.4232L106.703 74.3592C106.703 74.3592 109.315 75.2232 107.917 77.3925L70.8808 100.03C70.8808 100.03 66.9541 101.295 69.0248 105.311C69.0248 105.311 70.7114 108.103 73.4314 106.703L101.813 89.7925C101.813 89.7925 104.359 89.8432 103.251 92.0899L72.3874 110.645C72.3874 110.645 69.3688 112.946 70.6168 115.225C70.6168 115.225 71.7474 118.578 75.7567 116.993C79.7661 115.41 107.082 98.4525 107.082 98.4525C107.082 98.4525 109.825 98.3272 108.215 100.899L79.7141 118.183C79.7141 118.183 76.8247 120.325 78.3127 122.901C78.3127 122.901 79.4874 126.13 82.5421 124.679L112.069 107.218C112.069 107.218 114.578 107.137 113.498 109.669L94.2221 121.054C94.2221 121.054 90.3141 123.306 92.2327 126.602C92.2327 126.602 94.0274 129.293 97.3394 127.519L141.551 101.542C141.551 101.542 147.342 97.5112 148.885 91.3805C148.885 91.3805 150.913 89.3045 152.611 88.6779L171.218 77.7765L204.721 61.3445L188.379 33.6219L160.07 49.9645Z" fill="#FFCA9A"/>
<path d="M97.4242 132.3C97.4242 132.3 90.2309 135.192 86.9682 126.886C86.9682 126.886 84.4482 122.734 87.7109 119.176C87.7109 119.176 84.2989 117.989 83.4842 115.616C83.4842 115.616 81.7789 112.428 84.1509 109.981C84.1509 109.981 79.4802 103.085 82.5935 95.9664C82.5935 95.9664 84.6709 91.073 87.3402 89.3677C87.3402 89.3677 84.5215 83.509 89.1189 79.357C89.1189 79.357 91.1202 76.5397 96.1642 77.3544C96.1642 77.3544 95.9415 71.3477 101.131 71.5704C101.131 71.5704 104.023 70.8291 106.47 74.5371C106.47 74.5371 111.956 72.9797 117.667 75.8717C117.667 75.8717 123.08 79.0597 124.415 82.841C124.415 82.841 126.639 81.3584 128.567 83.5837C128.567 83.5837 129.086 75.3531 136.872 74.9824C136.872 74.9824 143.175 74.833 145.326 81.137C145.326 81.137 154.927 80.1357 159.932 91.5917C159.932 91.5917 162.268 97.821 157.708 105.938L114.664 138.306C114.664 138.306 109.882 140.197 104.32 137.528C104.32 137.528 100.872 137.082 97.4242 132.3Z" fill="white"/>
<path d="M190.996 149.111L171.617 133.66C171.617 133.66 169.293 131.042 169.881 127.604C169.881 127.604 168.506 117.096 161.633 110.418L140.912 84.2965C140.912 84.2965 138.357 82.3325 137.08 85.5738C137.08 85.5738 135.313 89.3045 139.34 94.6072L149.553 107.571C149.553 107.571 149.65 110.32 147.132 109.763L113.021 82.9205C113.021 82.9205 110.468 79.6805 107.422 83.0205C107.422 83.0205 105.394 85.5738 107.652 87.6352L133.382 108.356C133.382 108.356 134.221 110.762 131.729 110.504L103.593 88.0272C103.593 88.0272 100.385 85.9978 98.6838 87.9632C98.6838 87.9632 95.9332 90.1885 98.8132 93.3965C101.694 96.6045 127.097 116.31 127.097 116.31C127.097 116.31 128.169 118.84 125.198 118.226L99.0772 97.5218C99.0772 97.5218 96.0652 95.5565 94.1652 97.8485C94.1652 97.8485 91.5465 100.075 93.9678 102.431L120.616 124.035C120.616 124.035 121.565 126.36 118.814 126.23L101.433 112.12C101.433 112.12 97.9638 109.24 95.5398 112.187C95.5398 112.187 93.6412 114.806 96.4572 117.294L136.197 149.7C136.197 149.7 141.992 153.727 148.276 153.039C148.276 153.039 150.928 154.218 152.106 155.592L168.801 169.243H190.7L190.996 149.111Z" fill="#FFD4AB"/>
<path d="M118.324 66.8808C118.324 68.7608 119.849 70.2861 121.729 70.2861C123.609 70.2861 125.132 68.7608 125.132 66.8808C125.132 65.0008 123.609 63.4768 121.729 63.4768C119.849 63.4768 118.324 65.0008 118.324 66.8808Z" fill="white"/>
<path d="M92.79 58.5006C92.79 61.3939 95.1354 63.7393 98.0287 63.7393C100.921 63.7393 103.265 61.3939 103.265 58.5006C103.265 55.6086 100.921 53.2633 98.0287 53.2633C95.1354 53.2633 92.79 55.6086 92.79 58.5006Z" fill="white"/>
<path d="M99.488 143.238C99.488 145.045 100.955 146.512 102.761 146.512C104.569 146.512 106.035 145.045 106.035 143.238C106.035 141.43 104.569 139.965 102.761 139.965C100.955 139.965 99.488 141.43 99.488 143.238Z" fill="white"/>
<path d="M144.61 68.3836C144.61 65.1103 141.957 62.4583 138.685 62.4583C135.413 62.4583 132.76 65.1103 132.76 68.3836C132.76 71.6556 135.413 74.3076 138.685 74.3076C141.957 74.3076 144.61 71.6556 144.61 68.3836Z" fill="white"/>
<path d="M94.5559 141.554C94.5559 138.282 91.9039 135.63 88.6319 135.63C85.3599 135.63 82.7052 138.282 82.7052 141.554C82.7052 144.826 85.3599 147.479 88.6319 147.479C91.9039 147.479 94.5559 144.826 94.5559 141.554Z" fill="white"/>
<path d="M113.282 62.3638C113.282 63.3398 114.074 64.1318 115.05 64.1318C116.028 64.1318 116.818 63.3398 116.818 62.3638C116.818 61.3878 116.028 60.5958 115.05 60.5958C114.074 60.5958 113.282 61.3878 113.282 62.3638Z" fill="white"/>
<path d="M107.855 53.9208C107.855 54.8968 108.647 55.6875 109.623 55.6875C110.599 55.6875 111.39 54.8968 111.39 53.9208C111.39 52.9448 110.599 52.1528 109.623 52.1528C108.647 52.1528 107.855 52.9448 107.855 53.9208Z" fill="white"/>
<path d="M124.394 74.5015C124.394 75.4775 125.185 76.2695 126.161 76.2695C127.138 76.2695 127.929 75.4775 127.929 74.5015C127.929 73.5255 127.138 72.7349 126.161 72.7349C125.185 72.7349 124.394 73.5255 124.394 74.5015Z" fill="white"/>
<path d="M8.28 59.2666H0V23.8373H8.28V59.2666Z" fill="#2F0578"/>
<path d="M8.2793 35.478H16.75C16.75 35.478 20.474 34.8007 21.378 32.7687H35.7966H40.898C41.3713 32.7687 41.9793 32.666 42.4446 32.7687C43.1326 32.9207 43.098 33.9034 43.4273 34.422C43.862 35.1034 44.5353 35.6274 45.2686 35.9554C47.5366 36.97 50.1553 36.5554 52.558 36.7887C58.5526 37.374 63.9753 41.162 65.194 47.2594C65.5846 49.2127 65.6313 51.2167 65.6766 53.2087C65.7073 54.5554 65.738 55.902 65.77 57.25C65.7846 57.8594 65.934 58.0994 65.3886 58.262C65.1193 58.3407 64.726 58.278 64.4473 58.2794C63.182 58.2834 61.918 58.2407 60.6513 58.2274C59.8393 58.218 59.026 58.19 58.2113 58.1767C57.6806 58.17 57.1486 58.162 56.6166 58.1674C56.4086 58.17 56.038 58.274 55.8793 58.094C55.7486 57.9447 55.798 57.354 55.7726 57.1514C55.6886 56.45 55.5606 55.7567 55.3913 55.0714C54.822 52.7727 53.8593 50.3127 51.838 48.9127C50.2966 47.846 48.4006 47.682 46.5926 47.974C43.1366 48.5314 40.054 50.3887 36.9126 51.818C33.5606 53.3434 29.8353 53.5154 26.2766 52.554C24.4993 52.0727 22.9246 51.2434 21.3153 50.374C20.5686 49.97 19.8206 49.566 19.074 49.162C18.8286 49.03 18.2766 48.5767 17.9913 48.5767H8.2793L8.2793 35.478Z" fill="#2F0578"/>
<path d="M45.7707 32.9189H16.9374V27.3469H45.7707V32.9189Z" fill="#2F0578"/>
<path d="M41.9307 27.3467H20.7773V21.972H41.9307V27.3467Z" fill="#2F0578"/>
<path d="M39.672 21.9727H23.1094V16.5993H39.672V21.9727Z" fill="#2F0578"/>
<path d="M33.7247 16.5986H28.53V3.59597C28.53 2.16263 29.694 0.999966 31.1274 0.999966C32.562 0.999966 33.7247 2.16263 33.7247 3.59597V16.5986Z" fill="#2F0578"/>
<path d="M48.1908 13.0898H33.7241V4.50718H48.1908C50.5601 4.50718 52.4815 6.42984 52.4815 8.79918C52.4815 11.1698 50.5601 13.0898 48.1908 13.0898Z" fill="#2F0578"/>
<path d="M14.0646 4.50718H28.5312V13.0898H14.0646C11.6952 13.0898 9.77258 11.1685 9.77258 8.79918C9.77258 6.42851 11.6952 4.50718 14.0646 4.50718Z" fill="#2F0578"/>
<path d="M59.5203 82.6732C59.5203 87.8892 55.2923 92.1172 50.0763 92.1172C44.8603 92.1172 40.6323 87.8892 40.6323 82.6732C40.6323 77.4572 50.0763 63.9692 50.0763 63.9692C50.0763 63.9692 59.5203 77.4572 59.5203 82.6732Z" fill="#2F0578"/>
<path d="M35.3379 106.814C35.3379 112.03 31.1086 116.258 25.8926 116.258C20.6779 116.258 16.4486 112.03 16.4486 106.814C16.4486 101.598 25.8926 88.1111 25.8926 88.1111C25.8926 88.1111 35.3379 101.598 35.3379 106.814Z" fill="#2F0578"/>
<path d="M64.5345 130.084C64.5345 135.299 60.3065 139.528 55.0905 139.528C49.8745 139.528 45.6465 135.299 45.6465 130.084C45.6465 124.868 55.0905 111.38 55.0905 111.38C55.0905 111.38 64.5345 124.868 64.5345 130.084Z" fill="#2F0578"/>
</svg>
