<svg width="173" height="174" viewBox="0 0 173 174" fill="none" xmlns="http://www.w3.org/2000/svg">
<path d="M172.787 86.9867C172.787 108.293 165.08 127.787 152.307 142.84C147.08 149 141 154.427 134.253 158.92C131.907 160.493 129.467 161.947 126.96 163.28C117.733 168.2 107.493 171.507 96.6399 172.787C93.2799 173.187 89.8532 173.387 86.3864 173.387C82.1599 173.387 78 173.08 73.9333 172.493C62.9197 170.907 52.5864 167.24 43.3333 161.907H43.3197C40.9599 160.547 38.6667 159.08 36.4531 157.507C29.8796 152.827 23.9864 147.267 18.9463 140.987C7.0932 126.2 0 107.427 0 86.9867C0 39.2667 38.6796 0.586716 86.3864 0.586716C134.107 0.586716 172.787 39.2667 172.787 86.9867Z" fill="#D7EAF1"/>
<path d="M152.307 142.84C147.08 149 141 154.427 134.253 158.92C131.907 160.493 129.467 161.947 126.96 163.28C117.733 168.2 107.493 171.507 96.6399 172.787C93.2799 173.187 89.8532 173.387 86.3864 173.387C82.1599 173.387 78 173.08 73.9334 172.493C62.9198 170.907 52.5864 167.24 43.3334 161.907H43.3197C40.9599 160.547 38.6667 159.08 36.4531 157.507C29.8796 152.827 23.9864 147.267 18.9463 140.987C18.9599 140.933 18.9864 140.893 19.013 140.84C19.1735 140.48 19.3334 140.133 19.5068 139.8C19.6402 139.52 19.7864 139.24 19.9463 138.973C20 138.853 20.0667 138.733 20.1463 138.613C20.2796 138.373 20.4266 138.133 20.5735 137.907C20.6932 137.707 20.813 137.52 20.9334 137.333C21.1599 136.987 21.413 136.64 21.6667 136.307C21.8796 136 22.1068 135.707 22.3463 135.427C22.5735 135.147 22.813 134.867 23.0531 134.6C23.1198 134.52 23.2 134.44 23.2667 134.373C23.5334 134.08 23.813 133.787 24.1068 133.507C24.1463 133.467 24.1735 133.44 24.2 133.413C24.4796 133.147 24.7735 132.88 25.0667 132.627C25.4 132.333 25.7334 132.053 26.0796 131.787C26.3599 131.56 26.6531 131.347 26.9463 131.147C27.3334 130.867 27.7198 130.6 28.1334 130.36C28.3599 130.213 28.6 130.067 28.8531 129.933C29.5735 129.507 30.3198 129.133 31.0932 128.8C31.3599 128.68 31.613 128.573 31.8796 128.467C32.2796 128.307 32.6796 128.16 33.0932 128.027C33.4932 127.893 33.8932 127.76 34.3068 127.653L55.013 121.933L55.7068 121.747L59.9334 120.573L62.3463 119.907L63.2667 119.653H107.267L108.187 119.907L110.6 120.573L114.827 121.747L115.52 121.933L136.227 127.653C143.853 129.76 149.827 135.507 152.307 142.84Z" fill="white"/>
<path d="M108.187 119.907C103.08 126.64 94.7199 131.027 85.2667 131.027C75.813 131.027 67.4531 126.64 62.3463 119.907L68.9334 118.08L71.4266 104.08L73.213 94.0802L85.2667 98.8002L97.3199 94.0802L101.24 116.054L101.6 118.08L108.187 119.907Z" fill="#F69779"/>
<path d="M101.24 116.053C96.8665 117.6 93.4665 117.6 93.4665 117.6C93.4665 117.6 79.0265 117.6 71.4265 104.08L73.2129 94.0801L85.2666 98.8001L97.3198 94.0801L101.24 116.053Z" fill="#F37A67"/>
<path d="M152.307 142.84C147.08 149 141 154.427 134.253 158.92C131.907 160.493 129.467 161.947 126.96 163.28C117.733 168.2 107.493 171.507 96.6398 172.787C94.8798 160.36 97.0265 146.853 97.0265 146.853C97.0265 145.387 97.2665 143.653 97.6665 141.813C99.1732 134.653 102.893 125.96 102.893 125.96L103.92 125.24L110.6 120.573L114.827 121.747L115.52 121.933L136.227 127.653C143.853 129.76 149.827 135.507 152.307 142.84Z" fill="#A1CC36"/>
<path d="M73.9334 172.493C62.9198 170.906 52.5864 167.24 43.3334 161.906H43.3197C40.9599 160.546 38.6667 159.08 36.4531 157.506C29.8796 152.826 23.9864 147.266 18.9463 140.986C18.9599 140.933 18.9864 140.893 19.013 140.84C19.1735 140.48 19.3334 140.133 19.5068 139.8C19.6402 139.52 19.7864 139.24 19.9463 138.973C20 138.853 20.0667 138.733 20.1463 138.613C20.2796 138.373 20.4266 138.133 20.5735 137.906C20.6932 137.706 20.813 137.52 20.9334 137.333C21.1599 136.987 21.413 136.64 21.6667 136.306C21.8796 136 22.1068 135.707 22.3463 135.426C22.5735 135.146 22.813 134.867 23.0531 134.6C23.1198 134.52 23.2 134.44 23.2667 134.373C23.5334 134.08 23.813 133.786 24.1068 133.506C24.1463 133.466 24.1735 133.44 24.2 133.413C24.4796 133.146 24.7735 132.88 25.0667 132.626C25.4 132.333 25.7334 132.053 26.0796 131.786C26.3599 131.56 26.6531 131.346 26.9463 131.146C27.3334 130.866 27.7198 130.6 28.1334 130.36C28.3599 130.213 28.6 130.067 28.8531 129.933C29.5735 129.507 30.3198 129.133 31.0932 128.8C31.3599 128.68 31.613 128.573 31.8796 128.467C32.2796 128.307 32.6796 128.16 33.0932 128.027C33.4932 127.893 33.8932 127.76 34.3068 127.653L55.013 121.933L55.7068 121.746L59.9334 120.573L66.613 125.24L67.6402 125.96C67.6402 125.96 71.3599 134.653 72.8667 141.813V141.826C73.2667 143.667 73.5068 145.386 73.5068 146.853C73.5068 146.853 75.613 160.146 73.9334 172.493Z" fill="#A1CC36"/>
<path d="M111.599 41.7506C108.515 35.9706 102.619 32.7706 97.1865 31.0026C89.4585 28.4866 81.0744 28.4866 73.3468 31.0026C67.914 32.7706 62.0182 35.9706 58.9349 41.7506C53.3614 52.4239 54.3104 69.0252 54.3104 69.0252L60.1208 75.1919L85.2666 71.9999L110.412 75.1919L116.223 69.0252C116.223 69.0252 117.172 52.4239 111.599 41.7506Z" fill="#051733"/>
<path d="M117.837 68.0203C117.675 66.9563 117.281 65.8763 116.469 65.1696C115.736 64.5336 114.729 64.2696 113.76 64.3123C112.789 64.3536 111.852 64.6776 110.979 65.1003C110.979 65.1003 110.892 40.5203 102.179 40.2336C96.4652 39.9483 93.9239 41.663 85.2667 41.663C76.6098 41.663 74.0682 39.9483 68.3541 40.2336C59.6405 40.5203 59.5552 65.1003 59.5552 65.1003C58.6817 64.6776 57.7432 64.3536 56.7738 64.3123C55.8041 64.2696 54.7968 64.5336 54.0645 65.1696C53.252 65.8763 52.8583 66.9563 52.6963 68.0203C52.3713 70.1549 52.8823 72.407 54.0973 74.1923C55.3125 75.9776 57.1068 77.3203 59.212 77.8016C62.926 103.8 85.2667 103.8 85.2667 103.8C85.2667 103.8 107.607 103.8 111.321 77.8016C113.427 77.3203 115.22 75.9776 116.436 74.1923C117.651 72.407 118.161 70.1549 117.837 68.0203Z" fill="#F69779"/>
<path d="M103.916 131.917C103.916 131.917 98.4572 138.237 97.0212 146.856L101.036 115.205L103.916 116.977V131.917Z" fill="#718F26"/>
<path d="M99.5785 106.743C99.5785 106.743 110.524 111.519 114.546 118.413L116.284 139.387L103.916 131.917L99.5785 106.743Z" fill="#BFE06C"/>
<path d="M66.6167 131.917C66.6167 131.917 72.0755 138.237 73.512 146.856L69.4968 115.205L66.6167 116.977V131.917Z" fill="#718F26"/>
<path d="M70.9552 106.743C70.9552 106.743 60.0088 111.519 55.9864 118.413L54.249 139.387L66.6167 131.917L70.9552 106.743Z" fill="#BFE06C"/>
<path d="M54.4714 60.1802C54.4714 60.1802 51.6552 36.7002 66.6058 26.3389V30.4042C66.6058 30.4042 82.6058 15.0602 104.245 25.0282L99.7852 26.6016C99.7852 26.6016 109.36 26.8642 114.343 33.4216L109.621 33.6829C109.621 33.6829 115.524 35.9135 116.967 42.4709L112.507 40.2016C112.507 40.2016 118.008 47.6082 116.175 61.9976L108.187 41.4216L104.507 37.6175L86.3922 35.5189L68.9662 35.9135L62.3463 40.2016L59.6547 47.1922L54.4714 60.1802Z" fill="#051733"/>
<path d="M84.014 64.235V79.4883H86.5995C91.0306 79.4883 84.837 65.987 84.014 64.235Z" fill="#F37A67"/>
<path d="M102.811 58.291C99.2372 56.5257 95.2665 56.263 91.5412 57.7443C89.9639 58.3723 90.6506 60.9523 92.2506 60.3163C95.3026 59.103 98.4986 59.1284 101.465 60.5937C103.001 61.3524 104.352 59.0524 102.811 58.291Z" fill="#051733"/>
<path d="M99.5932 64.2349C99.5932 65.6229 98.4678 66.7495 97.0785 66.7495C95.6905 66.7495 94.5638 65.6229 94.5638 64.2349C94.5638 62.8455 95.6905 61.7188 97.0785 61.7188C98.4678 61.7188 99.5932 62.8455 99.5932 64.2349Z" fill="#051733"/>
<path d="M67.7224 58.291C71.2953 56.5257 75.2672 56.263 78.9916 57.7443C80.5697 58.3723 79.8822 60.9523 78.2828 60.3163C75.2312 59.103 72.0349 59.1284 69.0682 60.5937C67.5322 61.3524 66.1806 59.0524 67.7224 58.291Z" fill="#051733"/>
<path d="M70.9391 64.2349C70.9391 65.6229 72.0651 66.7495 73.4542 66.7495C74.8427 66.7495 75.9687 65.6229 75.9687 64.2349C75.9687 62.8455 74.8427 61.7188 73.4542 61.7188C72.0651 61.7188 70.9391 62.8455 70.9391 64.2349Z" fill="#051733"/>
<path d="M77.0724 85.4469C77.9588 88.7562 81.2864 91.2202 85.2667 91.2202C89.2465 91.2202 92.5745 88.7562 93.4599 85.4469H77.0724Z" fill="white"/>
<path d="M134.253 158.92C131.906 160.494 129.467 161.947 126.96 163.28L131.653 137.654L134.253 158.92Z" fill="#718F26"/>
<path d="M43.3197 161.907C40.9599 160.547 38.6667 159.08 36.4531 157.507L38.8796 137.653L43.3197 161.907Z" fill="#718F26"/>
</svg>
