<svg width="151" height="152" viewBox="0 0 151 152" fill="none" xmlns="http://www.w3.org/2000/svg">
<path d="M151 76.2741C151 94.1323 144.795 110.547 134.411 123.468C129.871 129.138 124.528 134.12 118.556 138.264C116.309 139.836 113.981 141.28 111.559 142.583C100.872 148.404 88.6024 151.71 75.5758 151.71C62.5491 151.71 50.2791 148.404 39.5924 142.583C37.171 141.28 34.8427 139.836 32.5959 138.276C26.6123 134.12 21.2689 129.138 16.7404 123.468C6.34471 110.547 0.139893 94.1323 0.139893 76.2741C0.139893 34.6216 33.9114 0.850113 75.5758 0.850113C117.228 0.850113 151 34.6216 151 76.2741Z" fill="#D7EAF1"/>
<path d="M134.399 123.522C129.859 129.191 124.516 134.174 118.544 138.318C116.297 139.89 113.969 141.333 111.547 142.637C100.861 148.458 88.5908 151.764 75.5641 151.764C62.5374 151.764 50.2675 148.458 39.5807 142.637C37.1593 141.333 34.8311 139.89 32.5843 138.33C26.6006 134.174 21.2572 129.191 16.7288 123.522C18.6729 116.654 24.0745 111.217 31.0709 109.285L49.1499 104.291L55.6807 102.486L61.3035 100.926L61.8506 97.8411H89.2776L89.8247 100.926L95.4475 102.486L101.978 104.291L120.057 109.285C127.054 111.217 132.455 116.654 134.399 123.522Z" fill="#0C415B"/>
<path d="M89.2741 97.8378H61.8541L61.3034 100.926L55.6807 102.487C58.9402 120.822 72.0833 128.633 72.6421 128.971L75.5757 130.658L78.4977 128.959C79.0565 128.633 92.2112 120.775 95.4475 102.487L89.8247 100.926L89.2741 97.8378Z" fill="#051733"/>
<path d="M89.8248 100.928C89.755 101.371 89.6735 101.801 89.592 102.221C86.5769 117.366 75.7738 123.803 75.5642 123.932C75.343 123.803 63.9345 117.005 61.3036 100.928L62.7005 93.1053L65.0404 79.9737L75.5642 84.0951L86.088 79.9737L89.8248 100.928Z" fill="#F69779"/>
<path d="M89.8247 100.927C89.7549 101.37 89.6734 101.801 89.5919 102.22C85.1449 104.094 81.4546 104.094 81.4546 104.094C81.4546 104.094 69.4291 104.094 62.7004 93.1046L65.0403 79.973L75.5641 84.0944L86.0879 79.973L89.8247 100.927Z" fill="#F37A67"/>
<path d="M118.544 138.32C116.297 139.891 113.969 141.335 111.547 142.639L116.064 118.017L118.544 138.32Z" fill="#051733"/>
<path d="M39.5805 142.639C37.1591 141.335 34.8309 139.891 32.5841 138.331L35.0637 118.017L39.5805 142.639Z" fill="#051733"/>
<path d="M105.649 32.9294C101.776 25.0482 75.5592 24.7898 75.5592 24.7898C75.5592 24.7898 49.3418 25.0482 45.4687 32.9294C37.981 51.6557 54.3534 72.2643 54.3534 72.2643L75.5592 77.7217L96.7639 72.2643C96.7639 72.2643 113.136 51.6557 105.649 32.9294Z" fill="#843E2F"/>
<path d="M65.3531 40.0215C65.3531 40.0215 45.2241 38.2416 46.3195 29.6142C46.5931 26.8761 51.7967 26.8761 51.7967 26.8761C51.7967 26.8761 47.8247 25.5071 49.0576 22.7679C50.2904 20.0287 55.6803 20.577 55.6803 20.577C55.6803 20.577 50.8375 17.7016 53.0284 15.0997C55.2193 12.4979 69.7349 15.0997 69.7349 15.0997C69.7349 15.0997 90.822 12.9088 101.64 24.1369C107.665 29.478 100.27 44.4033 100.27 44.4033L65.3531 40.0215Z" fill="#843E2F"/>
<path d="M104.001 57.2177C103.859 56.2888 103.516 55.3458 102.807 54.7288C102.167 54.1735 101.288 53.943 100.442 53.9803C99.594 54.0164 98.7757 54.2993 98.0132 54.6683C98.0132 54.6683 97.9375 33.2075 90.3299 32.9572C85.3416 32.7081 83.1227 34.2051 75.564 34.2051C68.0053 34.2051 65.7864 32.7081 60.7981 32.9572C53.1905 33.2075 53.1148 54.6683 53.1148 54.6683C52.3523 54.2993 51.5328 54.0164 50.6865 53.9803C49.8402 53.943 48.9612 54.1735 48.3209 54.7288C47.612 55.3458 47.2686 56.2888 47.1265 57.2177C46.8437 59.0815 47.2895 61.0477 48.3501 62.6065C49.4117 64.1653 50.9775 65.3376 52.8157 65.7578C56.0589 88.457 75.564 88.457 75.564 88.457C75.564 88.457 95.0691 88.457 98.3123 65.7578C100.15 65.3376 101.716 64.1653 102.778 62.6065C103.838 61.0477 104.284 59.0815 104.001 57.2177Z" fill="#F69779"/>
<path d="M74.4709 54.4927V67.8115H76.7282C80.5966 67.8115 75.1892 56.0235 74.4709 54.4927Z" fill="#F37A67"/>
<path d="M90.8814 49.3046C87.7616 47.7633 84.2948 47.534 81.0422 48.8273C79.665 49.3756 80.2645 51.6282 81.6615 51.0729C84.3262 50.0135 87.1166 50.0357 89.7068 51.3151C91.0479 51.9774 92.2272 49.9693 90.8814 49.3046Z" fill="#843E2F"/>
<path d="M88.0725 54.4918C88.0725 55.7048 87.09 56.6885 85.877 56.6885C84.6651 56.6885 83.6814 55.7048 83.6814 54.4918C83.6814 53.2799 84.6651 52.2962 85.877 52.2962C87.09 52.2962 88.0725 53.2799 88.0725 54.4918Z" fill="#051733"/>
<path d="M60.2463 49.3046C63.3662 47.7633 66.833 47.534 70.0856 48.8273C71.4628 49.3756 70.8632 51.6282 69.4663 51.0729C66.8016 50.0135 64.0112 50.0357 61.421 51.3151C60.0799 51.9774 58.9006 49.9693 60.2463 49.3046Z" fill="#843E2F"/>
<path d="M63.0541 54.4918C63.0541 55.7048 64.0378 56.6885 65.2508 56.6885C66.4626 56.6885 67.4464 55.7048 67.4464 54.4918C67.4464 53.2799 66.4626 52.2962 65.2508 52.2962C64.0378 52.2962 63.0541 53.2799 63.0541 54.4918Z" fill="#051733"/>
<path d="M68.4093 73.014C69.1835 75.9034 72.0891 78.0547 75.5641 78.0547C79.039 78.0547 81.9447 75.9034 82.7177 73.014H68.4093Z" fill="white"/>
<path d="M69.6736 85.3918V89.6173C69.6736 90.3685 70.8377 90.3685 70.8377 89.6173V85.3918C70.8377 84.6406 69.6736 84.6406 69.6736 85.3918Z" fill="#843E2F"/>
<path d="M72.2393 86.046C72.3115 87.4549 72.3825 88.8632 72.4547 90.272C72.4931 91.0182 73.6573 91.0219 73.6188 90.272C73.5467 88.8632 73.4756 87.4549 73.4035 86.046C73.3651 85.2989 72.2009 85.2953 72.2393 86.046Z" fill="#843E2F"/>
<path d="M80.2904 85.3918V89.6173C80.2904 90.3685 81.4545 90.3685 81.4545 89.6173V85.3918C81.4545 84.6406 80.2904 84.6406 80.2904 85.3918Z" fill="#843E2F"/>
<path d="M77.7249 86.046C77.6527 87.4549 77.5817 88.8632 77.5095 90.272C77.4711 91.0219 78.6352 91.0182 78.6736 90.272C78.7458 88.8632 78.8168 87.4549 78.889 86.046C78.9274 85.2953 77.7633 85.2989 77.7249 86.046Z" fill="#843E2F"/>
<path d="M74.9819 86.4773V90.9184C74.9819 91.6691 76.1461 91.6691 76.1461 90.9184V86.4773C76.1461 85.7266 74.9819 85.7266 74.9819 86.4773Z" fill="#843E2F"/>
</svg>
