<svg width="174" height="173" viewBox="0 0 174 173" fill="none" xmlns="http://www.w3.org/2000/svg">
<path d="M173.227 86.4C173.227 110.84 163.067 132.92 146.747 148.627C143.52 151.747 140.053 154.6 136.373 157.173C134.267 158.667 132.08 160.053 129.84 161.347C117.36 168.52 102.907 172.667 87.4932 172.773C87.2665 172.787 87.0532 172.787 86.8265 172.787C86.5999 172.787 86.3865 172.787 86.1599 172.773C71.9065 172.68 58.4665 169.12 46.6532 162.893C44.1065 161.56 41.6398 160.107 39.2532 158.507C34.8265 155.6 30.7065 152.293 26.9065 148.627C10.5865 132.92 0.426514 110.84 0.426514 86.4C0.426514 38.68 39.1065 -1.52588e-05 86.8265 -1.52588e-05C134.547 -1.52588e-05 173.227 38.68 173.227 86.4Z" fill="#D7EAF1"/>
<path d="M134.974 95.0908C133.762 92.5654 131.853 90.3348 131.228 87.6054C130.645 85.0588 131.257 82.4121 131.768 79.8508C132.88 74.2654 133.465 68.2655 131.182 63.0495C128.712 57.4068 123.272 53.5614 120.426 48.0975C117.321 42.1321 117.541 34.6868 113.654 29.1988C109.805 23.7654 102.805 21.5454 96.1865 20.8348C94.9412 20.7014 93.6132 20.7614 92.3012 20.9921C88.6878 21.6268 84.9651 21.6268 81.3518 20.9921C80.0398 20.7614 78.7118 20.7014 77.4665 20.8348C70.8478 21.5454 63.8478 23.7654 59.9985 29.1988C56.1118 34.6868 56.3318 42.1321 53.2265 48.0975C50.3812 53.5614 44.9412 57.4068 42.4705 63.0495C40.1878 68.2655 40.7732 74.2654 41.8852 79.8508C42.3945 82.4121 43.0078 85.0588 42.4252 87.6054C41.7998 90.3348 39.8905 92.5654 38.6785 95.0908C35.9705 100.731 36.8878 108.245 41.3118 112.669C52.6091 123.967 86.8265 116.165 86.8265 116.165C86.8265 116.165 121.044 123.967 132.341 112.669C136.765 108.245 137.682 100.731 134.974 95.0908Z" fill="#051733"/>
<path d="M146.746 148.627C143.52 151.747 140.053 154.6 136.373 157.173C134.266 158.667 132.08 160.053 129.84 161.347C117.36 168.52 102.906 172.667 87.4931 172.773C87.2665 172.787 87.0531 172.787 86.8265 172.787C86.5998 172.787 86.3865 172.787 86.1598 172.773C71.9065 172.68 58.4665 169.12 46.6531 162.893C44.1065 161.56 41.6398 160.107 39.2531 158.507C34.8265 155.6 30.7065 152.293 26.9065 148.627C31.2932 142.147 37.5865 137.093 45.0131 134.24L52.9732 131.173C55.9198 130.04 58.6531 128.52 61.1198 126.68L61.1332 126.667C64.1598 124.427 66.7731 121.707 68.8931 118.613C69.5731 117.64 70.1865 116.627 70.7598 115.587C70.9598 115.227 71.1465 114.853 71.3332 114.48C71.4798 114.2 71.6132 113.92 71.7332 113.64C71.8532 113.4 71.9598 113.16 72.0665 112.907C72.3465 112.293 72.5998 111.667 72.8265 111.027C72.9998 110.573 73.1598 110.107 73.3065 109.64C73.5598 108.853 73.7865 108.067 73.9732 107.267C74.0665 106.893 74.1598 106.52 74.2265 106.147L74.6931 103.88L75.9332 97.9333L77.3465 91.08H96.3065L97.7198 97.9333L99.4265 106.147C99.5331 106.667 99.6531 107.173 99.7865 107.68C99.9465 108.347 100.146 109 100.346 109.64C100.6 110.44 100.88 111.227 101.2 112C101.32 112.333 101.466 112.653 101.613 112.987C101.946 113.747 102.293 114.48 102.68 115.213C102.906 115.627 103.133 116.027 103.36 116.427C103.8 117.173 104.266 117.907 104.76 118.613C106.88 121.707 109.493 124.427 112.52 126.667C114.986 128.52 117.733 130.027 120.68 131.173L128.64 134.24C136.066 137.093 142.36 142.147 146.746 148.627Z" fill="#E30081"/>
<path d="M87.4932 142.653V172.773C87.2666 172.787 87.0532 172.787 86.8266 172.787C86.5999 172.787 86.3866 172.787 86.1599 172.773V142.653C86.1599 142.533 86.1866 142.413 86.2266 142.32V142.307C86.3466 142.067 86.5599 141.907 86.8266 141.907C87.0932 141.907 87.3066 142.067 87.4266 142.307V142.32C87.4666 142.413 87.4932 142.533 87.4932 142.653Z" fill="#A80060"/>
<path d="M103.36 116.427C90.3066 127.84 86.8266 147.32 86.8266 147.32C86.8266 147.32 85.6399 132.214 70.7599 115.587C72.3599 112.667 73.5332 109.494 74.2266 106.147L74.6932 103.88L77.3465 91.0803H96.3066L99.4266 106.147C100.093 109.347 101.2 112.4 102.68 115.214C102.907 115.627 103.133 116.027 103.36 116.427Z" fill="#F69779"/>
<path d="M102.68 115.214C98.9064 116.36 96.1198 116.36 96.1198 116.36C96.1198 116.36 82.4264 116.36 74.6931 103.88L77.3464 91.0803H96.3065L99.4264 106.147C100.093 109.347 101.2 112.4 102.68 115.214Z" fill="#F37A67"/>
<path d="M119.397 65.0203C119.235 63.9563 118.841 62.8763 118.029 62.1696C117.296 61.5336 116.289 61.2696 115.32 61.3123C114.349 61.3536 113.412 61.6776 112.539 62.1003C112.539 62.1003 112.452 37.5203 103.739 37.2349C98.0252 36.9483 95.4825 38.6629 86.8265 38.6629C78.1692 38.6629 75.6278 36.9483 69.9145 37.2349C61.2012 37.5203 61.1145 62.1003 61.1145 62.1003C60.2412 61.6776 59.3025 61.3536 58.3332 61.3123C57.3639 61.2696 56.3572 61.5336 55.6238 62.1696C54.8118 62.8763 54.4185 63.9563 54.2558 65.0203C53.9305 67.1549 54.4425 69.4069 55.6572 71.1923C56.8732 72.9776 58.6665 74.3203 60.7719 74.8016C64.4865 100.8 86.8265 100.8 86.8265 100.8C86.8265 100.8 109.167 100.8 112.881 74.8016C114.987 74.3203 116.78 72.9776 117.996 71.1923C119.211 69.4069 119.721 67.1549 119.397 65.0203Z" fill="#F69779"/>
<path d="M102.081 123.609L114.232 129.687L104.195 111.988C104.195 111.988 103.117 109.611 99.7039 109.611L102.081 123.609Z" fill="#FF54B6"/>
<path d="M86.8265 147.32C86.8265 147.32 93.1145 130.788 102.081 123.61L99.7039 109.611C99.7039 109.611 87.4932 132.654 86.8265 147.32Z" fill="#A80060"/>
<path d="M71.5718 123.609L59.4198 129.687L69.4585 111.988C69.4585 111.988 70.5358 109.611 73.9491 109.611L71.5718 123.609Z" fill="#FF54B6"/>
<path d="M86.8266 147.32C86.8266 147.32 80.5386 130.788 71.5719 123.61L73.9492 109.611C73.9492 109.611 86.1599 132.654 86.8266 147.32Z" fill="#A80060"/>
<path d="M136.373 157.173C134.267 158.667 132.08 160.053 129.84 161.347L134.36 148.707L136.373 157.173Z" fill="#A80060"/>
<path d="M46.6532 162.894C44.1065 161.56 41.6398 160.107 39.2532 158.507L41.5865 148.707L46.6532 162.894Z" fill="#A80060"/>
<path d="M85.5745 60.8215V76.0762H88.1598C92.5904 76.0762 86.3971 62.5748 85.5745 60.8215Z" fill="#F37A67"/>
<path d="M104.371 54.8789C100.797 53.1136 96.8265 52.8509 93.1012 54.3322C91.5238 54.9602 92.2105 57.5389 93.8105 56.9029C96.8625 55.6909 100.058 55.7149 103.025 57.1816C104.561 57.9403 105.912 55.6402 104.371 54.8789Z" fill="#051733"/>
<path d="M101.153 59.6292C100.342 58.2212 98.6385 58.3066 98.6385 58.3066C97.2505 58.3066 96.1238 59.4332 96.1238 60.8212C96.1238 62.2106 97.2505 63.3359 98.6385 63.3359C98.9451 63.3359 99.2358 63.2732 99.5065 63.1732L99.5078 63.1799C99.5251 63.1746 99.5358 63.1653 99.5518 63.1586C99.6331 63.1279 99.7091 63.0866 99.7864 63.0479C101.985 62.0933 102.22 59.6533 102.22 59.6533C101.781 60.0226 101.153 59.6292 101.153 59.6292Z" fill="#051733"/>
<path d="M69.2825 54.8789C72.8558 53.1136 76.8265 52.8509 80.5518 54.3322C82.1292 54.9602 81.4425 57.5389 79.8425 56.9029C76.7905 55.6909 73.5945 55.7149 70.6278 57.1816C69.0918 57.9403 67.7398 55.6402 69.2825 54.8789Z" fill="#051733"/>
<path d="M72.4986 59.6292C73.3106 58.2212 75.0145 58.3066 75.0145 58.3066C76.4025 58.3066 77.5292 59.4332 77.5292 60.8212C77.5292 62.2106 76.4025 63.3359 75.0145 63.3359C74.7079 63.3359 74.4172 63.2732 74.1465 63.1732L74.1452 63.1799C74.1279 63.1746 74.1172 63.1653 74.1012 63.1586C74.0199 63.1279 73.9439 63.0866 73.8666 63.0479C71.6679 62.0933 71.4332 59.6533 71.4332 59.6533C71.8719 60.0226 72.4986 59.6292 72.4986 59.6292Z" fill="#051733"/>
<path d="M78.6318 84.192C79.5185 87.5013 82.8465 89.9653 86.8265 89.9653C90.8065 89.9653 94.1345 87.5013 95.0198 84.192H78.6318Z" fill="white"/>
</svg>
