<svg width="174" height="173" viewBox="0 0 174 173" fill="none" xmlns="http://www.w3.org/2000/svg">
<path d="M173.653 86.4C173.653 106.92 166.493 125.773 154.546 140.587C149.146 147.293 142.76 153.16 135.613 157.987C133.813 159.213 131.96 160.373 130.066 161.453C127.653 162.84 125.16 164.107 122.6 165.253C113.6 169.293 103.786 171.84 93.4664 172.56C91.6665 172.693 89.8665 172.773 88.0398 172.773C87.7865 172.787 87.5198 172.787 87.2664 172.787C87.0131 172.787 86.7731 172.787 86.5198 172.773C83.0264 172.76 79.5864 172.52 76.1998 172.08C67.6531 170.987 59.5065 168.653 51.9331 165.253C49.3731 164.107 46.8798 162.84 44.4665 161.453C42.5731 160.373 40.7198 159.227 38.9198 158C31.7731 153.173 25.3864 147.293 19.9864 140.587C8.02644 125.773 0.866455 106.92 0.866455 86.4C0.866455 38.68 39.5465 -1.52588e-05 87.2664 -1.52588e-05C134.973 -1.52588e-05 173.653 38.68 173.653 86.4Z" fill="#D7EAF1"/>
<path d="M154.547 140.587C149.147 147.293 142.76 153.16 135.613 157.987C133.813 159.213 131.96 160.373 130.067 161.453C127.653 162.84 125.16 164.107 122.6 165.253C113.6 169.293 103.787 171.84 93.4666 172.56C91.6666 172.693 89.8666 172.773 88.0399 172.773C87.7866 172.787 87.5199 172.787 87.2666 172.787C87.0133 172.787 86.7732 172.787 86.5199 172.773C83.0266 172.76 79.5866 172.52 76.1999 172.08C67.6533 170.987 59.5066 168.653 51.9333 165.253C49.3733 164.107 46.8799 162.84 44.4666 161.453C42.5733 160.373 40.7199 159.227 38.9199 158C31.7732 153.173 25.3866 147.293 19.9866 140.587C22.3066 132.893 28.4266 126.827 36.3066 124.653L50.9599 120.6L57.0132 118.933L69.6532 115.427L70.3466 115.24L70.9333 115.08L71.6799 110.867V110.853L72.4399 106.653L72.8132 104.507L73.9599 98.12L74.1999 96.72L75.2132 91.08L85.7733 95.2133L87.2666 95.8L88.7599 95.2133L99.3199 91.08L100.333 96.72L100.507 97.7466L101.173 101.507H101.187L102.093 106.653L103.6 115.08L104.187 115.24L104.893 115.44L117.52 118.933L123.573 120.613L138.227 124.653C146.107 126.827 152.227 132.893 154.547 140.587Z" fill="#4749D6"/>
<path d="M113.599 38.751C110.515 32.9697 104.619 29.7711 99.1866 28.0031C91.4586 25.4871 83.0746 25.4871 75.3466 28.0031C69.9146 29.7711 64.0186 32.9697 60.9346 38.751C55.3613 49.4244 56.3106 66.0257 56.3106 66.0257L62.1212 72.1924L87.2666 69.0017L112.412 72.1924L118.223 66.0257C118.223 66.0257 119.172 49.4244 113.599 38.751Z" fill="#051733"/>
<path d="M78.6864 41.4482C78.6864 41.4482 69.4571 31.6923 75.1238 24.4976C75.4251 24.1149 75.9064 23.9109 76.3931 23.9109H77.3464C78.1851 23.9109 78.9704 23.4962 79.4438 22.8042L81.2171 20.2136C81.7638 19.4149 82.9211 19.3603 83.5411 20.1029L84.0144 20.6723C84.5918 21.3656 85.6398 21.4123 86.2771 20.7749L87.4438 19.6083C87.9958 19.0563 88.8838 19.0376 89.4598 19.5656L90.6358 20.6429C91.2624 21.2176 92.2358 21.1723 92.8065 20.5443L93.1544 20.1616C93.8358 19.4136 95.0531 19.5682 95.5238 20.4629L96.8385 22.9602C97.1291 23.5136 97.7691 23.7816 98.3664 23.6029L98.8464 23.4589C99.6264 23.2243 100.458 23.5896 100.812 24.3229C102.098 26.9989 104.248 33.5536 98.4518 39.7789L78.6864 41.4482Z" fill="#1D3863"/>
<path d="M119.837 65.0203C119.675 63.9563 119.281 62.8763 118.469 62.1696C117.736 61.5336 116.729 61.2696 115.76 61.3123C114.789 61.3536 113.852 61.6776 112.979 62.1003C112.979 62.1003 112.892 37.5203 104.179 37.2349C98.4652 36.9483 95.9239 38.6629 87.2666 38.6629C78.6092 38.6629 76.0679 36.9483 70.3545 37.2349C61.6412 37.5203 61.5545 62.1003 61.5545 62.1003C60.6812 61.6776 59.7426 61.3536 58.7732 61.3123C57.8039 61.2696 56.7972 61.5336 56.0639 62.1696C55.2519 62.8763 54.8586 63.9563 54.6959 65.0203C54.3719 67.1549 54.8826 69.4069 56.0972 71.1923C57.3132 72.9776 59.1065 74.3203 61.2119 74.8016C64.9265 100.8 87.2666 100.8 87.2666 100.8C87.2666 100.8 109.607 100.8 113.321 74.8016C115.427 74.3203 117.22 72.9776 118.436 71.1923C119.651 69.4069 120.161 67.1549 119.837 65.0203Z" fill="#F69779"/>
<path d="M109.933 125.373L93.4665 172.56C91.6665 172.693 89.8665 172.773 88.0399 172.773C87.7865 172.787 87.5198 172.787 87.2665 172.787C87.0132 172.787 86.7732 172.787 86.5198 172.773C83.0265 172.76 79.5865 172.52 76.1998 172.08L64.6132 125.373L69.6532 115.427H73.8532L104.16 115.44H104.893L109.933 125.373Z" fill="#FFA33B"/>
<path d="M104.186 115.24C104.093 115.987 103.893 116.707 103.573 117.4C101.546 122 94.9998 125.374 87.2665 125.374C78.3598 125.374 71.0264 120.907 70.3464 115.24L70.9331 115.08L71.6798 110.854L73.9598 98.1202L75.2131 91.0802L85.7731 95.2135V103.374C86.2665 103.347 86.7598 103.334 87.2665 103.334C87.7731 103.334 88.2664 103.347 88.7598 103.374V95.2135L99.3198 91.0802L101.186 101.507L103.6 115.08L104.186 115.24Z" fill="#F69779"/>
<path d="M104.187 115.24C104.093 115.987 103.893 116.707 103.573 117.4C100.56 118.467 98.3998 118.08 98.3998 118.08C98.3998 118.08 96.1865 121.414 90.1865 121.414C84.1732 121.414 81.9598 118.08 81.9598 118.08C81.9598 118.08 79.5198 118.52 76.1998 117.187C73.5998 116.107 72.3198 113.36 71.6798 110.854L73.9598 98.1202C74.1198 98.2669 74.2798 98.4136 74.4398 98.5603C77.4665 101.267 81.3998 102.747 85.4665 102.747H94.8932C97.0665 102.747 99.1999 102.32 101.187 101.507L103.6 115.08L104.187 115.24Z" fill="#F37A67"/>
<path d="M115.773 150.653L122.6 165.253C113.6 169.293 103.786 171.84 93.4665 172.56C91.6665 172.693 89.8665 172.773 88.0398 172.773L104.893 115.44L117.52 118.933L123.573 120.613L133.44 137.987L115.773 150.653Z" fill="#7375F5"/>
<path d="M86.5199 172.773C83.0266 172.76 79.5866 172.52 76.1999 172.08C67.6532 170.987 59.5066 168.653 51.9332 165.253L58.7732 150.653L41.1066 137.987L50.9599 120.6L57.0132 118.933L69.6532 115.427L86.5199 172.773Z" fill="#7375F5"/>
<path d="M112.977 62.1003C108.025 68.6003 109.484 80.6536 109.484 80.6536C108.132 83.4616 105.465 86.271 103.011 88.4643C99.9772 91.1737 96.0452 92.6536 91.9785 92.6536H87.2665H82.5545C78.4865 92.6536 74.5558 91.1737 71.5225 88.4643C69.0678 86.271 66.4012 83.4616 65.0492 80.6536C65.0492 80.6536 66.5078 68.6003 61.5545 62.1003C61.5545 62.1003 59.7158 91.987 64.3825 95.7643C66.6038 97.987 68.1599 95.7643 68.1599 95.7643C68.1599 95.7643 67.9638 104.876 73.2838 107.098C76.6038 108.431 79.0492 107.987 79.0492 107.987C79.0492 107.987 81.2625 111.32 87.2665 111.32C93.2705 111.32 95.4838 107.987 95.4838 107.987C95.4838 107.987 97.9292 108.431 101.249 107.098C106.569 104.876 106.373 95.7643 106.373 95.7643C106.373 95.7643 107.929 97.987 110.151 95.7643C114.817 91.987 112.977 62.1003 112.977 62.1003Z" fill="#051733"/>
<path d="M135.613 157.986C133.813 159.213 131.96 160.373 130.067 161.453L133.653 141.906L135.613 157.986Z" fill="#3537A1"/>
<path d="M44.4666 161.453C42.5733 160.373 40.7199 159.226 38.9199 158L40.8799 141.906L44.4666 161.453Z" fill="#3537A1"/>
<path d="M86.0145 59.9015V75.1548H88.5999C93.0305 75.1548 86.8372 61.6535 86.0145 59.9015Z" fill="#F37A67"/>
<path d="M104.811 53.957C101.237 52.1917 97.2666 51.9291 93.5412 53.4104C91.9639 54.0384 92.6505 56.6184 94.2505 55.9824C97.3025 54.7691 100.499 54.7944 103.465 56.2597C105.001 57.0184 106.352 54.7184 104.811 53.957Z" fill="#051733"/>
<path d="M101.593 59.9017C101.593 61.2897 100.468 62.415 99.0785 62.415C97.6905 62.415 96.5638 61.2897 96.5638 59.9017C96.5638 58.5124 97.6905 57.3857 99.0785 57.3857C100.468 57.3857 101.593 58.5124 101.593 59.9017Z" fill="#051733"/>
<path d="M69.7224 53.957C73.2958 52.1917 77.2665 51.9291 80.9918 53.4104C82.5691 54.0384 81.8824 56.6184 80.2824 55.9824C77.2304 54.7691 74.0345 54.7944 71.0678 56.2597C69.5318 57.0184 68.1811 54.7184 69.7224 53.957Z" fill="#051733"/>
<path d="M72.9385 59.9017C72.9385 61.2897 74.0651 62.415 75.4545 62.415C76.8425 62.415 77.9691 61.2897 77.9691 59.9017C77.9691 58.5124 76.8425 57.3857 75.4545 57.3857C74.0651 57.3857 72.9385 58.5124 72.9385 59.9017Z" fill="#051733"/>
<path d="M79.0719 85.1134C79.9586 88.4227 83.2866 90.8867 87.2666 90.8867C91.2466 90.8867 94.5746 88.4227 95.4599 85.1134H79.0719Z" fill="white"/>
</svg>
