<svg width="174" height="174" viewBox="0 0 174 174" fill="none" xmlns="http://www.w3.org/2000/svg">
<path d="M173.227 86.9867C173.227 111.933 162.653 134.413 145.733 150.2C140.267 155.293 134.133 159.693 127.467 163.24C115.36 169.72 101.52 173.387 86.8265 173.387C72.1332 173.387 58.2932 169.72 46.1865 163.253C39.5198 159.693 33.3865 155.293 27.9198 150.2C10.9998 134.413 0.426514 111.933 0.426514 86.9867C0.426514 39.2667 39.1065 0.586716 86.8265 0.586716C134.547 0.586716 173.227 39.2667 173.227 86.9867Z" fill="#D7EAF1"/>
<path d="M68.8266 29.1161C68.8266 29.1161 76.8266 18.9868 90.4932 18.9868C104.16 18.9868 117.827 42.9868 121.16 61.3201C124.493 79.6535 131.493 145.987 131.493 145.987H45.1599L50.8986 53.8415C51.2039 48.9495 52.4346 44.1321 54.7426 39.8081C57.4093 34.8148 61.8266 29.6801 68.8266 29.1161Z" fill="#E44424"/>
<path d="M145.733 150.2C140.266 155.293 134.133 159.693 127.466 163.24C115.36 169.72 101.52 173.387 86.8265 173.387C72.1331 173.387 58.2931 169.72 46.1865 163.253C39.5198 159.693 33.3865 155.293 27.9198 150.2C32.2398 144.4 38.1465 139.88 45.0131 137.24L45.7198 136.973L52.9732 134.173C56.0398 132.987 58.8798 131.4 61.4398 129.44C67.9198 124.507 72.5198 117.333 74.2265 109.147L74.4531 108.027L75.9198 100.933V100.92L77.3465 94.08H96.3065L97.7198 100.933L99.4265 109.147C100.626 114.907 103.253 120.16 106.973 124.48C108.533 126.307 110.293 127.973 112.213 129.44C114.773 131.4 117.613 132.987 120.68 134.173L128.64 137.24C129.32 137.507 129.973 137.787 130.64 138.08H130.653C136.666 140.787 141.84 144.973 145.733 150.2Z" fill="#F69779"/>
<path d="M106.973 124.48C102.333 126.24 98.6265 126.24 98.6265 126.24C98.6265 126.24 80.9998 126.24 74.4531 108.027L77.3465 94.0802H96.3065L99.4265 109.147C100.626 114.907 103.253 120.16 106.973 124.48Z" fill="#F37A67"/>
<path d="M96.9332 40.7603C91.5199 36.7736 86.8265 35.6536 86.8265 35.6536C86.8265 35.6536 82.1332 36.7736 76.7199 40.7603C69.3065 46.2136 60.5466 57.067 60.7732 77.8003C64.4799 103.8 86.8265 103.8 86.8265 103.8C86.8265 103.8 109.173 103.8 112.88 77.8003C113.107 57.067 104.347 46.2136 96.9332 40.7603Z" fill="#F69779"/>
<path d="M127.467 163.24C115.36 169.72 101.52 173.387 86.8265 173.387C72.1332 173.387 58.2932 169.72 46.1865 163.253C46.8932 161.84 47.5199 160.453 48.0932 159.093C50.1065 154.307 51.3332 149.88 52.0532 145.987C52.9732 141.067 53.0799 137.013 52.9732 134.173C56.0399 132.987 58.8799 131.4 61.4399 129.44V141.787C61.4399 143.24 61.6132 144.64 61.9599 145.987C63.8265 153.467 70.5865 158.987 78.6265 158.987H95.0265C103.067 158.987 109.827 153.467 111.693 145.987C112.04 144.64 112.213 143.24 112.213 141.787V129.44C114.773 131.4 117.613 132.987 120.68 134.173C120.56 137.013 120.68 141.067 121.6 145.987C122.533 150.973 124.293 156.853 127.467 163.24Z" fill="#662D8E"/>
<path d="M85.5745 64.2149V79.4683H88.1598C92.5904 79.4683 86.3971 65.9669 85.5745 64.2149Z" fill="#F37A67"/>
<path d="M104.371 58.2709C100.797 56.5056 96.8265 56.2443 93.1012 57.7256C91.5238 58.3523 92.2105 60.9323 93.8105 60.2963C96.8625 59.083 100.058 59.1083 103.025 60.5736C104.561 61.3323 105.912 59.0336 104.371 58.2709Z" fill="#E44424"/>
<path d="M101.153 63.0228C100.342 61.6148 98.6385 61.7002 98.6385 61.7002C97.2505 61.7002 96.1238 62.8255 96.1238 64.2148C96.1238 65.6028 97.2505 66.7295 98.6385 66.7295C98.9451 66.7295 99.2358 66.6668 99.5065 66.5668L99.5078 66.5735C99.5251 66.5681 99.5358 66.5575 99.5518 66.5521C99.6331 66.5201 99.7091 66.4801 99.7864 66.4401C101.985 65.4868 102.22 63.0455 102.22 63.0455C101.781 63.4148 101.153 63.0228 101.153 63.0228Z" fill="#051733"/>
<path d="M69.2825 58.2709C72.8558 56.5056 76.8265 56.2443 80.5518 57.7256C82.1292 58.3523 81.4425 60.9323 79.8425 60.2963C76.7905 59.083 73.5945 59.1083 70.6278 60.5736C69.0918 61.3323 67.7398 59.0336 69.2825 58.2709Z" fill="#E44424"/>
<path d="M72.4986 63.0228C73.3106 61.6148 75.0145 61.7002 75.0145 61.7002C76.4025 61.7002 77.5292 62.8255 77.5292 64.2148C77.5292 65.6028 76.4025 66.7295 75.0145 66.7295C74.7079 66.7295 74.4172 66.6668 74.1465 66.5668L74.1452 66.5735C74.1279 66.5681 74.1172 66.5575 74.1012 66.5521C74.0199 66.5201 73.9439 66.4801 73.8666 66.4401C71.6679 65.4868 71.4332 63.0455 71.4332 63.0455C71.8719 63.4148 72.4986 63.0228 72.4986 63.0228Z" fill="#051733"/>
<path d="M78.6318 87.5855C79.5185 90.8949 82.8465 93.3589 86.8265 93.3589C90.8065 93.3589 94.1345 90.8949 95.0198 87.5855H78.6318Z" fill="white"/>
<path d="M127.467 163.24C115.36 169.72 101.52 173.387 86.8265 173.387C72.1332 173.387 58.2932 169.72 46.1865 163.253C46.8932 161.84 47.5199 160.453 48.0932 159.093C62.8799 155.4 85.5732 167.227 85.5732 167.227C105.827 155.16 119.493 161.147 119.493 161.147C117.2 153.427 121.6 145.987 121.6 145.987C122.533 150.973 124.293 156.853 127.467 163.24Z" fill="#472063"/>
</svg>
