<svg width="173" height="173" viewBox="0 0 173 173" fill="none" xmlns="http://www.w3.org/2000/svg">
<path d="M172.787 86.5732C172.787 107.52 165.333 126.734 152.92 141.694C147.64 148.067 141.467 153.667 134.573 158.294C131.933 160.08 129.2 161.706 126.36 163.187C114.413 169.44 100.813 172.973 86.3864 172.973C70.9463 172.973 56.4531 168.92 43.9197 161.827C41.2265 160.306 38.6265 158.653 36.1333 156.853C29.3599 152 23.3068 146.187 18.2 139.613C6.7864 124.973 0 106.56 0 86.5732C0 38.8667 38.6796 0.186768 86.3864 0.186768C134.107 0.186768 172.787 38.8667 172.787 86.5732Z" fill="#D7EAF1"/>
<path d="M152.92 141.694C147.64 148.067 141.467 153.667 134.573 158.294C131.933 160.08 129.2 161.706 126.36 163.187C114.413 169.44 100.813 172.973 86.3864 172.973C70.9463 172.973 56.4531 168.92 43.9197 161.827C41.2265 160.306 38.6265 158.653 36.1333 156.853C29.3599 152 23.3068 146.187 18.2 139.613C20.6531 132.227 26.6531 126.427 34.3068 124.32L55.0129 118.6L62.4796 116.534L68.9333 114.747L69.2531 112.987H101.28L101.6 114.747L108.053 116.534L115.52 118.6L136.227 124.32C144.587 126.627 150.973 133.32 152.92 141.694Z" fill="#BD948F"/>
<path d="M101.287 112.987H69.2468L68.9334 114.747L62.4796 116.534L62.6667 117.04C62.7599 117.28 62.8531 117.494 62.9333 117.68C65.3599 124.72 74.3735 129.573 85.2667 129.573C96.1599 129.573 105.173 124.72 107.6 117.68C107.68 117.494 107.773 117.28 107.867 117.04L108.053 116.534L101.6 114.747L101.287 112.987Z" fill="#3D3936"/>
<path d="M101.6 114.746C101.547 114.893 101.467 115.013 101.4 115.146C100.24 119.533 93.4665 122.906 85.2667 122.906C77.0667 122.906 70.2932 119.533 69.1333 115.146C69.0667 115.013 68.9864 114.893 68.9333 114.746L71.5197 100.24L73.2129 90.7464L85.2667 95.4668L97.3199 90.7464L101.12 112.08L101.6 114.746Z" fill="#F69779"/>
<path d="M101.12 112.08C96.8132 113.587 93.4666 113.587 93.4666 113.587C93.4666 113.587 79.1334 113.587 71.5198 100.24L73.213 90.7468L85.2667 95.4672L97.3199 90.7468L101.12 112.08Z" fill="#F37A67"/>
<path d="M96.0932 29.3758C96.0932 29.3758 110.317 28.0878 114.864 38.2665C118.193 45.7238 120.397 85.2062 104.388 87.5771L90.9492 32.4358L96.0932 29.3758Z" fill="#051733"/>
<path d="M74.4391 29.3758C74.4391 29.3758 60.2156 28.0878 55.6697 38.2665C52.3396 45.7238 50.1359 85.2062 66.1448 87.5771L79.5839 32.4358L74.4391 29.3758Z" fill="#051733"/>
<path d="M117.837 64.6866C117.675 63.6226 117.281 62.5426 116.469 61.8359C115.736 61.1999 114.729 60.9359 113.76 60.9786C112.789 61.0199 111.852 61.3439 110.979 61.7666C110.979 61.7666 110.892 37.1866 102.179 36.8999C96.4652 36.6146 93.9239 38.3292 85.2667 38.3292C76.6098 38.3292 74.0682 36.6146 68.3541 36.8999C59.6405 37.1866 59.5552 61.7666 59.5552 61.7666C58.6817 61.3439 57.7432 61.0199 56.7738 60.9786C55.8041 60.9359 54.7968 61.1999 54.0645 61.8359C53.252 62.5426 52.8583 63.6226 52.6963 64.6866C52.3713 66.8212 52.8823 69.0732 54.0973 70.8586C55.3125 72.6439 57.1068 73.9866 59.212 74.4679C62.926 100.466 85.2667 100.466 85.2667 100.466C85.2667 100.466 107.607 100.466 111.321 74.4679C113.427 73.9866 115.22 72.6439 116.436 70.8586C117.651 69.0732 118.161 66.8212 117.837 64.6866Z" fill="#F69779"/>
<path d="M102.179 36.9001C102.179 36.9001 103.255 26.3095 77.1661 26.3095C63.3312 26.3095 58.588 35.0055 56.8093 39.1561L61.3552 37.7735C61.3552 37.7735 55.8213 45.0855 56.8093 50.2241C56.8093 50.2241 64.715 42.7135 71.2369 42.1215C77.7588 41.5281 95.5692 40.5734 102.179 36.9001Z" fill="#051733"/>
<path d="M134.573 158.293C131.933 160.08 129.2 161.706 126.36 163.187L131.653 134.32L134.573 158.293Z" fill="#9C7672"/>
<path d="M43.9198 161.827C41.2266 160.307 38.6266 158.654 36.1334 156.854L38.8796 134.32L43.9198 161.827Z" fill="#9C7672"/>
<path d="M84.014 65.5666V80.8213H86.5995C91.0306 80.8213 84.837 67.32 84.014 65.5666Z" fill="#F37A67"/>
<path d="M102.811 59.624C99.2372 57.8587 95.2665 57.596 91.5412 59.0774C89.9639 59.7054 90.6506 62.2854 92.2506 61.6494C95.3026 60.436 98.4986 60.4614 101.465 61.9267C103.001 62.6854 104.352 60.3854 102.811 59.624Z" fill="#051733"/>
<path d="M99.5932 65.567C99.5932 66.9563 98.4678 68.083 97.0785 68.083C95.6905 68.083 94.5638 66.9563 94.5638 65.567C94.5638 64.179 95.6905 63.0523 97.0785 63.0523C98.4678 63.0523 99.5932 64.179 99.5932 65.567Z" fill="#051733"/>
<path d="M67.7224 59.624C71.2953 57.8587 75.2672 57.596 78.9916 59.0774C80.5697 59.7054 79.8822 62.2854 78.2828 61.6494C75.2312 60.436 72.0349 60.4614 69.0682 61.9267C67.5322 62.6854 66.1806 60.3854 67.7224 59.624Z" fill="#051733"/>
<path d="M70.9391 65.567C70.9391 66.9563 72.0651 68.083 73.4542 68.083C74.8427 68.083 75.9687 66.9563 75.9687 65.567C75.9687 64.179 74.8427 63.0523 73.4542 63.0523C72.0651 63.0523 70.9391 64.179 70.9391 65.567Z" fill="#051733"/>
<path d="M77.0724 86.7798C77.9588 90.0892 81.2864 92.5532 85.2667 92.5532C89.2465 92.5532 92.5745 90.0892 93.4599 86.7798H77.0724Z" fill="white"/>
</svg>
