<svg width="129" height="129" viewBox="0 0 129 129" fill="none" xmlns="http://www.w3.org/2000/svg">
<g clip-path="url(#clip0)">
<circle cx="64.0114" cy="64.0114" r="61.3442" fill="#EEEEEE" stroke="#C4C4C4" stroke-width="5.33428"/>
<mask id="path-2-inside-1" fill="white">
<path fill-rule="evenodd" clip-rule="evenodd" d="M16.0028 106.352V104.018C16.0028 88.0551 47.9885 80.0137 64.0114 80.0137C80.0342 80.0137 112.02 88.0551 112.02 104.018V106.352C100.291 119.641 83.1298 128.022 64.0114 128.022C44.8929 128.022 27.732 119.641 16.0028 106.352ZM64.0114 26.6709C50.749 26.6709 40.0071 37.4128 40.0071 50.6752C40.0071 63.9375 50.749 74.6794 64.0114 74.6794C77.2737 74.6794 88.0156 63.9375 88.0156 50.6752C88.0156 37.4128 77.2737 26.6709 64.0114 26.6709Z"/>
</mask>
<path fill-rule="evenodd" clip-rule="evenodd" d="M16.0028 106.352V104.018C16.0028 88.0551 47.9885 80.0137 64.0114 80.0137C80.0342 80.0137 112.02 88.0551 112.02 104.018V106.352C100.291 119.641 83.1298 128.022 64.0114 128.022C44.8929 128.022 27.732 119.641 16.0028 106.352ZM64.0114 26.6709C50.749 26.6709 40.0071 37.4128 40.0071 50.6752C40.0071 63.9375 50.749 74.6794 64.0114 74.6794C77.2737 74.6794 88.0156 63.9375 88.0156 50.6752C88.0156 37.4128 77.2737 26.6709 64.0114 26.6709Z" fill="#EEEEEE"/>
<path d="M16.0028 106.352H10.6686V108.369L12.0035 109.881L16.0028 106.352ZM112.02 106.352L116.019 109.881L117.354 108.369V106.352H112.02ZM21.3371 106.352V104.018H10.6686V106.352H21.3371ZM21.3371 104.018C21.3371 101.986 22.3124 99.8123 24.8688 97.4529C27.4614 95.06 31.3081 92.8539 35.9822 90.9815C45.3389 87.2332 56.6668 85.348 64.0114 85.348V74.6794C55.3331 74.6794 42.6567 76.8149 32.0149 81.078C26.6897 83.2113 21.5385 86.0086 17.6331 89.6131C13.6915 93.251 10.6686 98.068 10.6686 104.018H21.3371ZM64.0114 85.348C71.356 85.348 82.6838 87.2332 92.0405 90.9815C96.7146 92.8539 100.561 95.06 103.154 97.4529C105.71 99.8123 106.686 101.986 106.686 104.018H117.354C117.354 98.068 114.331 93.251 110.39 89.6131C106.484 86.0086 101.333 83.2113 96.0078 81.078C85.366 76.8149 72.6896 74.6794 64.0114 74.6794V85.348ZM106.686 104.018V106.352H117.354V104.018H106.686ZM108.021 102.822C97.261 115.012 81.5359 122.688 64.0114 122.688V133.356C84.7238 133.356 103.32 124.269 116.019 109.881L108.021 102.822ZM64.0114 122.688C46.4868 122.688 30.7617 115.012 20.0022 102.822L12.0035 109.881C24.7023 124.269 43.2989 133.356 64.0114 133.356V122.688ZM45.3414 50.6752C45.3414 40.3588 53.695 32.0052 64.0114 32.0052V21.3366C47.803 21.3366 34.6728 34.4668 34.6728 50.6752H45.3414ZM64.0114 69.3451C53.695 69.3451 45.3414 60.9915 45.3414 50.6752H34.6728C34.6728 66.8836 47.803 80.0137 64.0114 80.0137V69.3451ZM82.6813 50.6752C82.6813 60.9915 74.3277 69.3451 64.0114 69.3451V80.0137C80.2198 80.0137 93.3499 66.8836 93.3499 50.6752H82.6813ZM64.0114 32.0052C74.3277 32.0052 82.6813 40.3588 82.6813 50.6752H93.3499C93.3499 34.4668 80.2198 21.3366 64.0114 21.3366V32.0052Z" fill="#C4C4C4" mask="url(#path-2-inside-1)"/>
</g>
<defs>
<clipPath id="clip0">
<rect width="128.023" height="128.023" fill="white"/>
</clipPath>
</defs>
</svg>
