<svg width="174" height="173" viewBox="0 0 174 173" fill="none" xmlns="http://www.w3.org/2000/svg">
<path d="M173.227 86.5732C173.227 105.694 167.013 123.36 156.507 137.667C154.707 140.12 152.773 142.48 150.733 144.72C149.52 146.053 148.267 147.36 146.96 148.613C131.413 163.694 110.213 172.973 86.8265 172.973C63.4398 172.973 42.2398 163.694 26.6932 148.613C25.3865 147.36 24.1332 146.053 22.9198 144.72C20.8798 142.48 18.9465 140.12 17.1465 137.667C6.63985 123.36 0.426514 105.694 0.426514 86.5732C0.426514 38.8667 39.1065 0.186768 86.8265 0.186768C134.547 0.186768 173.227 38.8667 173.227 86.5732Z" fill="#D7EAF1"/>
<path d="M136.304 110.94C134.165 107.712 131.243 104.757 130.621 100.935C129.787 95.7987 133.378 90.9908 133.912 85.8148C134.364 81.4107 132.561 77.076 130.273 73.2867C127.984 69.4974 125.171 66.0147 123.256 62.024C119.608 54.4214 120.56 43.9187 117.116 36.2214C112.177 25.1867 98.9158 19.6534 86.8265 19.6534C74.7358 19.6534 61.4759 25.1867 56.5372 36.2214C53.0932 43.9187 54.0452 54.4214 50.3972 62.024C48.4825 66.0147 45.6678 69.4974 43.3798 73.2867C41.0918 77.076 39.2892 81.4107 39.7412 85.8148C40.2745 90.9908 43.8665 95.7987 43.0318 100.935C42.4105 104.757 39.4878 107.712 37.3492 110.94C34.2252 115.655 32.6452 121.424 33.2025 127.052C33.7585 132.68 36.5065 138.109 40.8825 141.691L86.8265 143.832L132.771 141.691C137.147 138.109 139.895 132.68 140.451 127.052C141.008 121.424 139.428 115.655 136.304 110.94Z" fill="#051733"/>
<path d="M146.96 148.613C131.413 163.694 110.213 172.973 86.8264 172.973C63.4398 172.973 42.2398 163.694 26.6931 148.613C27.9731 146.653 29.4531 144.827 31.0665 143.147C32.9598 141.187 35.0665 139.427 37.3331 137.92C38.5198 137.094 39.7598 136.36 41.0531 135.706C42.3331 135.027 43.6531 134.427 45.0131 133.906L52.9731 130.84C63.8531 126.653 71.8531 117.227 74.2264 105.813L74.6131 103.973L75.9331 97.6003L77.3464 90.7466H96.3065L97.7198 97.6003L99.4264 105.813C100.546 111.187 102.906 116.133 106.24 120.294C109.986 124.947 114.933 128.627 120.68 130.84L128.64 133.906C130 134.427 131.32 135.027 132.6 135.706C133.893 136.36 135.133 137.094 136.32 137.92C138.586 139.427 140.693 141.187 142.586 143.147C144.2 144.827 145.68 146.653 146.96 148.613Z" fill="#F69779"/>
<path d="M106.24 120.293C101.947 121.787 98.6265 121.787 98.6265 121.787C98.6265 121.787 81.2665 121.787 74.6132 103.973L77.3465 90.7465H96.3065L99.4265 105.813C100.547 111.187 102.907 116.133 106.24 120.293Z" fill="#F37A67"/>
<path d="M156.506 137.667C154.706 140.12 152.773 142.48 150.733 144.72C149.52 146.053 148.266 147.36 146.96 148.613C131.413 163.694 110.213 172.973 86.8265 172.973C63.4398 172.973 42.2398 163.694 26.6931 148.613C25.3865 147.36 24.1331 146.053 22.9198 144.72C20.8798 142.48 18.9465 140.12 17.1465 137.667C17.1732 137.6 17.2131 137.534 17.2398 137.466C20.3865 130.787 27.4398 128.147 33.7865 130.32C34.3065 130.494 34.8265 130.706 35.3332 130.947C37.6132 132.04 39.5465 133.694 41.0531 135.706C42.2265 137.28 43.1465 139.053 43.7865 140.973C47.1331 138.4 51.3465 137.4 55.5465 138.56C58.1198 139.28 60.3865 140.734 62.2131 142.68C63.3598 143.906 64.3332 145.334 65.1065 146.894C66.7332 145.16 68.6665 143.84 70.7998 143.08H70.8131C72.5465 142.453 74.4132 142.2 76.3331 142.373C77.8531 142.506 79.2932 142.906 80.6398 143.534L80.6531 143.547C83.0931 144.653 85.2131 146.52 86.8265 148.867C88.4398 146.52 90.5598 144.653 92.9998 143.547L93.0131 143.534C94.3598 142.906 95.7998 142.506 97.3198 142.373C99.2398 142.2 101.106 142.453 102.84 143.08H102.853C104.986 143.84 106.92 145.16 108.546 146.894C109.32 145.334 110.293 143.906 111.44 142.68C113.266 140.734 115.533 139.28 118.106 138.56C122.306 137.4 126.52 138.4 129.866 140.973C130.506 139.053 131.426 137.28 132.6 135.706C134.106 133.694 136.04 132.04 138.32 130.947C138.826 130.706 139.346 130.494 139.866 130.32C146.213 128.147 153.266 130.787 156.413 137.466C156.44 137.534 156.48 137.6 156.506 137.667Z" fill="#F03832"/>
<path d="M150.733 144.72C149.52 146.053 148.266 147.36 146.96 148.613C131.413 163.694 110.213 172.973 86.8265 172.973C63.4398 172.973 42.2398 163.694 26.6931 148.613C25.3865 147.36 24.1331 146.053 22.9198 144.72C25.3865 143.32 28.2398 142.773 31.0665 143.147C32.5198 143.334 33.9465 143.747 35.3331 144.413C39.3731 146.36 42.3198 150.053 43.7865 154.427C47.1331 151.867 51.3465 150.867 55.5465 152.027C59.7465 153.2 63.1065 156.306 65.1065 160.36C68.0532 157.2 72.0531 155.44 76.3331 155.827C80.6131 156.227 84.3331 158.68 86.8265 162.334C89.3198 158.68 93.0398 156.227 97.3198 155.827C101.6 155.44 105.6 157.2 108.546 160.36C110.546 156.306 113.906 153.2 118.106 152.027C122.306 150.867 126.52 151.867 129.866 154.427C131.333 150.053 134.28 146.36 138.32 144.413C139.706 143.747 141.133 143.334 142.586 143.147C145.413 142.773 148.266 143.32 150.733 144.72Z" fill="#BF2D28"/>
<path d="M110.827 46.0532C103.36 34.0532 86.8265 30.0532 86.8265 30.0532C86.8265 30.0532 70.2932 34.0532 62.8265 46.0532C62.8265 46.0532 59.2532 56.7452 60.7732 74.4666C64.4799 100.466 86.8265 100.466 86.8265 100.466C86.8265 100.466 109.173 100.466 112.88 74.4666C114.4 56.7452 110.827 46.0532 110.827 46.0532Z" fill="#F69779"/>
<path d="M93.5639 30.1988C90.6159 34.5455 84.4012 35.2601 80.6025 38.8855C76.9079 42.4108 76.1799 47.9148 74.7559 52.8175C74.4479 53.8748 74.0825 54.9521 73.3505 55.7748C71.7172 57.6095 68.8799 57.6081 66.6879 58.7161C62.6239 60.7695 61.6039 65.9908 60.9212 70.4921C60.2399 74.9935 58.8199 80.2348 54.5412 81.7935C53.5066 68.2935 54.1412 54.1828 60.2212 42.0841C66.2999 29.9868 78.8985 20.4001 92.4105 21.2655C94.5759 21.2108 97.1425 24.4695 93.5639 30.1988Z" fill="#051733"/>
<path d="M85.5745 61.0816V76.335H88.1598C92.5904 76.335 86.3971 62.8336 85.5745 61.0816Z" fill="#F37A67"/>
<path d="M104.371 55.1372C100.797 53.3719 96.8265 53.1106 93.1012 54.5906C91.5238 55.2186 92.2105 57.7985 93.8105 57.1625C96.8625 55.9492 100.058 55.9746 103.025 57.4399C104.561 58.1986 105.912 55.8985 104.371 55.1372Z" fill="#051733"/>
<path d="M101.153 59.8882C100.342 58.4802 98.6385 58.5655 98.6385 58.5655C97.2505 58.5655 96.1238 59.6922 96.1238 61.0815C96.1238 62.4695 97.2505 63.5962 98.6385 63.5962C98.9451 63.5962 99.2358 63.5335 99.5065 63.4322L99.5078 63.4389C99.5251 63.4335 99.5358 63.4242 99.5518 63.4189C99.6331 63.3869 99.7091 63.3469 99.7864 63.3069C101.985 62.3535 102.22 59.9122 102.22 59.9122C101.781 60.2815 101.153 59.8882 101.153 59.8882Z" fill="#051733"/>
<path d="M69.2825 55.1372C72.8558 53.3719 76.8265 53.1106 80.5518 54.5906C82.1292 55.2186 81.4425 57.7985 79.8425 57.1625C76.7905 55.9492 73.5945 55.9746 70.6278 57.4399C69.0918 58.1986 67.7398 55.8985 69.2825 55.1372Z" fill="#051733"/>
<path d="M72.4986 59.8882C73.3106 58.4802 75.0145 58.5655 75.0145 58.5655C76.4025 58.5655 77.5292 59.6922 77.5292 61.0815C77.5292 62.4695 76.4025 63.5962 75.0145 63.5962C74.7079 63.5962 74.4172 63.5335 74.1465 63.4322L74.1452 63.4389C74.1279 63.4335 74.1172 63.4242 74.1012 63.4189C74.0199 63.3869 73.9439 63.3469 73.8666 63.3069C71.6679 62.3535 71.4332 59.9122 71.4332 59.9122C71.8719 60.2815 72.4986 59.8882 72.4986 59.8882Z" fill="#051733"/>
<path d="M78.6318 84.4507C79.5185 87.7612 82.8465 90.2241 86.8265 90.2241C90.8065 90.2241 94.1345 87.7612 95.0198 84.4507H78.6318Z" fill="white"/>
</svg>
