<svg width="173" height="173" viewBox="0 0 173 173" fill="none" xmlns="http://www.w3.org/2000/svg">
<path d="M172.787 86.4C172.787 107.4 165.293 126.653 152.827 141.613C147.347 148.2 140.907 153.973 133.707 158.68C131.84 159.907 129.92 161.067 127.947 162.147C115.613 168.933 101.453 172.787 86.3864 172.787C70.2932 172.787 55.2265 168.387 42.3333 160.72C40.5068 159.64 38.7333 158.493 37 157.28C29.9197 152.347 23.6265 146.373 18.3197 139.587C6.84013 124.92 0 106.467 0 86.4C0 38.68 38.6796 -1.52588e-05 86.3864 -1.52588e-05C134.107 -1.52588e-05 172.787 38.68 172.787 86.4Z" fill="#D7EAF1"/>
<path d="M152.827 141.613C147.347 148.2 140.907 153.973 133.707 158.68C131.84 159.907 129.92 161.067 127.947 162.147C115.613 168.933 101.453 172.787 86.3864 172.787C70.2932 172.787 55.2265 168.387 42.3333 160.72C40.5068 159.64 38.7333 158.493 37 157.28C29.9197 152.347 23.6265 146.373 18.3197 139.587C20.853 132.373 26.7734 126.733 34.3068 124.653L55.0129 118.933L62.3333 116.907L68.9333 115.08L71.1734 102.547L72.2 96.72L73.2129 91.08L85.2666 95.8L97.3198 91.08L98.3332 96.72L100.773 110.413L101.6 115.08L108.2 116.907L115.52 118.933L136.227 124.653C144.453 126.92 150.76 133.44 152.827 141.613Z" fill="#FFA33B"/>
<path d="M108.2 116.907L107.987 117.307C104.453 136.654 89.8932 147.734 89.2532 148.214C88.0796 149.107 86.6667 149.547 85.2667 149.547C83.8667 149.547 82.4531 149.107 81.2796 148.214C80.6402 147.734 66.0796 136.654 62.5463 117.307L62.3334 116.907L68.9334 115.08L73.213 91.0802L85.2667 95.8002L97.3199 91.0802L101.6 115.08L108.2 116.907Z" fill="#FF863B"/>
<path d="M101.6 115.08C98.8532 132.707 85.2667 142.867 85.2667 142.867C85.2667 142.867 71.6796 132.707 68.9333 115.08L71.1735 102.547L73.2129 91.08L85.2667 95.8L97.3199 91.08L100.773 110.413L101.6 115.08Z" fill="#86201B"/>
<path d="M100.773 110.414C95.4932 112.747 91.0132 112.747 91.0132 112.747C91.0132 112.747 79.0401 112.747 71.1735 102.547L73.2129 91.0804L85.2667 95.8004L97.3199 91.0804L100.773 110.414Z" fill="#611714"/>
<path d="M120.829 57.2134C121.459 56.9107 121.908 56.2627 121.969 55.5667C122.032 54.8707 121.681 53.8533 121.117 53.4426C121.505 52.9133 121.611 52.1867 121.389 51.5693C121.168 50.9507 120.676 49.972 120.04 49.808C120.921 48.5387 120.851 46.856 119.583 45.972C120.415 44.7667 120.397 42.4733 119.14 41.7227C119.571 41.0653 119.635 40.1826 119.303 39.4706C118.972 38.7586 118.184 38.0293 117.404 37.9346C117.62 37.1506 117.639 36.3147 117.459 35.5227C117.353 35.0587 117.169 34.5933 116.821 34.2693C116.472 33.944 115.675 33.5427 115.247 33.7533C115.185 33.0093 115.112 32.232 114.708 31.604C114.304 30.976 113.304 30.38 112.637 30.716C112.775 29.8707 112.408 28.9627 111.723 28.448C111.037 27.9347 109.721 27.872 108.947 28.24C108.724 27.4693 108.395 26.7014 107.815 26.1467C107.236 25.5907 106.36 25.232 105.603 25.4986C105.576 24.2413 104.383 23.132 103.127 23.196C102.864 23.208 102.555 23.2133 102.689 23.4413C102.615 22.5387 101.76 21.8573 100.872 21.6813C99.9839 21.5053 98.9332 21.9067 98.0559 22.1307C97.7359 21.3267 96.9706 20.716 96.1146 20.584C95.2586 20.4507 94.1372 20.596 93.5892 21.2667C92.5505 19.9493 89.9746 19.732 88.513 20.5533C88.0896 19.3173 86.573 18.9986 85.2667 18.9986C83.9604 18.9986 82.4438 19.3173 82.0203 20.5533C80.5583 19.732 77.9823 19.9493 76.9443 21.2667C76.3954 20.596 75.2739 20.4507 74.4183 20.584C73.5626 20.716 72.7968 21.3267 72.4766 22.1307C71.5995 21.9067 70.55 21.5053 69.662 21.6813C68.7739 21.8573 67.9192 22.5387 67.8448 23.4413C67.9792 23.2133 67.6698 23.208 67.4058 23.196C66.1506 23.132 64.9572 24.2413 64.9307 25.4986C64.1735 25.232 63.2979 25.5907 62.7183 26.1467C62.1386 26.7014 61.8088 27.4693 61.5864 28.24C60.8125 27.872 59.4959 27.9347 58.8104 28.448C58.125 28.9627 57.7583 29.8707 57.8954 30.716C57.2287 30.38 56.2287 30.976 55.8244 31.604C55.4208 32.232 55.3479 33.0093 55.2859 33.7533C54.8588 33.5427 54.061 33.944 53.7126 34.2693C53.3646 34.5933 53.1802 35.0587 53.0744 35.5227C52.8943 36.3147 52.9135 37.1506 53.1296 37.9346C52.35 38.0293 51.5615 38.7586 51.2302 39.4706C50.8995 40.1826 50.9625 41.0653 51.3927 41.7227C50.1364 42.4733 50.1187 44.7667 50.95 45.972C49.6823 46.856 49.6126 48.5387 50.4932 49.808C49.8572 49.972 49.3651 50.9507 49.1443 51.5693C48.923 52.1867 49.0282 52.9133 49.4162 53.4426C48.8516 53.8533 48.5011 54.8707 48.563 55.5667C48.6255 56.2627 49.0744 56.9107 49.7036 57.2134C48.6474 58.2947 49.0323 60.684 50.3448 61.432C50.085 61.6866 49.9385 62.38 49.7875 62.7107C49.6844 62.9373 49.6402 63.1867 49.5968 63.4333C49.5016 63.9747 49.4078 64.54 49.5744 65.064C49.7406 65.5867 50.2577 66.044 50.7979 65.944C49.902 67.0053 50.3302 69.5253 51.4411 70.36C51.0662 71.2346 51.8506 72.832 52.5339 73.4933C53.2172 74.1546 54.3192 74.3386 55.1802 73.9346C54.987 74.6853 55.0344 75.596 55.2354 76.3453C55.4364 77.0946 56.1411 77.768 56.9099 77.66C56.8 78.368 57.0802 79.2187 57.4448 79.8347C57.8094 80.4507 58.637 80.8346 59.2739 80.508C58.9995 81.164 59.3016 82.1987 59.7078 82.7813C60.1135 83.3653 60.8287 83.72 61.5386 83.6907C61.4656 84.76 62.2719 85.9773 63.276 86.3507C64.1339 86.6693 65.0859 86.4987 65.9839 86.324C66.5334 86.2173 67.0828 86.1093 67.6323 86.0027L85.2667 83.8693L102.901 86.0027C103.451 86.1093 104 86.2173 104.549 86.324C105.447 86.4987 106.4 86.6693 107.257 86.3507C108.261 85.9773 109.068 84.76 108.995 83.6907C109.705 83.72 110.42 83.3653 110.825 82.7813C111.232 82.1987 111.533 81.164 111.26 80.508C111.896 80.8346 112.724 80.4507 113.088 79.8347C113.453 79.2187 113.733 78.368 113.624 77.66C114.392 77.768 115.097 77.0946 115.297 76.3453C115.499 75.596 115.547 74.6853 115.353 73.9346C116.215 74.3386 117.316 74.1546 117.999 73.4933C118.683 72.832 119.467 71.2346 119.092 70.36C120.203 69.5253 120.631 67.0053 119.735 65.944C120.276 66.044 120.792 65.5867 120.959 65.064C121.125 64.54 121.032 63.9747 120.936 63.4333C120.893 63.1867 120.849 62.9373 120.745 62.7107C120.595 62.38 120.448 61.6866 120.188 61.432C121.501 60.684 121.887 58.2947 120.829 57.2134Z" fill="#051733"/>
<path d="M117.837 65.0203C117.675 63.9563 117.281 62.8763 116.469 62.1696C115.736 61.5336 114.729 61.2696 113.76 61.3123C112.789 61.3536 111.852 61.6776 110.979 62.1003C110.979 62.1003 110.892 37.5203 102.179 37.2349C96.4652 36.9483 93.9239 38.6629 85.2667 38.6629C76.6098 38.6629 74.0682 36.9483 68.3541 37.2349C59.6405 37.5203 59.5552 62.1003 59.5552 62.1003C58.6817 61.6776 57.7432 61.3536 56.7738 61.3123C55.8041 61.2696 54.7968 61.5336 54.0645 62.1696C53.252 62.8763 52.8583 63.9563 52.6963 65.0203C52.3713 67.1549 52.8823 69.4069 54.0973 71.1923C55.3125 72.9776 57.1068 74.3203 59.212 74.8016C62.926 100.8 85.2667 100.8 85.2667 100.8C85.2667 100.8 107.607 100.8 111.321 74.8016C113.427 74.3203 115.22 72.9776 116.436 71.1923C117.651 69.4069 118.161 67.1549 117.837 65.0203Z" fill="#86201B"/>
<path d="M79.5197 67.3599C79.5197 68.5866 78.5068 69.5999 77.2666 69.5999H68.6666C67.4265 69.5999 66.4129 68.5866 66.4129 67.3599V63.4133C66.4265 63.3999 66.4265 63.3999 66.4129 63.3866V63.3732C66.4795 62.1732 67.4666 61.2266 68.6666 61.2266H77.2666C78.5068 61.2266 79.5197 62.2399 79.5197 63.4799V67.3599ZM82 62.1466C81.4129 60.0799 79.5068 58.5599 77.2666 58.5599H68.6666C66.6932 58.5599 64.9864 59.7333 64.2 61.4133C63.9068 62.0399 63.7462 62.7466 63.7462 63.4799V67.3599C63.7462 70.0666 65.9598 72.2666 68.6666 72.2666H77.2666C79.9734 72.2666 82.1863 70.0666 82.1863 67.3599V63.4799C82.1863 63.0133 82.1197 62.5733 82 62.1466Z" fill="#FFA33B"/>
<path d="M65.0839 64.8096C64.8552 64.8096 64.6239 64.7509 64.4129 64.6283L58.8833 61.4003C58.2468 61.0296 58.0323 60.2123 58.4031 59.5776C58.7744 58.9389 59.5927 58.7256 60.2271 59.0962L65.7568 62.3256C66.3927 62.6963 66.6077 63.5136 66.2364 64.1482C65.9885 64.5736 65.5421 64.8096 65.0839 64.8096Z" fill="#FFA33B"/>
<path d="M104.12 67.3599C104.12 68.5866 103.107 69.5999 101.867 69.5999H93.2666C92.0266 69.5999 91.0132 68.5866 91.0132 67.3599V63.4799C91.0132 62.2399 92.0266 61.2266 93.2666 61.2266H101.867C103.067 61.2266 104.053 62.1732 104.12 63.3732V63.3866C104.107 63.3999 104.107 63.3999 104.12 63.4133V67.3599ZM106.333 61.4133C105.547 59.7333 103.84 58.5599 101.867 58.5599H93.2666C91.0266 58.5599 89.1199 60.0799 88.5463 62.1466C88.413 62.5733 88.3463 63.0133 88.3463 63.4799V67.3599C88.3463 70.0666 90.5599 72.2666 93.2666 72.2666H101.867C104.573 72.2666 106.787 70.0666 106.787 67.3599V63.4799C106.787 62.7466 106.627 62.0399 106.333 61.4133Z" fill="#FFA33B"/>
<path d="M105.449 64.8096C104.991 64.8096 104.545 64.5736 104.296 64.1482C103.925 63.5136 104.14 62.6963 104.776 62.3256L110.307 59.0962C110.941 58.7269 111.76 58.9403 112.129 59.5776C112.501 60.2123 112.287 61.0296 111.651 61.4003L106.12 64.6283C105.909 64.7509 105.677 64.8096 105.449 64.8096Z" fill="#FFA33B"/>
<path d="M89.6839 64.8096H80.8501C80.1135 64.8096 79.5167 64.2136 79.5167 63.4762C79.5167 62.7402 80.1135 62.1429 80.8501 62.1429H89.6839C90.4199 62.1429 91.0173 62.7402 91.0173 63.4762C91.0173 64.2136 90.4199 64.8096 89.6839 64.8096Z" fill="#FFA33B"/>
<path d="M133.707 158.68C131.84 159.906 129.92 161.066 127.947 162.146L131.653 141.906L133.707 158.68Z" fill="#FF863B"/>
<path d="M42.3333 160.72C40.5068 159.64 38.7333 158.494 37 157.28L38.8796 141.907L42.3333 160.72Z" fill="#FF863B"/>
<path d="M84.014 64.9987V80.2534H86.5995C91.0306 80.2534 84.837 66.7507 84.014 64.9987Z" fill="#611714"/>
<path d="M102.811 55.0918C99.2372 53.3265 95.2665 53.0651 91.5412 54.5451C89.9639 55.1731 90.6506 57.7531 92.2506 57.1171C95.3026 55.9038 98.4986 55.9291 101.465 57.3945C103.001 58.1531 104.352 55.8531 102.811 55.0918Z" fill="#051733"/>
<path d="M99.5932 64.999C99.5932 66.3883 98.4678 67.5137 97.0785 67.5137C95.6905 67.5137 94.5638 66.3883 94.5638 64.999C94.5638 63.6096 95.6905 62.4843 97.0785 62.4843C98.4678 62.4843 99.5932 63.6096 99.5932 64.999Z" fill="#051733"/>
<path d="M67.7224 55.0918C71.2953 53.3265 75.2672 53.0651 78.9916 54.5451C80.5697 55.1731 79.8822 57.7531 78.2828 57.1171C75.2312 55.9038 72.0349 55.9291 69.0682 57.3945C67.5322 58.1531 66.1806 55.8531 67.7224 55.0918Z" fill="#051733"/>
<path d="M70.9391 64.999C70.9391 66.3883 72.0651 67.5137 73.4542 67.5137C74.8427 67.5137 75.9687 66.3883 75.9687 64.999C75.9687 63.6096 74.8427 62.4843 73.4542 62.4843C72.0651 62.4843 70.9391 63.6096 70.9391 64.999Z" fill="#051733"/>
<path d="M77.0724 83.6427C77.9588 86.952 81.2864 89.416 85.2667 89.416C89.2465 89.416 92.5745 86.952 93.4599 83.6427H77.0724Z" fill="white"/>
</svg>
