<svg width="174" height="174" viewBox="0 0 174 174" fill="none" xmlns="http://www.w3.org/2000/svg">
<path d="M173.653 86.9867C173.653 107.84 166.266 126.973 153.96 141.893C148.826 148.133 142.84 153.64 136.16 158.213C133.88 159.8 131.52 161.253 129.08 162.6C116.693 169.48 102.44 173.387 87.2664 173.387C72.1065 173.387 57.8398 169.48 45.4531 162.6C43.0131 161.267 40.6531 159.8 38.3731 158.227C31.6931 153.64 25.7065 148.147 20.5731 141.907C8.25313 126.987 0.866455 107.853 0.866455 86.9867C0.866455 39.2667 39.5465 0.586716 87.2664 0.586716C134.973 0.586716 173.653 39.2667 173.653 86.9867Z" fill="#D7EAF1"/>
<path d="M153.96 141.893C148.827 148.133 142.84 153.64 136.16 158.213C133.88 159.8 131.52 161.253 129.08 162.6C116.693 169.48 102.44 173.387 87.2666 173.387C72.1066 173.387 57.8399 169.48 45.4532 162.6C43.0132 161.267 40.6532 159.8 38.3732 158.227C31.6932 153.64 25.7066 148.147 20.5732 141.907C23.2266 135.013 29.0132 129.667 36.3066 127.653L57.0132 121.933L58.0399 121.653L70.9332 118.08L71.1332 116.973H103.4L103.493 117.52L103.6 118.08L116.493 121.653L117.52 121.933L138.227 127.653C145.52 129.667 151.293 135.013 153.96 141.893Z" fill="#0C415B"/>
<path d="M116.493 121.653L116.12 122.667C116.013 122.96 115.906 123.24 115.786 123.48C112.293 133.173 101.08 139.573 87.2665 139.573C73.4398 139.573 62.2398 133.173 58.7464 123.48C58.6264 123.227 58.5198 122.96 58.4131 122.667L58.0398 121.653L70.9331 118.08L71.1331 116.973H103.4L103.6 118.08L116.493 121.653Z" fill="#051733"/>
<path d="M103.6 118.08C103.547 118.227 103.467 118.347 103.4 118.48C102.24 122.867 95.4666 126.24 87.2666 126.24C79.0666 126.24 72.2932 122.867 71.1332 118.48C71.0666 118.347 70.9866 118.227 70.9332 118.08L73.5599 103.36L75.2132 94.0802L87.2666 98.8003L99.3199 94.0802L103.493 117.52L103.6 118.08Z" fill="#F69779"/>
<path d="M103.493 117.52C99.5331 118.787 96.5598 118.787 96.5598 118.787C96.5598 118.787 80.7865 118.787 73.5598 103.36L75.2131 94.08L87.2665 98.8L99.3198 94.08L103.493 117.52Z" fill="#F37A67"/>
<path d="M58.0986 48.34C58.0986 48.34 41.5813 72.6614 59.2879 77.0747L69.8266 64.9867V48.34H58.0986Z" fill="#F03832"/>
<path d="M113.599 41.7506C110.515 35.9706 104.619 32.7706 99.1866 31.0026C91.4586 28.4866 83.0746 28.4866 75.3466 31.0026C69.9146 32.7706 64.0186 35.9706 60.9346 41.7506C55.3613 52.4239 56.3106 69.0252 56.3106 69.0252L62.1212 75.1919L87.2666 71.9999L112.412 75.1919L118.223 69.0252C118.223 69.0252 119.172 52.4239 113.599 41.7506Z" fill="#051733"/>
<path d="M119.837 68.0203C119.675 66.9563 119.281 65.8763 118.469 65.1696C117.736 64.5336 116.729 64.2696 115.76 64.3123C114.789 64.3536 113.852 64.6776 112.979 65.1003C112.979 65.1003 112.892 40.5203 104.179 40.2336C98.4652 39.9483 95.9239 41.663 87.2666 41.663C78.6092 41.663 76.0679 39.9483 70.3545 40.2336C61.6412 40.5203 61.5545 65.1003 61.5545 65.1003C60.6812 64.6776 59.7426 64.3536 58.7732 64.3123C57.8039 64.2696 56.7972 64.5336 56.0639 65.1696C55.2519 65.8763 54.8586 66.9563 54.6959 68.0203C54.3719 70.1549 54.8826 72.407 56.0972 74.1923C57.3132 75.9776 59.1065 77.3203 61.2119 77.8016C64.9265 103.8 87.2666 103.8 87.2666 103.8C87.2666 103.8 109.607 103.8 113.321 77.8016C115.427 77.3203 117.22 75.9776 118.436 74.1923C119.651 72.407 120.161 70.1549 119.837 68.0203Z" fill="#F69779"/>
<path d="M90.3718 24.1335C90.3718 25.8481 88.9811 27.2388 87.2665 27.2388C85.5518 27.2388 84.1611 25.8481 84.1611 24.1335C84.1611 22.4188 85.5518 21.0281 87.2665 21.0281C88.9811 21.0281 90.3718 22.4188 90.3718 24.1335Z" fill="#B32A25"/>
<path d="M87.2665 25.7603C87.2665 25.7603 58.4892 25.4509 57.4758 54.0029H87.2665H117.057C116.044 25.4509 87.2665 25.7603 87.2665 25.7603Z" fill="#B32A25"/>
<path d="M87.2665 25.7603C87.2665 25.7603 67.6305 25.4509 66.9398 54.0029H87.2665H107.593C106.902 25.4509 87.2665 25.7603 87.2665 25.7603Z" fill="#F03832"/>
<path d="M86.0145 68.9015V84.1548H88.5999C93.0305 84.1548 86.8372 70.6535 86.0145 68.9015Z" fill="#F37A67"/>
<path d="M104.811 62.9575C101.237 61.1922 97.2666 60.9295 93.5412 62.4108C91.9639 63.0388 92.6505 65.6189 94.2505 64.9829C97.3025 63.7695 100.499 63.7949 103.465 65.2602C105.001 66.0189 106.352 63.7189 104.811 62.9575Z" fill="#051733"/>
<path d="M101.593 68.9014C101.593 70.2894 100.468 71.416 99.0785 71.416C97.6905 71.416 96.5638 70.2894 96.5638 68.9014C96.5638 67.512 97.6905 66.3854 99.0785 66.3854C100.468 66.3854 101.593 67.512 101.593 68.9014Z" fill="#051733"/>
<path d="M69.7224 62.9575C73.2958 61.1922 77.2665 60.9295 80.9918 62.4108C82.5691 63.0388 81.8824 65.6189 80.2824 64.9829C77.2304 63.7695 74.0345 63.7949 71.0678 65.2602C69.5318 66.0189 68.1811 63.7189 69.7224 62.9575Z" fill="#051733"/>
<path d="M72.9385 68.9014C72.9385 70.2894 74.0651 71.416 75.4545 71.416C76.8425 71.416 77.9691 70.2894 77.9691 68.9014C77.9691 67.512 76.8425 66.3854 75.4545 66.3854C74.0651 66.3854 72.9385 67.512 72.9385 68.9014Z" fill="#051733"/>
<path d="M79.0719 90.1134C79.9586 93.4227 83.2866 95.8867 87.2666 95.8867C91.2466 95.8867 94.5746 93.4227 95.4599 90.1134H79.0719Z" fill="white"/>
<path d="M136.16 158.213C133.88 159.8 131.52 161.253 129.08 162.6L133.653 137.653L136.16 158.213Z" fill="#051733"/>
<path d="M45.4531 162.6C43.0131 161.267 40.6532 159.8 38.3732 158.227L40.8798 137.653L45.4531 162.6Z" fill="#051733"/>
</svg>
