<svg width="466" height="466" viewBox="0 0 466 466" fill="none" xmlns="http://www.w3.org/2000/svg">
<path d="M398.724 308.247C393.11 295.474 382.325 284.814 369.37 279.57C355.877 274.106 340.383 276.093 326.169 274.264C313.826 272.673 304.919 267.162 297.548 257.365C290.485 247.977 284.156 237.581 272.607 233.238C263.483 229.807 253.11 230.758 244.041 234.335C227.332 240.922 214.711 254.93 204.082 268.887C194.378 281.629 186.462 295.581 168.512 296.035C160.389 296.243 152.442 294.26 144.501 292.277C134.883 289.875 125.272 287.473 115.366 288.962C91.4645 292.55 71.5588 312.448 67.3876 336.135C63.4783 358.335 73.2882 379.869 90.1407 392.521H379.809C401.046 369.992 412.19 338.873 398.724 308.247Z" fill="#FE885C" fill-opacity="0.2"/>
<path d="M136.868 392.521H137.665C143.199 386.437 147.534 379.055 150.29 370.863C154.75 357.603 154.562 343.686 149.76 331.677C147.334 325.61 143.83 319.953 140.441 314.482C137.004 308.936 133.45 303.2 131.038 297.051C130.041 294.511 129.305 291.781 128.861 288.996C128.662 288.971 128.462 288.95 128.262 288.926C128.707 291.809 129.465 294.635 130.496 297.265C132.927 303.461 136.495 309.221 139.946 314.789C143.321 320.239 146.812 325.873 149.219 331.894C153.97 343.775 154.154 357.55 149.738 370.679C146.948 378.972 142.522 386.423 136.868 392.521Z" fill="white"/>
<path d="M378.408 367.257C384.377 368.529 390.129 369.67 395.693 370.388C395.79 370.204 395.878 370.018 395.975 369.833C390.366 369.121 384.56 367.972 378.532 366.688C369.353 364.731 359.416 362.615 349.561 362.615C343.458 362.615 337.388 363.426 331.55 365.591C329.337 366.411 327.205 367.45 325.177 368.689C319.904 366.441 314.603 363.988 309.352 361.297C313.162 358.426 317.012 355.614 320.905 352.897C349.79 332.726 376.449 321.29 402.205 318.045C402.153 317.856 402.099 317.667 402.047 317.479C376.222 320.75 349.506 332.216 320.57 352.419C316.597 355.194 312.666 358.067 308.778 360.998C302.87 357.948 297.04 354.595 291.391 350.895C281.151 344.185 268.967 334.606 258.329 321.88C299.556 317.253 341.531 311.425 375.81 288.517C377.11 287.646 378.554 286.62 380.047 285.458C379.881 285.339 379.716 285.225 379.548 285.108C378.117 286.217 376.735 287.196 375.487 288.032C341.218 310.936 299.164 316.719 257.882 321.344C250.364 312.25 243.647 301.567 238.978 289.202C231.707 269.94 232.091 251.039 240.033 237.343C240.378 236.749 240.741 236.162 241.116 235.582C240.786 235.736 240.457 235.894 240.129 236.05C239.924 236.381 239.723 236.714 239.527 237.05C231.499 250.899 231.1 269.982 238.432 289.409C243.076 301.707 249.732 312.346 257.192 321.419C254.801 321.687 252.41 321.952 250.028 322.213C241.431 323.162 232.542 324.145 223.91 325.256C220.759 325.662 217.555 326.135 214.367 326.726C207.533 312.302 200.025 298.231 190.321 286.161C190.182 286.301 190.041 286.434 189.901 286.571C199.522 298.548 206.983 312.516 213.775 326.838C199.87 329.49 186.367 334.476 179.158 346.079C172.425 356.916 172.431 371.896 179.176 390.601C179.409 391.249 179.649 391.887 179.893 392.521H180.517C180.25 391.826 179.984 391.127 179.724 390.403C173.042 371.875 173.018 357.065 179.653 346.387C186.777 334.921 200.205 330.002 214.033 327.381C216.446 332.486 218.776 337.631 221.093 342.745L221.345 343.302C229.389 361.061 237.71 378.198 248.605 392.521H249.333C238.337 378.173 229.97 360.931 221.876 343.062L221.624 342.505C219.327 337.435 217.015 332.332 214.625 327.272C217.752 326.694 220.894 326.23 223.985 325.834C232.611 324.723 241.496 323.742 250.093 322.793C252.602 322.516 255.116 322.239 257.633 321.957C268.374 334.884 280.712 344.595 291.071 351.382C296.657 355.043 302.426 358.363 308.262 361.39C298.352 368.883 288.714 376.768 279.305 384.468C276.046 387.134 272.749 389.827 269.426 392.521H270.351C273.485 389.976 276.596 387.434 279.673 384.918C289.148 377.166 298.856 369.223 308.834 361.686C314.058 364.372 319.326 366.821 324.572 369.065C317.399 373.627 311.551 380.694 308.015 389.273C307.573 390.347 307.186 391.43 306.828 392.521H307.443C307.781 391.505 308.141 390.496 308.553 389.494C312.099 380.892 317.994 373.832 325.223 369.342C339.885 375.57 354.291 380.193 366.673 383.855L367.139 383.993C372.356 385.538 377.69 387.117 382.411 389.657C382.541 389.506 382.675 389.357 382.805 389.205C378.011 386.602 372.595 384.999 367.302 383.436L366.836 383.299C354.582 379.671 340.342 375.104 325.838 368.969C327.728 367.846 329.704 366.895 331.753 366.136C346.866 360.537 363.625 364.106 378.408 367.257Z" fill="white"/>
<path d="M91.6009 329.528C94.1739 340.057 93.0259 351.43 88.4514 360.732C85.4553 366.822 81.1285 372.335 75.799 377.072C75.9051 377.237 76.0134 377.4 76.121 377.563C81.5369 372.766 85.9329 367.172 88.9743 360.988C93.6082 351.568 94.7718 340.05 92.1666 329.388C90.1316 321.059 86.0401 314.003 80.387 308.898C80.261 309.045 80.1359 309.194 80.0115 309.343C85.5701 314.372 89.5957 321.32 91.6009 329.528Z" fill="white"/>
<path d="M223.437 196.122C228.512 201.306 230.786 210.041 227.988 218.096C225.279 225.894 219.34 232.353 212.205 236.507C206.464 239.849 198.976 241.692 193.329 238.192C189.11 235.578 186.922 230.447 186.801 225.487C186.679 220.524 188.348 215.687 190.41 211.173C193.318 204.808 197.231 198.638 203.06 194.768C211.094 189.432 218.559 191.135 223.437 196.122Z" fill="#FE885C" fill-opacity="0.2"/>
<path d="M115.027 104.329H155.298V87.3041H115.027V104.329ZM156.172 105.203H114.153V86.4303H156.172V105.203Z" fill="#7474B4"/>
<path d="M87.691 122.28H127.963V105.257H87.691V122.28ZM128.836 123.153H86.8173V104.383H128.836V123.153Z" fill="#7474B4"/>
<path d="M395.255 143.157C392.533 134.109 387.746 125.802 380.896 118.21C374.032 110.615 364.671 104.346 352.811 99.3877C340.951 94.4292 325.882 91.9499 307.604 91.9499C293.025 91.9499 278.166 93.9172 263.029 97.8492C247.874 101.796 234.733 107.409 223.585 114.704L238.095 154.541L230.318 160.842L241.597 164.157C252.73 158.329 262.874 154.098 272.027 151.462C281.165 148.84 290.876 147.53 301.173 147.53C311.455 147.53 319.241 150.009 324.53 154.968C329.817 159.941 332.453 165.909 332.453 172.92C332.453 181.382 329.733 188.891 324.319 195.459C318.878 202.027 312.878 208.666 306.308 215.376C301.744 220.036 297.307 224.851 293.025 229.809C288.742 234.782 284.948 240.096 281.67 245.795C278.375 251.478 275.739 257.606 273.742 264.175C271.733 270.743 270.743 278.108 270.743 286.272C270.743 288.907 270.8 292.041 270.954 295.69C270.979 296.361 271.013 297.018 271.052 297.666H260.39L272.027 305.534H328.602C328.31 303.782 328.17 301.743 328.17 299.409C328.17 297.072 328.17 295.32 328.17 294.15C328.17 289.192 329.175 284.306 331.169 279.49C333.166 274.673 335.677 270.086 338.678 265.698C341.676 261.325 345.023 257.164 348.749 253.233C352.461 249.286 356.033 245.567 359.465 242.063C364.026 237.403 368.742 232.445 373.598 227.188C378.454 221.93 382.751 216.403 386.462 210.56C390.174 204.719 393.243 198.379 395.671 191.512C398.099 184.66 399.326 177.151 399.326 168.973C399.326 160.808 397.959 152.204 395.255 143.157Z" fill="#FE4400"/>
<path d="M289.195 144.753C279.019 144.753 269.423 146.02 260.392 148.558C251.346 151.11 241.321 155.204 230.318 160.843L212.517 112.983C223.534 105.925 236.523 100.492 251.497 96.6726C266.459 92.8651 281.142 90.9625 295.55 90.9625C313.616 90.9625 328.507 93.3626 340.225 98.1605C351.946 102.961 361.198 109.026 367.984 116.376C374.751 123.725 379.482 131.764 382.172 140.519C384.846 149.276 386.197 157.604 386.197 165.503C386.197 173.419 384.984 180.686 382.586 187.317C380.186 193.963 377.151 200.1 373.483 205.753C369.818 211.406 365.57 216.756 360.772 221.843C355.972 226.932 351.311 231.73 346.805 236.239C343.412 239.632 339.882 243.229 336.214 247.05C332.532 250.855 329.225 254.881 326.258 259.115C323.294 263.36 320.814 267.801 318.842 272.461C316.869 277.121 315.876 281.851 315.876 286.649C315.876 287.781 315.876 289.477 315.876 291.737C315.876 294 316.013 295.971 316.305 297.667H260.392C259.811 294.841 259.465 291.67 259.328 288.14C259.176 284.61 259.122 281.576 259.122 279.025C259.122 271.124 260.102 263.996 262.088 257.638C264.059 251.281 266.663 245.354 269.919 239.851C273.16 234.335 276.908 229.193 281.142 224.381C285.376 219.583 289.761 214.922 294.27 210.413C300.762 203.919 306.693 197.494 312.071 191.137C317.421 184.78 320.11 177.513 320.11 169.323C320.11 162.539 317.501 156.763 312.277 151.951C307.053 147.151 299.357 144.753 289.195 144.753Z" fill="#FE662E"/>
<path d="M332.475 360.451C332.475 370.652 329.173 378.522 322.57 384.075C315.964 389.639 308.501 392.409 300.167 392.409C291.821 392.409 284.358 389.639 277.755 384.075C271.161 378.522 267.859 370.652 267.859 360.451C267.859 350.264 271.161 342.393 277.755 336.829C287.92 328.25 302.958 326.337 314.862 332.358C325.422 337.703 332.475 348.552 332.475 360.451Z" fill="#FE4400"/>
<path d="M321.407 360.451C321.407 370.652 318.106 378.522 311.502 384.075C304.897 389.639 297.434 392.409 289.099 392.409C280.753 392.409 273.29 389.639 266.687 384.075C260.093 378.522 256.792 370.652 256.792 360.451C256.792 350.264 260.093 342.393 266.687 336.829C273.29 331.277 280.753 328.495 289.099 328.495C297.434 328.495 304.897 331.277 311.502 336.829C318.106 342.393 321.407 350.264 321.407 360.451Z" fill="#FE662E"/>
<path d="M152.956 211.285C154.856 214.062 154.146 217.853 151.368 219.754C148.591 221.653 144.8 220.943 142.899 218.165C140.999 215.388 141.71 211.597 144.487 209.696C147.264 207.797 151.055 208.507 152.956 211.285Z" fill="#A8A8D0"/>
<path d="M156.827 227.293C156.478 229.152 154.677 230.378 152.803 230.026C150.93 229.674 149.693 227.882 150.042 226.02C150.391 224.161 152.192 222.938 154.066 223.29C155.939 223.639 157.175 225.433 156.827 227.293Z" fill="#A8A8D0"/>
<path d="M156.472 188.467C154.031 201.489 141.495 210.066 128.473 207.626C115.45 205.185 106.872 192.649 109.313 179.627C111.754 166.604 124.289 158.025 137.312 160.467C150.334 162.909 158.913 175.444 156.472 188.467Z" fill="#A8A8D0"/>
<path d="M126.703 184.046C126.703 185.715 125.35 187.068 123.681 187.068C122.012 187.068 120.658 185.715 120.658 184.046C120.658 182.376 122.012 181.024 123.681 181.024C125.35 181.024 126.703 182.376 126.703 184.046Z" fill="white"/>
<path d="M135.915 184.046C135.915 185.715 134.562 187.068 132.893 187.068C131.223 187.068 129.87 185.715 129.87 184.046C129.87 182.376 131.223 181.024 132.893 181.024C134.562 181.024 135.915 182.376 135.915 184.046Z" fill="white"/>
<path d="M145.126 184.046C145.126 185.715 143.773 187.068 142.104 187.068C140.435 187.068 139.081 185.715 139.081 184.046C139.081 182.376 140.435 181.024 142.104 181.024C143.773 181.024 145.126 182.376 145.126 184.046Z" fill="white"/>
<path d="M115.707 380.401L117.948 389.043C118.533 391.296 120.712 392.82 123.122 392.655C130.472 392.156 145.742 390.355 154.506 383.896L152.015 371.442C139.965 370.76 128.695 371.431 118.937 374.716C116.494 375.539 115.081 377.987 115.707 380.401Z" fill="#102048"/>
<path d="M129.752 387.279C129.624 387.279 129.507 387.195 129.471 387.067L126.462 376.291C126.418 376.135 126.509 375.974 126.664 375.932C126.82 375.888 126.98 375.979 127.023 376.135L130.032 386.911C130.076 387.065 129.985 387.226 129.83 387.27C129.804 387.277 129.777 387.279 129.752 387.279Z" fill="white"/>
<path d="M136.256 385.821C136.129 385.821 136.012 385.737 135.976 385.609L132.966 374.833C132.923 374.677 133.014 374.516 133.169 374.474C133.325 374.43 133.484 374.521 133.527 374.677L136.537 385.453C136.58 385.607 136.49 385.768 136.335 385.812C136.309 385.819 136.282 385.821 136.256 385.821Z" fill="white"/>
<path d="M144.007 333.78L116 342.093L136.8 370.592L166.66 372.966L207.848 355.551L192.197 332L144.007 333.78Z" fill="#FE662E"/>
<path d="M178.339 337.648C239.846 319.441 249.732 373.8 153.764 383.695C150.375 379.881 146.414 373.262 144.841 367.73L195.519 344.311L178.339 337.648Z" fill="#FE4400"/>
<path d="M180.952 376.603C178.076 375.683 175.319 373.863 175.319 373.863L165.434 376.964L167.7 387.717L177.968 389.803C181.096 384.083 181.279 379.383 180.952 376.603Z" fill="#F9B384"/>
<path d="M145.06 368.108L144.621 367.353C155.193 361.209 182.274 346.446 205.347 342.094L205.509 342.954C182.569 347.281 155.593 361.987 145.06 368.108Z" fill="#FE885C"/>
<path d="M143.81 333.687C86.5602 322.804 71.7328 377.822 167.699 387.718C171.089 383.904 173.746 379.395 175.319 373.864C160.578 364.001 144.095 354.625 126.031 345.694L143.81 333.687Z" fill="#FE4400"/>
<path d="M175.085 374.232C172.361 372.499 169.523 370.668 166.519 368.727C151.438 358.99 134.344 347.955 119.821 341.661L120.169 340.86C134.758 347.181 151.883 358.237 166.993 367.993C169.996 369.934 172.833 371.765 175.554 373.496L175.085 374.232Z" fill="#FE885C"/>
<path d="M101.807 360.968L101.042 360.546C103.191 356.655 106.633 354.031 111.272 352.748L111.505 353.589C107.039 354.826 103.866 357.24 101.807 360.968Z" fill="#FE885C"/>
<path d="M221.297 357.656C219.237 353.928 216.064 351.514 211.598 350.275L211.831 349.434C216.471 350.72 219.912 353.343 222.061 357.235L221.297 357.656Z" fill="#FE885C"/>
<path d="M162.338 387.234L161.7 386.638C166.28 381.733 169.092 376.554 170.299 370.808L171.154 370.987C169.914 376.894 167.03 382.209 162.338 387.234Z" fill="#FE885C"/>
<path d="M209.504 373.403C202.169 368.871 187.95 376.702 184.38 377.096C183.34 377.212 182.136 376.984 180.952 376.604C181.279 379.384 181.096 384.083 177.968 389.803L179.712 390.158C179.712 390.158 191.771 394.58 204.562 392.005C216.369 389.631 215.271 376.965 209.504 373.403Z" fill="#102048"/>
<path d="M199.506 388.228C199.477 388.228 199.448 388.223 199.419 388.214C199.265 388.165 199.18 388.002 199.228 387.848C200.1 385.089 200.48 379.66 197.956 376.014C197.864 375.881 197.898 375.701 198.03 375.608C198.162 375.517 198.343 375.55 198.435 375.683C201.078 379.499 200.69 385.154 199.784 388.022C199.745 388.146 199.63 388.228 199.506 388.228Z" fill="white"/>
<path d="M193.754 389.317C193.725 389.317 193.696 389.313 193.666 389.303C193.513 389.257 193.428 389.091 193.477 388.94C194.348 386.179 194.728 380.752 192.204 377.106C192.113 376.973 192.145 376.791 192.278 376.7C192.41 376.61 192.591 376.642 192.683 376.775C195.326 380.592 194.938 386.246 194.032 389.115C193.993 389.238 193.878 389.317 193.754 389.317Z" fill="white"/>
<path d="M133.682 262.749C133.682 262.749 148.1 250.489 147.566 248.159C147.185 246.493 143.101 248.934 143.101 248.934C143.101 248.934 148.829 242.14 148.537 241.313C148.017 239.84 144.055 242.588 144.055 242.588C144.055 242.588 146.733 238.734 145.453 238.107C144.173 237.478 141.382 239.854 141.382 239.854C141.382 239.854 143.012 237.713 142.246 237.152C141.48 236.59 138.175 238.899 138.175 238.899C138.175 238.899 139.361 236.201 136.842 237.224C134.322 238.247 116.656 254.459 116.656 254.459L133.682 262.749Z" fill="#F9B384"/>
<path d="M139.581 248.207C139.511 248.207 139.441 248.181 139.385 248.13C136.91 245.87 135.819 245.32 133.088 244.479C132.935 244.432 132.848 244.269 132.896 244.116C132.943 243.962 133.106 243.876 133.26 243.924C136.089 244.794 137.219 245.362 139.778 247.699C139.897 247.809 139.905 247.993 139.797 248.111C139.739 248.174 139.66 248.207 139.581 248.207Z" fill="#E28B6D"/>
<path d="M135.237 254.856L135.197 254.854C135.038 254.831 134.926 254.684 134.949 254.526C135.232 252.499 135.87 251.231 136.9 250.651C137.78 250.157 138.925 250.208 140.304 250.802C140.452 250.867 140.52 251.038 140.456 251.184C140.392 251.333 140.221 251.401 140.073 251.338C138.87 250.819 137.899 250.758 137.185 251.159C136.337 251.636 135.778 252.797 135.525 254.605C135.505 254.752 135.38 254.856 135.237 254.856Z" fill="#E28B6D"/>
<path d="M134.558 242.603C134.48 242.603 134.403 242.57 134.346 242.509C134.235 242.393 134.241 242.209 134.358 242.099L137.976 238.688C138.093 238.579 138.277 238.583 138.388 238.7C138.498 238.819 138.493 239.003 138.375 239.112L134.757 242.521C134.701 242.575 134.629 242.603 134.558 242.603Z" fill="#E28B6D"/>
<path d="M137.907 243.767C137.834 243.767 137.762 243.739 137.705 243.685C137.589 243.573 137.585 243.389 137.697 243.273L141.172 239.652C141.283 239.535 141.468 239.531 141.584 239.643C141.7 239.754 141.704 239.938 141.592 240.055L138.117 243.676C138.06 243.736 137.983 243.767 137.907 243.767Z" fill="#E28B6D"/>
<path d="M141.329 245.807C141.258 245.807 141.187 245.779 141.13 245.727C141.013 245.618 141.006 245.434 141.116 245.315L143.843 242.391C143.952 242.274 144.136 242.267 144.254 242.377C144.372 242.486 144.378 242.67 144.269 242.787L141.542 245.713C141.485 245.774 141.407 245.807 141.329 245.807Z" fill="#E28B6D"/>
<path d="M188.148 344.757L135.431 346.796L129.606 298.74C129.606 298.74 147.254 281.999 154.044 275.836L165.506 275.249C201.07 291.412 195.246 311.601 188.148 344.757Z" fill="#7474B4"/>
<path d="M165.506 275.248C165.506 275.248 206.193 278.727 219.02 306.603C231.571 333.878 179.993 343.592 179.993 343.592L165.506 275.248Z" fill="#404099"/>
<path d="M118.999 281.22L135.812 260.76L120.09 251.231C113.532 255.793 100.849 266.122 90.1008 277.818C87.7284 280.4 85.8753 283.415 84.9419 286.735C84.1458 289.568 84.0009 292.367 84.4487 295.107C85.6153 302.251 91.2339 307.763 98.7339 308.642C105.139 309.392 129.606 307.477 149.411 301.652L155.236 279.17C152.243 277.471 129.997 277.175 118.999 281.22Z" fill="#404099"/>
<path d="M187.953 288.245C185.28 288.245 181.403 287.646 179.989 284.422C179.055 282.294 179.713 279.953 180.739 278.282C180.884 278.324 181.029 278.366 181.175 278.408C180.174 279.983 179.503 282.229 180.389 284.247C181.705 287.248 185.379 287.809 187.94 287.809C188.842 287.809 189.606 287.74 190.08 287.681C193.113 287.315 196.19 286.614 199.171 285.927C199.355 286.034 199.54 286.141 199.724 286.248C199.636 286.269 199.548 286.29 199.461 286.309C196.409 287.013 193.253 287.74 190.133 288.115C189.647 288.173 188.871 288.245 187.953 288.245Z" fill="#D8E1FB"/>
<path d="M208.333 332.985C206.272 330.376 205.191 327.41 205.322 324.581C205.514 320.429 208.683 316.769 212.386 316.417C212.614 316.396 212.841 316.386 213.067 316.386C214.93 316.386 216.715 317.076 218.449 317.745C219.142 318.013 219.846 318.283 220.559 318.514C220.525 318.656 220.488 318.796 220.45 318.938C219.719 318.702 218.999 318.428 218.291 318.153C216.522 317.47 214.84 316.822 213.074 316.822C212.86 316.822 212.644 316.831 212.427 316.852C208.932 317.183 205.941 320.657 205.758 324.6C205.632 327.337 206.689 330.217 208.704 332.75C208.581 332.829 208.457 332.908 208.333 332.985Z" fill="#D8E1FB"/>
<path d="M95.9097 308.066C95.7577 308.022 95.6114 307.966 95.4616 307.917C97.7413 305.296 101.059 303.316 104.927 302.314C106.395 301.934 107.817 301.747 109.155 301.747C111.775 301.747 114.073 302.465 115.754 303.854C117.006 304.891 117.872 306.235 118.494 307.675C118.343 307.691 118.193 307.71 118.043 307.726C117.449 306.386 116.632 305.147 115.476 304.192C113.873 302.866 111.674 302.183 109.157 302.183C107.856 302.183 106.469 302.367 105.036 302.738C101.322 303.698 98.1276 305.578 95.9097 308.066Z" fill="#D8E1FB"/>
<path d="M92.7907 274.958C92.9804 274.762 93.1701 274.564 93.3602 274.369C97.8499 273.206 102.22 271.596 106.261 269.268C107.84 268.359 109.622 267.201 110.859 265.522C112.143 263.779 112.574 261.714 112.011 260.004C111.79 259.331 111.396 258.741 110.905 258.273C111.017 258.182 111.13 258.089 111.241 257.998C111.768 258.508 112.189 259.142 112.427 259.867C113.033 261.712 112.578 263.923 111.211 265.782C109.926 267.528 108.098 268.716 106.479 269.648C102.195 272.115 97.5504 273.777 92.7907 274.958Z" fill="#D8E1FB"/>
<path d="M169.23 264.564L169.223 265.309L169.105 276.897L169.09 278.152C169.068 280.117 168.263 281.897 166.963 283.19C165.671 284.474 163.891 285.28 161.919 285.294C157.946 285.315 154.696 282.125 154.66 278.145L154.519 263.825L169.23 264.564Z" fill="#F9B384"/>
<path d="M169.223 265.307L169.105 276.895C162.665 274.273 160.014 267.302 160.014 267.302L169.223 265.307Z" fill="#102048"/>
<path d="M171.771 245.087C174.079 247.857 180.817 263.55 173.986 268.904C166.299 274.93 154.6 265.027 154.6 265.027L153.031 246.748L163.186 244.071L171.771 245.087Z" fill="#F9B384"/>
<path d="M147.858 244.082C147.858 244.082 125.335 255.83 143.699 289.692C146.058 294.04 151.283 295.938 155.752 293.816H155.752C160.547 291.539 162.362 285.682 159.759 281.057C156.754 275.721 153.855 268.85 155.093 263.736L147.858 244.082Z" fill="#102048"/>
<path d="M156.077 249.64C156.077 253.007 153.35 255.733 149.985 255.733C146.62 255.733 143.892 253.007 143.892 249.64C143.892 246.276 146.62 243.55 149.985 243.55C153.35 243.55 156.077 246.276 156.077 249.64Z" fill="#FBC343"/>
<path d="M157.48 256.962C156.822 253.162 156.421 250.554 160.262 248.595C160.262 248.595 173.801 251.058 176.386 245.95C178.971 240.841 175.032 232.779 166.786 238.38C145.677 234.256 142.846 254.012 149.246 260.597L155.563 259.627C156.835 259.432 157.699 258.229 157.48 256.962Z" fill="#102048"/>
<path d="M168.863 256.973C168.863 257.469 168.46 257.872 167.963 257.872C167.466 257.872 167.062 257.469 167.062 256.973C167.062 256.476 167.466 256.073 167.963 256.073C168.46 256.073 168.863 256.476 168.863 256.973Z" fill="#102048"/>
<path d="M174.955 253.973C174.955 254.472 174.552 254.875 174.055 254.875C173.558 254.875 173.155 254.472 173.155 253.973C173.155 253.477 173.558 253.074 174.055 253.074C174.552 253.074 174.955 253.477 174.955 253.973Z" fill="#102048"/>
<path d="M173.432 259.743C173.369 259.743 173.306 259.72 173.257 259.673C173.155 259.575 173.151 259.415 173.248 259.312C173.609 258.932 174.004 258.399 173.838 258.012C173.665 257.609 172.936 257.436 172.602 257.436C171.883 257.436 171.539 256.157 171.477 255.901C171.444 255.766 171.528 255.628 171.665 255.593C171.801 255.561 171.939 255.645 171.972 255.782C172.103 256.323 172.4 256.926 172.602 256.926C172.945 256.926 173.996 257.087 174.306 257.809C174.527 258.327 174.296 258.949 173.617 259.664C173.567 259.718 173.5 259.743 173.432 259.743Z" fill="#102048"/>
<path d="M173.478 263.159C173.429 263.159 173.38 263.145 173.336 263.115C171.641 261.971 169.93 262.931 169.913 262.94C169.791 263.01 169.635 262.968 169.565 262.847C169.495 262.723 169.537 262.57 169.659 262.497C169.74 262.451 171.665 261.372 173.621 262.693C173.738 262.772 173.769 262.931 173.69 263.047C173.64 263.12 173.56 263.159 173.478 263.159Z" fill="#102048"/>
<path d="M167.568 253.073C168.08 254.036 167.188 254.231 166.143 254.786C165.097 255.341 164.027 255.546 163.783 255.084C163.538 254.625 164.188 253.803 165.233 253.246C166.279 252.691 167.172 252.328 167.568 253.073Z" fill="#102048"/>
<path d="M171.381 251.334C171.606 252.194 172.248 251.819 173.181 251.574C174.114 251.33 174.868 250.861 174.76 250.451C174.653 250.041 173.81 249.906 172.876 250.151C171.943 250.395 171.207 250.668 171.381 251.334Z" fill="#102048"/>
<path d="M163.809 263.828C162.343 263.828 161.155 262.64 161.155 261.174C161.155 259.706 162.343 258.52 163.809 258.52C165.274 258.52 166.462 259.706 166.462 261.174C166.462 262.64 165.274 263.828 163.809 263.828Z" fill="#F39176"/>
<path d="M155.926 258.339C157.712 259.716 158.176 262.107 156.963 263.68C155.751 265.25 153.32 265.406 151.534 264.029C149.748 262.652 149.284 260.259 150.496 258.689C151.709 257.116 154.14 256.96 155.926 258.339Z" fill="#F9B384"/>
<path d="M155.309 262.515C155.168 262.515 155.054 262.4 155.054 262.261C155.054 261.508 154.687 260.814 154.073 260.399C153.548 260.047 152.922 259.963 152.398 260.178C152.268 260.229 152.119 260.168 152.066 260.038C152.013 259.907 152.075 259.758 152.206 259.705C152.887 259.427 153.691 259.53 154.358 259.977C155.113 260.485 155.564 261.338 155.564 262.261C155.564 262.4 155.45 262.515 155.309 262.515Z" fill="#102048"/>
<path d="M110.015 291.363L109.587 290.967L118.785 281.02L119.213 281.417L110.015 291.363Z" fill="#102048"/>
<path d="M183.572 323.774L183.403 323.218C190.097 321.176 196.594 318.735 202.483 311.372L202.937 311.735C196.946 319.229 190.358 321.705 183.572 323.774Z" fill="#102048"/>
<path d="M187.643 301.217H130.694C128.645 301.217 126.985 303.014 126.985 305.227V345.888C126.985 348.104 128.645 349.9 130.694 349.9H187.643C189.691 349.9 191.351 348.104 191.351 345.888V305.227C191.351 303.014 189.691 301.217 187.643 301.217Z" fill="#D3DFFF"/>
<path d="M162.175 321.824H156.162C155.304 321.824 154.605 322.537 154.605 323.413V327.705C154.605 328.581 155.304 329.294 156.162 329.294H162.175C163.033 329.294 163.731 328.581 163.731 327.705V323.413C163.731 322.537 163.033 321.824 162.175 321.824ZM162.175 322.989C162.391 322.989 162.566 323.178 162.566 323.413V327.705C162.566 327.938 162.391 328.129 162.175 328.129H156.162C155.946 328.129 155.77 327.938 155.77 327.705V323.413C155.77 323.178 155.946 322.989 156.162 322.989H162.175Z" fill="#1F3C88"/>
<path d="M408.669 393.103H65.3011V391.937H408.669V393.103Z" fill="#102048"/>
</svg>
