<svg width="137" height="138" viewBox="0 0 137 138" fill="none" xmlns="http://www.w3.org/2000/svg">
<path d="M137 68.4947C137 84.7122 131.365 99.6184 121.935 111.353C117.812 116.501 112.96 121.026 107.536 124.79C105.496 126.217 103.382 127.528 101.183 128.712C91.4778 133.998 80.3351 137 68.5053 137C56.6754 137 45.5327 133.998 35.8278 128.712C33.6289 127.528 31.5145 126.217 29.4742 124.8C24.0403 121.026 19.1878 116.501 15.0754 111.353C5.63475 99.6184 0 84.7122 0 68.4947C0 30.669 30.6688 0.000228882 68.5053 0.000228882C106.331 0.000228882 137 30.669 137 68.4947Z" fill="#A8A8D0"/>
<path d="M121.925 111.402C117.802 116.55 112.949 121.075 107.526 124.838C105.485 126.266 103.371 127.577 101.172 128.761C91.4672 134.047 80.3246 137.049 68.4947 137.049C56.6649 137.049 45.5222 134.047 35.8173 128.761C33.6183 127.577 31.504 126.266 29.4636 124.849C24.0297 121.075 19.1773 116.55 15.0648 111.402C16.8303 105.165 21.7356 100.228 28.0893 98.4725L44.5073 93.9374L50.4381 92.2988L55.5443 90.8819L56.0411 88.0803H80.9483L81.4452 90.8819L86.5514 92.2988L92.4822 93.9374L108.9 98.4725C115.254 100.228 120.159 105.165 121.925 111.402Z" fill="#0C415B"/>
<path d="M80.9451 88.0768H56.0443L55.5443 90.8816L50.4381 92.2985C53.3982 108.949 65.3338 116.042 65.8412 116.349L68.5053 117.882L71.1588 116.339C71.6663 116.042 83.6124 108.906 86.5514 92.2985L81.4452 90.8816L80.9451 88.0768Z" fill="#051733"/>
<path d="M81.4452 90.8833C81.3818 91.2852 81.3078 91.6762 81.2338 92.057C78.4957 105.811 68.6851 111.657 68.4948 111.773C68.2939 111.657 57.9335 105.483 55.5443 90.8833L56.8129 83.7792L58.9378 71.8541L68.4948 75.5968L78.0517 71.8541L81.4452 90.8833Z" fill="#F69779"/>
<path d="M81.4451 90.8824C81.3817 91.2842 81.3077 91.6753 81.2337 92.0561C77.1953 93.7578 73.844 93.7578 73.844 93.7578C73.844 93.7578 62.9234 93.7578 56.8129 83.7782L58.9378 71.8531L68.4947 75.5959L78.0516 71.8531L81.4451 90.8824Z" fill="#F37A67"/>
<path d="M107.526 124.838C105.485 126.266 103.371 127.577 101.172 128.761L105.274 106.401L107.526 124.838Z" fill="#051733"/>
<path d="M35.8171 128.761C33.6182 127.577 31.5039 126.266 29.4635 124.849L31.7153 106.401L35.8171 128.761Z" fill="#051733"/>
<path d="M95.8152 29.1335C92.298 21.9764 68.4903 21.7417 68.4903 21.7417C68.4903 21.7417 44.6815 21.9764 41.1643 29.1335C34.3645 46.1393 49.2327 64.8546 49.2327 64.8546L68.4903 69.8105L87.7468 64.8546C87.7468 64.8546 102.615 46.1393 95.8152 29.1335Z" fill="#843E2F"/>
<path d="M59.222 35.5745C59.222 35.5745 40.9423 33.9581 41.9371 26.1233C42.1856 23.6368 46.9111 23.6368 46.9111 23.6368C46.9111 23.6368 43.3041 22.3936 44.4236 19.906C45.5432 17.4185 50.4379 17.9164 50.4379 17.9164C50.4379 17.9164 46.04 15.3052 48.0296 12.9424C50.0193 10.5796 63.2012 12.9424 63.2012 12.9424C63.2012 12.9424 82.351 10.9527 92.1754 21.1493C97.6463 25.9996 90.9311 39.5537 90.9311 39.5537L59.222 35.5745Z" fill="#843E2F"/>
<path d="M94.3194 51.1903C94.1904 50.3467 93.8785 49.4904 93.2347 48.9301C92.6533 48.4258 91.8551 48.2165 91.0865 48.2503C90.3169 48.2831 89.5737 48.54 88.8813 48.8751C88.8813 48.8751 88.8126 29.386 81.9039 29.1587C77.3739 28.9325 75.3589 30.292 68.4946 30.292C61.6303 30.292 59.6153 28.9325 55.0853 29.1587C48.1767 29.386 48.1079 48.8751 48.1079 48.8751C47.4155 48.54 46.6712 48.2831 45.9027 48.2503C45.1341 48.2165 44.3359 48.4258 43.7545 48.9301C43.1106 49.4904 42.7988 50.3467 42.6698 51.1903C42.4129 52.8829 42.8178 54.6685 43.7809 56.084C44.745 57.4996 46.1669 58.5642 47.8362 58.9458C50.7815 79.5596 68.4946 79.5596 68.4946 79.5596C68.4946 79.5596 86.2076 79.5596 89.153 58.9458C90.8222 58.5642 92.2441 57.4996 93.2083 56.084C94.1714 54.6685 94.5763 52.8829 94.3194 51.1903Z" fill="#F69779"/>
<path d="M67.502 48.7163V60.8115H69.5518C73.0648 60.8115 68.1542 50.1065 67.502 48.7163Z" fill="#F37A67"/>
<path d="M82.405 44.0044C79.5718 42.6047 76.4235 42.3964 73.4697 43.5709C72.2191 44.0689 72.7635 46.1145 74.0321 45.6102C76.452 44.6482 78.9861 44.6683 81.3383 45.8301C82.5562 46.4317 83.6271 44.608 82.405 44.0044Z" fill="#843E2F"/>
<path d="M79.854 48.716C79.854 49.8176 78.9618 50.7109 77.8602 50.7109C76.7597 50.7109 75.8663 49.8176 75.8663 48.716C75.8663 47.6155 76.7597 46.7222 77.8602 46.7222C78.9618 46.7222 79.854 47.6155 79.854 48.716Z" fill="#051733"/>
<path d="M54.5842 44.0044C57.4175 42.6047 60.5658 42.3964 63.5195 43.5709C64.7702 44.0689 64.2257 46.1145 62.9571 45.6102C60.5372 44.6482 58.0032 44.6683 55.6509 45.8301C54.4331 46.4317 53.3621 44.608 54.5842 44.0044Z" fill="#843E2F"/>
<path d="M57.1342 48.716C57.1342 49.8176 58.0275 50.7109 59.129 50.7109C60.2296 50.7109 61.1229 49.8176 61.1229 48.716C61.1229 47.6155 60.2296 46.7222 59.129 46.7222C58.0275 46.7222 57.1342 47.6155 57.1342 48.716Z" fill="#051733"/>
<path d="M61.9973 65.5367C62.7003 68.1606 65.3391 70.1143 68.4947 70.1143C71.6504 70.1143 74.2891 68.1606 74.9911 65.5367H61.9973Z" fill="white"/>
<path d="M63.1454 76.7751V80.6124C63.1454 81.2946 64.2026 81.2946 64.2026 80.6124V76.7751C64.2026 76.0929 63.1454 76.0929 63.1454 76.7751Z" fill="#843E2F"/>
<path d="M65.4755 77.3677C65.541 78.6471 65.6055 79.926 65.671 81.2053C65.7059 81.883 66.7631 81.8864 66.7282 81.2053C66.6627 79.926 66.5982 78.6471 66.5326 77.3677C66.4977 76.6892 65.4406 76.6859 65.4755 77.3677Z" fill="#843E2F"/>
<path d="M72.7869 76.7751V80.6124C72.7869 81.2946 73.844 81.2946 73.844 80.6124V76.7751C73.844 76.0929 72.7869 76.0929 72.7869 76.7751Z" fill="#843E2F"/>
<path d="M70.4569 77.3677C70.3914 78.6471 70.3269 79.926 70.2613 81.2053C70.2265 81.8864 71.2836 81.883 71.3185 81.2053C71.3841 79.926 71.4486 78.6471 71.5141 77.3677C71.549 76.6859 70.4918 76.6892 70.4569 77.3677Z" fill="#843E2F"/>
<path d="M67.9662 77.7603V81.7934C67.9662 82.4751 69.0234 82.4751 69.0234 81.7934V77.7603C69.0234 77.0785 67.9662 77.0785 67.9662 77.7603Z" fill="#843E2F"/>
</svg>
