<svg width="40" height="40" viewBox="0 0 40 40" fill="none" xmlns="http://www.w3.org/2000/svg">
<path d="M20 25.3337C22.9455 25.3337 25.3333 22.9458 25.3333 20.0003C25.3333 17.0548 22.9455 14.667 20 14.667C17.0545 14.667 14.6667 17.0548 14.6667 20.0003C14.6667 22.9458 17.0545 25.3337 20 25.3337Z" fill="#FE662E"/>
<path d="M15 3.33301L11.95 6.66634H6.66668C4.83334 6.66634 3.33334 8.16634 3.33334 9.99967V29.9997C3.33334 31.833 4.83334 33.333 6.66668 33.333H33.3333C35.1667 33.333 36.6667 31.833 36.6667 29.9997V9.99967C36.6667 8.16634 35.1667 6.66634 33.3333 6.66634H28.05L25 3.33301H15ZM20 28.333C15.4 28.333 11.6667 24.5997 11.6667 19.9997C11.6667 15.3997 15.4 11.6663 20 11.6663C24.6 11.6663 28.3333 15.3997 28.3333 19.9997C28.3333 24.5997 24.6 28.333 20 28.333Z" fill="#FE662E"/>
</svg>
