<svg width="562" height="409" viewBox="0 0 562 409" fill="none" xmlns="http://www.w3.org/2000/svg">
<g clip-path="url(#clip0)">
<path d="M0 408.282H562V0.000396729H0V408.282Z" fill="white"/>
<path d="M522.239 381.939H57.3152C55.9105 381.166 -26.1719 335.644 33.4181 293.624C74.0558 264.965 44.8155 244.155 40.3956 231.036C35.3211 215.973 24.8044 143.076 79.2273 134.557C185.066 117.987 97.1772 35.7491 193.42 19.0218C215.142 15.2473 238.755 13.2691 261.899 13.2691C333.597 13.2691 400.751 32.2624 392.937 75.6525C385.481 117.044 440.906 100.182 475.755 115.652C529.127 139.347 474.109 212.345 508.756 233.453C540.945 253.063 560.775 349.793 522.239 381.939Z" fill="#F5F9FE"/>
<path d="M470.288 136.423C470.288 136.423 462.677 152.991 457.555 159.991C452.433 166.989 447.554 173.683 443.47 193.109C439.383 212.535 440.083 214.487 438.964 219.505C437.846 224.522 430.568 244.851 430.525 248.578C430.482 252.306 415.815 273.527 412.056 283.46C408.3 293.391 401.643 307.579 402.019 314.802L403.691 314.377C403.691 314.377 405.052 297.536 416.648 280.514C428.245 263.493 426.585 260.28 439.754 251.534C452.921 242.791 461.426 218.637 461.426 218.637C461.426 218.637 474.822 192.401 474.199 178.76C473.576 165.122 477.13 152.822 470.288 136.423Z" fill="#256653"/>
<path d="M452.464 110.939C452.464 110.939 452.021 121.824 448.51 128.289C445.001 134.756 441.975 138.681 441.338 145.677C440.701 152.673 438.497 170.707 428.706 179.514C418.916 188.316 417.666 214.699 410.213 222.679C402.762 230.661 401.788 236.398 403.164 250.085C404.54 263.773 409.215 282.742 398.406 307.502L395.962 301.343C395.962 301.343 403.695 280.974 401.823 269.046C399.951 257.12 393.437 239.096 395.821 230.453C398.205 221.81 389.338 220.121 394.678 207.048C400.016 193.975 397.824 189.433 405.093 178.13C405.093 178.13 405.838 177.601 407.749 168.037C409.66 158.473 425.066 140.945 432.166 134.964C439.264 128.983 449.496 119.396 452.464 110.939Z" fill="#256653"/>
<path d="M423.548 164.828C423.548 164.828 415.045 179.385 414.925 188.753C414.804 198.124 415.819 205.744 411.518 218.572C407.216 231.403 415.753 239.513 413.291 246.597C410.832 253.681 410.642 262.067 410.715 268.426C410.791 274.787 400.978 295.834 399.483 306.49C397.991 317.148 399.9 317.183 399.9 317.183C399.9 317.183 401.527 303.113 403.785 298.461C406.042 293.808 412.908 277.767 414.512 271.561C416.115 265.355 420.463 261.373 424.213 250.863C427.963 240.352 433.295 231.501 432.889 216.586C432.481 201.674 438.482 185.932 423.548 164.828Z" fill="#3C8F7C"/>
<path d="M405.548 307.416C405.548 307.416 409.513 288.943 426.23 287.098C442.949 285.254 452.77 288.56 464.58 275.064C476.391 261.566 483.251 240.15 487.023 236.463C487.023 236.463 481.089 233.409 471.225 242.632C461.359 251.855 454.428 258.853 448.716 264.222C443.006 269.593 438.368 266.092 432.338 269.632C427.283 272.598 420.749 281.174 417.87 285.665C416.935 287.124 415.827 288.464 414.553 289.637C413.396 290.707 412.016 292.018 411.132 292.981C409.362 294.91 404.256 307.483 404.256 307.483L405.548 307.416Z" fill="#3C8F7C"/>
<path d="M399.655 304.157C399.655 304.157 405.548 281.565 401.6 270.509C397.654 259.454 385.3 251.272 385.796 244.328C386.292 237.383 394.225 218.612 387.758 204.639C387.758 204.639 385.3 217.103 382.877 219.876C380.451 222.65 363.816 233.831 366.766 248.6C369.714 263.368 385.888 266.82 389.87 271.168C393.853 275.514 399.232 275.51 399.265 278.401C399.3 281.291 400.349 291.803 398.563 302.175L399.655 304.157Z" fill="#3C8F7C"/>
<path d="M406.098 289.039L414.375 265.196C414.375 265.196 419.238 246.017 422.055 230.024C424.874 214.032 423.548 164.828 423.548 164.828C423.548 164.828 415.045 179.385 414.925 188.753C414.804 198.123 415.819 205.744 411.517 218.572C407.216 231.402 415.753 239.513 413.291 246.596C410.832 253.68 410.642 262.066 410.715 268.425C410.791 274.786 400.978 295.833 399.483 306.489C398.667 312.328 398.869 314.975 399.22 316.178C397.893 306.857 406.098 289.039 406.098 289.039Z" fill="#327F6B"/>
<path d="M446.869 274.835C439.485 276.309 432.883 275.807 424.117 282.331C415.351 288.856 410.197 295.823 410.197 295.823C410.197 295.823 406.257 302.864 404.628 306.577C404.393 307.145 404.256 307.483 404.256 307.483L405.548 307.416C405.548 307.416 409.513 288.943 426.23 287.098C442.949 285.254 452.77 288.56 464.58 275.064C476.391 261.566 483.251 240.15 487.023 236.463C487.023 236.463 474.462 246.235 466.699 254.884C458.937 263.532 454.254 273.359 446.869 274.835Z" fill="#327F6B"/>
<path d="M382.877 219.876C380.451 222.65 363.816 233.831 366.766 248.601C369.714 263.368 385.888 266.82 389.87 271.168C393.853 275.515 399.232 275.511 399.265 278.401C399.3 281.292 400.349 291.803 398.563 302.175L399.04 303.041C399.912 298.993 401.123 292.828 401.519 288.147C402.162 280.547 400.931 277.399 398.487 271.242C396.044 265.083 380.862 252.541 377.056 245.947C373.253 239.351 384.393 228.33 386.865 223.008C389.338 217.686 387.758 204.639 387.758 204.639C387.758 204.639 385.3 217.104 382.877 219.876Z" fill="#327F6B"/>
<path d="M422.343 293.242L424.942 286.961C426.959 282.341 432.117 280.136 436.466 282.035C447.426 286.818 452.189 300.132 447.107 311.774L443.392 320.285C441.765 324.012 442.331 328.115 444.527 331.006C446.52 333.633 446.844 337.285 445.462 340.452L443.504 344.939C441.383 349.795 437.258 353.394 432.364 354.878C429.502 355.746 426.975 357.893 425.638 360.956L422.866 367.308C419.8 374.331 411.954 377.685 405.342 374.8L401.57 373.153C394.958 370.266 392.083 362.233 395.149 355.209C400.108 346.811 399.712 340.544 397.954 336.291C395.372 330.04 395.403 322.849 398.197 316.447L398.589 315.549C401.537 308.791 407.235 303.747 414.016 301.587C417.011 300.634 420.132 298.305 422.343 293.242Z" fill="#50BFA5"/>
<path d="M375.55 381.939C380.868 375.044 410.029 338.106 429.043 331.949C450.033 325.156 430.249 352.143 430.249 352.143C430.249 352.143 467.483 311.429 481.148 315.1C493.672 318.464 481.148 343.7 481.148 343.7C481.148 343.7 495.254 329.724 512.361 329.724C529.009 329.724 500.729 379.286 499.202 381.939H375.55Z" fill="#96D9C9"/>
<path d="M487.758 302.031C472.545 325.791 461.442 352.184 455.095 380.223L454.052 379.943C460.372 352.49 471.402 326.144 486.588 302.41C490.118 296.896 493.929 290.352 500.539 288.2C500.666 288.159 500.715 288.353 500.592 288.398C494.556 290.672 491.061 296.874 487.758 302.031Z" fill="#3C8F7C"/>
<path d="M458.762 381.207C475.763 358.09 496.428 336.722 521.002 318.141C521.249 317.956 521.58 318.384 521.333 318.574C498.026 336.49 477.406 357.645 460.054 381.552L458.762 381.207Z" fill="#3C8F7C"/>
<path d="M489.148 287.297C489.54 287.873 491.039 289.375 491.479 291.347C492.071 293.219 491.604 295.563 491.553 295.481C491.441 295.528 493.288 293.967 493.866 291.482C494.613 289.098 494.09 285.793 493.16 284.699C491.555 282.222 488.75 281.971 488.205 283.172C487.627 284.364 488.36 285.987 489.148 287.297Z" fill="#3C8F7C"/>
<path d="M492.788 308.504C492.22 308.102 490.747 306.573 488.783 306.093C486.923 305.466 484.571 305.887 484.651 305.938C484.604 306.05 486.2 304.233 488.697 303.706C491.094 303.006 494.388 303.594 495.464 304.545C497.908 306.199 498.104 309.008 496.893 309.528C495.689 310.082 494.082 309.318 492.788 308.504Z" fill="#3C8F7C"/>
<path d="M487.295 317.799C486.727 317.397 485.255 315.868 483.291 315.39C481.432 314.761 479.078 315.182 479.16 315.233C479.111 315.345 480.709 313.528 483.204 313.001C485.602 312.301 488.897 312.889 489.973 313.84C492.416 315.494 492.612 318.303 491.402 318.824C490.197 319.379 488.589 318.613 487.295 317.799Z" fill="#3C8F7C"/>
<path d="M506.886 339.36C506.318 338.956 504.847 337.427 502.881 336.949C501.021 336.321 498.669 336.741 498.751 336.792C498.702 336.905 500.298 335.088 502.795 334.561C505.192 333.861 508.486 334.449 509.562 335.4C512.006 337.054 512.202 339.863 510.991 340.383C509.787 340.938 508.18 340.173 506.886 339.36Z" fill="#3C8F7C"/>
<path d="M516.895 330.541C516.328 330.139 514.854 328.61 512.89 328.13C511.03 327.501 508.678 327.924 508.758 327.975C508.709 328.087 510.307 326.27 512.804 325.741C515.201 325.043 518.496 325.631 519.571 326.58C522.015 328.234 522.211 331.043 521 331.566C519.796 332.119 518.189 331.355 516.895 330.541Z" fill="#3C8F7C"/>
<path d="M481.464 297.815C481.942 298.321 483.659 299.568 484.404 301.448C485.284 303.202 485.192 305.59 485.129 305.517C485.025 305.582 486.603 303.747 486.782 301.203C487.144 298.731 486.107 295.551 485.016 294.616C483.04 292.423 480.231 292.619 479.882 293.889C479.501 295.159 480.48 296.645 481.464 297.815Z" fill="#3C8F7C"/>
<path d="M473.386 308.355C474.066 308.716 476.442 309.369 477.637 311.147C478.988 312.728 479.16 315.432 479.07 315.377C478.943 315.494 480.762 312.768 480.682 309.851C480.852 306.938 479.121 303.833 477.596 303.259C474.773 301.661 471.159 303.086 470.863 304.656C470.522 306.236 471.972 307.473 473.386 308.355Z" fill="#3C8F7C"/>
<path d="M464.888 324.321C465.619 324.561 468.069 324.806 469.545 326.358C471.143 327.689 471.768 330.326 471.67 330.288C471.563 330.422 472.899 327.432 472.331 324.57C472.006 321.669 469.779 318.899 468.179 318.588C465.127 317.49 461.806 319.501 461.777 321.097C461.706 322.712 463.343 323.69 464.888 324.321Z" fill="#3C8F7C"/>
<path d="M490.04 335.442C490.573 335.775 492.468 336.441 493.337 337.955C494.346 339.317 494.331 341.528 494.262 341.477C494.152 341.565 495.787 339.452 495.889 337.076C496.193 334.716 494.962 332.09 493.754 331.535C491.547 330.076 488.528 331.029 488.197 332.288C487.829 333.554 488.938 334.644 490.04 335.442Z" fill="#3C8F7C"/>
<path d="M503.136 291.036C502.817 290.772 502.013 289.803 500.872 289.433C499.798 288.98 498.39 289.127 498.435 289.162C498.402 289.225 499.425 288.22 500.925 288.018C502.374 287.708 504.297 288.2 504.892 288.81C506.265 289.894 506.257 291.564 505.518 291.819C504.783 292.095 503.865 291.572 503.136 291.036Z" fill="#3C8F7C"/>
<path d="M500.086 284.249C500.1 284.664 500.376 285.891 499.972 287.019C499.676 288.146 498.7 289.173 498.7 289.118C498.628 289.106 500.049 288.906 501.125 287.842C502.256 286.885 503.04 285.06 502.92 284.217C502.899 282.467 501.572 281.452 500.919 281.883C500.251 282.298 500.104 283.343 500.086 284.249Z" fill="#3C8F7C"/>
<path d="M524.103 321.559C523.785 321.298 522.98 320.328 521.839 319.958C520.766 319.505 519.357 319.652 519.402 319.685C519.367 319.75 520.392 318.746 521.892 318.542C523.342 318.233 525.265 318.725 525.859 319.334C527.233 320.42 527.225 322.09 526.486 322.345C525.751 322.62 524.832 322.098 524.103 321.559Z" fill="#3C8F7C"/>
<path d="M520.423 314.716C520.472 315.126 520.847 316.328 520.537 317.486C520.333 318.633 519.445 319.738 519.441 319.68C519.369 319.674 520.77 319.36 521.756 318.213C522.801 317.163 523.434 315.283 523.246 314.452C523.083 312.709 521.676 311.807 521.06 312.289C520.429 312.758 520.37 313.811 520.423 314.716Z" fill="#3C8F7C"/>
<path d="M517.863 358.937C502.33 360.639 487.862 367.497 473.934 374.182C464.543 378.692 465.017 379.976 463.104 380.647C462.794 380.755 462.483 380.419 462.634 380.121C463.369 378.663 465.301 377.677 466.642 376.838C468.205 375.862 469.839 374.999 471.494 374.194C475.04 372.473 478.676 370.926 482.289 369.356C489.64 366.161 497.112 363.156 504.877 361.123C509.136 360.009 513.468 359.204 517.853 358.81C517.934 358.802 517.944 358.927 517.863 358.937Z" fill="#3C8F7C"/>
<path d="M503.863 354.119C503.963 354.758 504.628 356.608 504.218 358.435C503.975 360.237 502.658 362.017 502.65 361.929C502.536 361.923 504.702 361.344 506.165 359.488C507.731 357.785 508.597 354.809 508.25 353.525C507.882 350.816 505.631 349.499 504.7 350.291C503.744 351.063 503.72 352.71 503.863 354.119Z" fill="#3C8F7C"/>
<path d="M490.177 359.021C490.279 359.658 490.943 361.508 490.532 363.337C490.289 365.139 488.975 366.92 488.964 366.83C488.852 366.824 491.016 366.244 492.48 364.39C494.048 362.688 494.913 359.709 494.566 358.425C494.197 355.716 491.945 354.4 491.014 355.192C490.061 355.963 490.034 357.613 490.177 359.021Z" fill="#3C8F7C"/>
<path d="M476.273 365.219C476.373 365.856 477.037 367.705 476.628 369.534C476.385 371.337 475.069 373.117 475.06 373.027C474.946 373.023 477.112 372.441 478.576 370.588C480.141 368.885 481.007 365.907 480.66 364.623C480.293 361.916 478.039 360.597 477.11 361.389C476.155 362.161 476.13 363.81 476.273 365.219Z" fill="#3C8F7C"/>
<path d="M507.948 366.907C507.666 366.38 507.123 364.647 505.802 363.528C504.616 362.334 502.652 361.758 502.695 361.828C502.615 361.895 504.534 361.115 506.647 361.664C508.752 362.044 511.053 363.755 511.514 364.896C512.753 367.097 511.828 369.324 510.701 369.26C509.568 369.226 508.627 368.023 507.948 366.907Z" fill="#3C8F7C"/>
<path d="M493.713 371.945C493.433 371.418 492.888 369.685 491.567 368.566C490.381 367.372 488.417 366.796 488.46 366.866C488.381 366.933 490.3 366.153 492.415 366.702C494.519 367.082 496.818 368.793 497.279 369.934C498.518 372.135 497.594 374.362 496.467 374.298C495.334 374.264 494.395 373.061 493.713 371.945Z" fill="#3C8F7C"/>
<path d="M518.787 361.719C518.542 361.425 517.971 360.409 516.993 359.882C516.093 359.288 514.784 359.186 514.819 359.225C514.778 359.278 515.88 358.535 517.279 358.6C518.651 358.561 520.32 359.331 520.761 359.986C521.831 361.205 521.545 362.726 520.829 362.834C520.112 362.962 519.363 362.332 518.787 361.719Z" fill="#3C8F7C"/>
<path d="M517.146 355.028C517.089 355.405 517.136 356.571 516.579 357.532C516.119 358.508 515.058 359.282 515.068 359.229C515.005 359.206 516.334 359.264 517.491 358.476C518.681 357.792 519.702 356.261 519.735 355.473C520.008 353.874 518.969 352.727 518.302 353.011C517.624 353.276 517.316 354.205 517.146 355.028Z" fill="#3C8F7C"/>
<path d="M117.074 263.963C98.8214 247.686 89.436 224.314 84.7769 207.571C79.7189 189.396 78.9822 174.89 78.9752 174.745L77.9831 174.684C77.99 174.831 78.73 189.443 83.8187 207.74C88.521 224.647 98.0052 248.26 116.484 264.736L117.074 263.963Z" fill="#3C8F7C"/>
<path d="M81.0542 170.537C81.9538 174.722 81.2007 178.676 79.2826 181.53C76.275 179.315 73.9099 175.769 73.0102 171.585C72.1108 167.4 72.8638 163.445 74.7819 160.592C77.7896 162.804 80.1547 166.352 81.0542 170.537Z" fill="#3C8F7C"/>
<path d="M75.4558 182.455C78.6006 185.38 80.4389 189.224 80.7951 192.925C77.3429 193.08 73.5446 191.68 70.3999 188.754C67.2551 185.827 65.4168 181.985 65.0605 178.284C68.5128 178.127 72.311 179.529 75.4558 182.455Z" fill="#3C8F7C"/>
<path d="M73.9802 194.975C77.8883 196.202 81.0935 198.923 82.9904 202.228C80.1541 204.051 76.3544 204.574 72.4463 203.349C68.538 202.122 65.333 199.401 63.4362 196.094C66.2725 194.273 70.072 193.748 73.9802 194.975Z" fill="#3C8F7C"/>
<path d="M79.9991 210.037C83.0947 211.014 85.5699 213.511 86.972 216.665C84.625 218.637 81.5516 219.384 78.4558 218.408C75.3602 217.431 72.885 214.934 71.4828 211.78C73.8298 209.808 76.9033 209.061 79.9991 210.037Z" fill="#3C8F7C"/>
<path d="M85.2851 188.54C87.7214 186.087 90.9482 185.041 94.0716 185.378C94.2447 188.683 93.1048 192.033 90.6683 194.487C88.2321 196.939 85.0053 197.984 81.8817 197.649C81.7088 194.344 82.8487 190.992 85.2851 188.54Z" fill="#3C8F7C"/>
<path d="M88.109 199.336C90.5455 196.882 93.7723 195.837 96.8957 196.172C97.0688 199.479 95.9289 202.829 93.4924 205.281C91.0562 207.735 87.8294 208.78 84.7058 208.445C84.5329 205.138 85.6728 201.788 88.109 199.336Z" fill="#3C8F7C"/>
<path d="M106.074 286.034C89.2184 283.578 74.7936 273.592 65.6609 265.647C55.7462 257.024 49.7518 248.874 49.6924 248.793L49.092 249.138C49.1521 249.219 55.1893 257.43 65.1683 266.112C74.3898 274.137 88.9638 284.223 106.028 286.712L106.074 286.034Z" fill="#50BFA5"/>
<path d="M49.2864 245.549C51.4151 247.635 52.4942 250.224 52.4746 252.618C49.8767 252.485 47.1404 251.33 45.0117 249.244C42.8831 247.155 41.8038 244.569 41.8234 242.172C44.4215 242.307 47.1576 243.46 49.2864 245.549Z" fill="#50BFA5"/>
<path d="M50.6047 254.625C53.5555 255.119 56.0987 256.646 57.7259 258.661C55.7795 260.078 53.034 260.721 50.0831 260.227C47.1322 259.733 44.5889 258.204 42.9619 256.189C44.9083 254.774 47.654 254.131 50.6047 254.625Z" fill="#50BFA5"/>
<path d="M54.5514 262.469C57.2938 261.683 60.2012 262.034 62.5725 263.228C61.6226 265.376 59.6149 267.137 56.8727 267.925C54.1302 268.711 51.2229 268.36 48.8516 267.166C49.8014 265.018 51.8092 263.257 54.5514 262.469Z" fill="#50BFA5"/>
<path d="M63.8298 268.915C66.0041 268.295 68.4011 268.797 70.4264 270.091C69.8187 272.139 68.3188 273.753 66.1447 274.372C63.9704 274.993 61.5734 274.49 59.5479 273.196C60.1558 271.149 61.6555 269.536 63.8298 268.915Z" fill="#50BFA5"/>
<path d="M58.6537 254.39C59.1288 252.028 60.6033 250.183 62.5477 249.181C63.9167 251.034 64.5397 253.421 64.0647 255.781C63.5897 258.14 62.1149 259.988 60.1705 260.99C58.8015 259.137 58.1785 256.75 58.6537 254.39Z" fill="#50BFA5"/>
<path d="M64.4373 259.582C64.9126 257.22 66.3871 255.374 68.3315 254.37C69.7005 256.226 70.3233 258.612 69.8483 260.972C69.3732 263.332 67.8985 265.179 65.9543 266.182C64.5853 264.326 63.9623 261.942 64.4373 259.582Z" fill="#50BFA5"/>
<path d="M116.223 336.483C96.7799 343.865 75.377 339.966 60.8458 335.395C45.0709 330.433 33.7598 323.631 33.6471 323.563L33.2162 324.386C33.3293 324.455 44.723 331.31 60.6023 336.308C75.276 340.925 96.8994 344.861 116.584 337.388L116.223 336.483Z" fill="#96D9C9"/>
<path d="M31.2544 319.613C34.784 320.985 37.497 323.659 38.9234 326.776C36.0752 328.232 32.4623 328.45 28.9327 327.081C25.4031 325.709 22.6901 323.035 21.2637 319.917C24.1117 318.462 27.7248 318.243 31.2544 319.613Z" fill="#96D9C9"/>
<path d="M38.1431 330.548C41.5855 329.339 45.219 329.725 48.1699 331.317C46.9518 334.371 44.4151 336.925 40.9725 338.136C37.53 339.344 33.8965 338.956 30.9457 337.366C32.164 334.312 34.7006 331.758 38.1431 330.548Z" fill="#96D9C9"/>
<path d="M47.0882 338.24C49.5344 335.5 52.8452 334.134 56.0932 334.196C56.3784 337.574 55.3046 341.116 52.8582 343.853C50.4118 346.593 47.1012 347.959 43.8532 347.897C43.568 344.521 44.642 340.977 47.0882 338.24Z" fill="#96D9C9"/>
<path d="M59.6036 342.209C62.0498 339.472 65.3606 338.106 68.6085 338.167C68.8939 341.544 67.8199 345.086 65.3737 347.825C62.9272 350.563 59.6167 351.928 56.3686 351.869C56.0834 348.491 57.1572 344.949 59.6036 342.209Z" fill="#96D9C9"/>
<path d="M47.828 329.379C45.6752 326.576 44.7157 323.198 44.9437 320.134C47.779 320.464 50.6778 322.112 52.8305 324.915C54.9832 327.717 55.9428 331.096 55.7146 334.16C52.8795 333.829 49.9807 332.182 47.828 329.379Z" fill="#96D9C9"/>
<path d="M60.8297 333.447C58.6366 330.677 57.6249 327.311 57.8031 324.236C60.6374 324.518 63.5564 326.117 65.7497 328.887C67.943 331.657 68.9547 335.025 68.7765 338.1C65.942 337.818 63.023 336.219 60.8297 333.447Z" fill="#96D9C9"/>
<path d="M76.0517 343.297C76.6267 341.838 77.7691 340.823 79.1077 340.405C79.7497 341.754 79.8616 343.357 79.2865 344.816C78.7114 346.276 77.5691 347.29 76.2305 347.709C75.5883 346.36 75.4768 344.757 76.0517 343.297Z" fill="#96D9C9"/>
<path d="M157.954 380.515C157.954 380.515 182.727 282.539 174.512 272.695C163.159 259.089 153.794 304.223 152.875 300.389C144.197 264.187 141.886 217.865 113.891 212.964C97.9777 210.175 117.567 247.409 116.389 257.479C115.21 267.549 86.5319 234.115 69.1052 216.6C51.6783 199.084 42.6781 210.173 53.6891 232.198C64.3367 253.496 98.7816 276.77 91.6814 279.532C84.5813 282.294 41.4766 254.788 36.1981 266.547C29.726 280.963 94.3852 300.581 88.2965 303.821C82.2078 307.059 51.3045 296.392 52.1488 307.416C52.993 318.441 94.5357 318.029 93.8256 322.879C92.6761 330.731 65.2 312.958 63.9923 323.823C62.757 334.934 100.14 332.907 99.4922 341.575C99.12 346.556 91.0987 339.041 89.9168 345.941C87.2219 361.67 136.502 380.833 136.502 380.833L157.954 380.515Z" fill="#3C8F7C"/>
<path d="M176.843 381.113C176.843 381.113 153.267 344.966 141.922 338.142C129.834 330.87 139.037 352.642 139.037 352.642C139.037 352.642 114.335 323.247 107.468 329.219C100.601 335.192 106.833 342.108 106.833 342.108C106.833 342.108 84.6564 335.537 80.6703 343.676C74.5455 356.186 111.057 366.558 111.057 366.558C111.057 366.558 95.3832 366.391 98.2669 374.836C102.616 387.572 176.843 381.113 176.843 381.113Z" fill="#50BFA5"/>
<path d="M80.6703 343.676C84.6564 335.537 106.833 342.108 106.833 342.108C106.833 342.108 100.601 335.192 107.468 329.219C114.335 323.247 134.095 341.124 134.095 341.124C134.095 341.124 132.024 326.381 146.904 339.368C157.533 348.645 176.843 381.113 176.843 381.113L80.6703 343.676Z" fill="#96D9C9"/>
<path d="M148.225 290.354L149.283 289.631C130.088 260.561 124.229 226.047 122.693 202.212C121.027 176.347 123.952 157.121 123.982 156.931L122.671 156.549C122.641 156.743 119.694 176.096 121.366 202.116C122.911 226.153 128.825 260.974 148.225 290.354Z" fill="#96D9C9"/>
<path d="M127.76 152.403C127.802 158.241 125.776 163.069 122.542 165.966C119.257 161.789 117.156 156.151 117.114 150.312C117.072 144.472 119.098 139.644 122.332 136.747C125.617 140.924 127.718 146.562 127.76 152.403Z" fill="#96D9C9"/>
<path d="M117.363 165.53C120.635 170.692 121.978 176.49 121.449 181.465C116.958 180.187 112.437 176.731 109.165 171.568C105.893 166.405 104.55 160.608 105.079 155.631C109.571 156.909 114.092 160.365 117.363 165.53Z" fill="#96D9C9"/>
<path d="M112.119 181.212C116.828 184.487 120.232 189.41 121.794 194.532C117.652 195.688 112.615 194.741 107.906 191.464C103.197 188.19 99.7925 183.266 98.2306 178.144C102.372 176.988 107.409 177.936 112.119 181.212Z" fill="#96D9C9"/>
<path d="M118.26 208.591C120.314 209.816 121.875 211.782 122.676 213.893C120.99 214.522 118.869 214.291 116.815 213.064C114.761 211.839 113.201 209.873 112.4 207.763C114.086 207.134 116.207 207.364 118.26 208.591Z" fill="#96D9C9"/>
<path d="M119.93 218.732C121.984 219.959 123.544 221.923 124.345 224.036C122.659 224.663 120.539 224.432 118.485 223.207C116.431 221.982 114.87 220.016 114.069 217.903C115.755 217.277 117.876 217.507 119.93 218.732Z" fill="#96D9C9"/>
<path d="M128.406 177.679C132.201 175.529 136.639 175.551 140.575 177.33C139.915 181.712 137.551 185.589 133.757 187.739C129.962 189.89 125.524 189.866 121.588 188.09C122.248 183.707 124.612 179.83 128.406 177.679Z" fill="#96D9C9"/>
<path d="M129.164 192.958C132.959 190.808 137.396 190.831 141.332 192.609C140.673 196.99 138.309 200.868 134.514 203.018C130.719 205.168 126.282 205.145 122.346 203.367C123.005 198.984 125.369 195.108 129.164 192.958Z" fill="#96D9C9"/>
<path d="M128.411 214.826C130.881 213.428 133.769 213.442 136.331 214.599C135.902 217.451 134.364 219.974 131.894 221.375C129.424 222.773 126.535 222.759 123.973 221.601C124.403 218.75 125.941 216.226 128.411 214.826Z" fill="#96D9C9"/>
<path d="M399.269 301.032C401.498 301.396 401.368 301.759 401.653 301.798C401.992 301.843 406.018 299.822 406.018 299.822C406.018 299.822 417.926 293.944 418.556 293.604L427.151 282.79L433.775 285.846C433.775 285.846 424.109 297.341 423.497 297.848C422.886 298.354 405.814 304.341 404.33 304.919C404.33 304.919 402.831 306.287 401.864 307.114C400.894 307.938 399.6 308.267 399.291 308.455C399.245 308.483 398.177 309.047 396.666 309.375C395.366 309.659 396.45 308.775 396.45 308.775C396.45 308.775 398.753 307.804 398.638 307.628C398.55 307.491 397.328 308.1 395.893 308.428C395.523 308.512 395.158 308.596 394.823 308.667C393.941 308.857 393.555 308.353 394.439 308.002C394.751 307.879 395.276 307.685 395.672 307.604C396.099 307.514 396.458 307.289 396.803 307.159C397.489 306.897 397.993 306.716 397.967 306.693C397.93 306.662 398.028 306.509 397.632 306.587C397.158 306.681 396.199 307.107 395.488 307.187C395.086 307.234 394.251 307.381 394.251 307.381C394.251 307.381 392.773 307.522 392.763 307.316C392.743 306.863 393.651 306.611 394.21 306.622C394.562 306.442 395.445 306.313 395.445 306.313C395.445 306.313 397.158 305.636 397.058 305.382C397.019 305.282 395.982 305.438 394.882 305.513C393.718 305.593 392.875 305.593 392.812 305.366C392.714 305.009 393.641 304.874 393.641 304.874C393.641 304.874 394.457 304.756 394.725 304.695C395.037 304.623 395.958 304.333 395.958 304.333C395.958 304.333 399.11 303.176 398.995 302.945C398.881 302.712 398.361 302.224 398.138 302.226C397.916 302.226 397.52 302.449 397.297 302.451C397.075 302.451 396.597 302.408 396.564 302.128C396.529 301.849 397.765 301.271 397.765 301.271C397.765 301.271 398.624 300.928 399.269 301.032Z" fill="#F8A492"/>
<path d="M421.169 289.488C421.169 289.488 423.315 291.435 424.207 292.076C424.948 292.609 428.561 294.351 428.561 294.351C428.561 294.351 432.154 288.847 433.726 286.087C435.633 282.737 436.953 277.758 436.502 277.623C435.237 277.244 433.497 277.013 431.891 277.75C426.33 280.302 421.169 289.488 421.169 289.488Z" fill="#355389"/>
<path d="M401.351 303.909C400.396 304.06 399.42 303.879 398.998 303.005C398.904 304.042 400.473 304.556 401.351 303.909Z" fill="#FE875E"/>
<path d="M134.859 265.302C134.991 262.097 134.521 258.931 133.093 255.948C131.865 253.38 128.825 251.923 126.053 251.92C117.25 251.908 116.131 263.589 110.527 268.095C108.815 269.47 106.901 270.591 105.281 272.077C99.2988 277.559 101.993 287.706 107.487 292.514C111.299 295.848 117.29 297.744 121.988 295.135C124.441 293.775 126.302 291.514 127.629 289.033C129.511 285.516 130.725 281.458 132.064 277.708C133.489 273.717 134.683 269.562 134.859 265.302Z" fill="#13375B"/>
<path d="M136.297 280.822C133.547 272.481 129.918 272.612 129.918 272.612L132.85 290.372C134.548 289.909 136.759 288.876 138.455 288.396C137.893 285.758 136.974 282.876 136.297 280.822Z" fill="#F7CC7F"/>
<path d="M150.192 309.27L140.14 301.603C140.14 301.603 139.129 294.447 137.775 288.101C136.079 288.578 134.548 289.909 132.85 290.373L135.406 304.589L148.581 311.387L152.302 316.168L153.149 311.258L150.192 309.27Z" fill="#F48C7F"/>
<path d="M241.821 297.292C244.943 297.292 247.87 298.115 250.403 299.554C250.724 299.736 251.071 299.901 251.44 300.054C259.165 303.226 267.617 297.351 267.617 289V247.933H226.55C218.198 247.933 212.323 239.479 215.495 231.757C215.648 231.385 215.814 231.038 215.995 230.718C217.435 228.186 218.257 225.257 218.257 222.135C218.257 212.245 210.01 204.279 200.017 204.743C190.974 205.161 183.692 212.59 183.439 221.639C183.349 224.857 184.134 227.884 185.573 230.503C185.752 230.828 185.916 231.181 186.067 231.557C189.214 239.408 183.245 247.933 174.787 247.933H134.073V341.509C134.073 363.583 151.967 381.476 174.041 381.476H267.617V340.545C267.617 332.153 259.139 326.241 251.365 329.403C250.993 329.554 250.644 329.72 250.324 329.899C247.554 331.455 244.318 332.274 240.876 332.092C232.008 331.622 224.847 324.416 224.428 315.548C223.957 305.547 231.925 297.292 241.821 297.292Z" fill="#FE4400"/>
<path d="M330.829 274.512C330.974 271.393 331.933 268.507 333.489 266.045C333.685 265.732 333.866 265.393 334.036 265.032C337.565 257.465 332.092 248.748 323.751 248.358L282.727 246.439L280.81 287.463C280.42 295.804 271.701 301.277 264.134 297.748C263.773 297.578 263.434 297.397 263.121 297.201C260.659 295.645 257.773 294.686 254.654 294.541C244.773 294.079 236.432 301.945 236.428 311.948C236.424 321.001 243.503 328.622 252.533 329.298C255.742 329.537 258.804 328.894 261.484 327.579C261.819 327.416 262.18 327.269 262.562 327.136C270.552 324.358 278.787 330.719 278.393 339.168L276.491 379.837L369.965 384.208C392.014 385.238 410.725 368.199 411.756 346.15L416.125 252.675L375.24 250.765C366.858 250.373 360.556 258.565 363.35 266.477C363.485 266.857 363.634 267.212 363.798 267.541C365.222 270.381 365.888 273.651 365.547 277.081C364.663 285.916 357.132 292.734 348.252 292.738C338.241 292.742 330.365 284.397 330.829 274.512Z" fill="#F7CC7F"/>
<path d="M216.52 209.92C216.677 213.037 216.004 216.003 214.693 218.604C214.528 218.933 214.379 219.288 214.246 219.665C211.466 227.539 217.757 235.686 226.096 235.266L267.112 233.204L265.05 192.188C264.632 183.849 272.777 177.555 280.651 180.336C281.029 180.468 281.384 180.617 281.712 180.783C284.313 182.093 287.279 182.767 290.399 182.612C300.277 182.114 307.818 173.477 306.852 163.521C305.981 154.51 298.197 147.61 289.145 147.812C285.926 147.883 282.943 148.82 280.4 150.388C280.083 150.584 279.74 150.766 279.371 150.935C271.689 154.471 262.876 148.939 262.452 140.491L260.406 99.8286L166.949 104.528C144.903 105.636 127.929 124.407 129.038 146.452L133.737 239.91L174.617 237.854C182.998 237.434 188.476 228.668 184.928 221.064C184.759 220.7 184.576 220.362 184.38 220.049C182.688 217.361 181.708 214.17 181.717 210.724C181.74 201.844 188.577 194.33 197.414 193.466C207.377 192.492 216.024 200.035 216.52 209.92Z" fill="#50BFA5"/>
<path d="M300.471 187.283C297.348 187.283 294.42 186.46 291.887 185.021C291.568 184.839 291.221 184.674 290.85 184.521C283.127 181.349 274.674 187.224 274.674 195.575V236.642H315.743C324.092 236.642 329.967 245.096 326.795 252.82C326.644 253.19 326.476 253.537 326.295 253.857C324.856 256.389 324.033 259.318 324.033 262.44C324.033 272.33 332.28 280.296 342.275 279.832C351.316 279.414 358.6 271.985 358.851 262.936C358.941 259.718 358.157 256.691 356.718 254.072C356.538 253.747 356.375 253.394 356.224 253.018C353.076 245.167 359.045 236.642 367.505 236.642H408.219V143.066C408.219 120.992 390.324 103.099 368.25 103.099H274.674V144.03C274.674 152.422 283.154 158.334 290.925 155.172C291.297 155.021 291.646 154.855 291.968 154.674C294.737 153.12 297.974 152.301 301.416 152.483C310.282 152.953 317.443 160.157 317.862 169.027C318.335 179.028 310.366 187.283 300.471 187.283Z" fill="#404099"/>
<path d="M107.342 368.492C107.342 368.492 106.722 372.804 105.655 374.194C105.297 374.661 104.643 375.251 104.214 376.097C103.545 377.409 103.915 379.365 104.408 380.443C104.661 380.996 104.39 380.994 104.966 381.174C106.673 381.7 108.488 380.812 109.215 379.173C109.621 378.258 109.977 377.038 110.048 375.5C110.231 371.585 111.445 369.595 111.445 369.595L107.342 368.492Z" fill="#F7A491"/>
<path d="M126.008 370.465C126.008 370.465 126.391 375.325 126.08 376.905C125.914 377.752 124.987 379.494 125.412 380.29C125.837 381.086 126.323 381.284 126.323 381.284L137.341 381.464C137.942 381.472 137.545 381.086 137.061 380.729C136.269 380.145 135.63 379.759 133.1 378.532C132.934 378.453 132.334 378.069 132.117 377.936C131.568 377.601 131.016 377.071 130.541 376.542C129.75 375.658 129.681 371.377 129.681 371.377L126.008 370.465Z" fill="#F7A491"/>
<path d="M134.62 305.842C134.62 305.842 136.007 313.734 135.096 318.909C134.186 324.084 129.813 372.053 129.813 372.053L124.954 372.326C124.954 372.326 123.935 352.29 124.117 349.503C124.3 346.717 125.742 342.054 125.742 342.054L125.258 325.876L131.39 304.623L134.62 305.842Z" fill="#355389"/>
<path d="M120.339 304.18C120.339 304.18 116.513 309.953 115.602 314.73C114.691 319.507 116.27 334.187 114.518 340.448C113.569 343.835 109.974 349.069 109.427 353.448C108.881 357.827 106.736 369.295 106.736 369.295L111.593 370.261L122.881 341.616L131.735 315.724L134.003 302.39L120.339 304.18Z" fill="#466EB6"/>
<path d="M123.436 271.34C123.436 271.34 118.37 271.018 116.366 273.206C114.362 275.397 120.812 292.716 121.176 295.503C121.54 298.289 119.319 305.697 119.319 305.697C119.319 305.697 131.219 308.098 134.62 305.842C134.62 305.842 134.984 285.804 134.62 283.813C134.256 281.823 131.219 273.729 130.49 272.933C129.761 272.137 123.436 271.34 123.436 271.34Z" fill="#F7CC7F"/>
<path d="M125.122 264.557C125.122 264.557 125.096 264.706 125.049 264.959C124.823 266.18 123.954 270.23 123.366 271.342C122.656 272.69 125.797 276.979 128.82 276.456C129.72 276.299 128.059 272.514 128.139 272.112C128.292 271.344 128.499 270.297 128.711 269.223C128.831 268.617 128.952 268.003 129.066 267.425C129.389 265.784 129.653 264.442 129.653 264.442L125.122 264.557Z" fill="#F7A491"/>
<path d="M125.049 264.959C125.096 264.705 125.122 264.556 125.122 264.556L129.653 264.442C129.653 264.442 129.389 265.783 129.066 267.425C128.953 267.998 128.832 268.611 128.713 269.213C128.014 269.109 127.283 268.768 126.55 268.125C125.751 267.425 125.228 266.584 124.912 265.683C124.968 265.395 125.014 265.148 125.049 264.959Z" fill="#F47458"/>
<path d="M128.172 254.235C128.172 254.235 126.036 253.988 124.698 255.723C123.359 257.458 121.917 262.823 125.241 265.74C128.567 268.657 131.852 265.354 132.339 261.853C132.826 258.352 133.015 254.108 128.172 254.235Z" fill="#F7A491"/>
<path d="M133.323 261.803C132.926 262.576 132.26 263.005 131.835 262.76C131.41 262.515 131.387 261.688 131.784 260.915C132.181 260.143 132.847 259.714 133.272 259.959C133.697 260.204 133.719 261.029 133.323 261.803Z" fill="#F7A491"/>
<path d="M128.41 253.662C128.41 253.662 125.558 258.764 123.517 259.001C121.476 259.235 121.208 261.946 121.208 261.946C121.208 261.946 121.938 255.7 123.958 254.495C125.978 253.291 128.41 253.662 128.41 253.662Z" fill="#13375B"/>
<path d="M109.546 378.312C106.899 378.795 105.137 377.244 104.221 376.082C103.548 377.397 103.22 379.361 103.715 380.443C104.151 381.396 105.425 381.368 106.427 381.406C107.488 381.445 108.308 380.855 108.834 379.928C109.08 379.498 109.334 378.959 109.546 378.312Z" fill="#F47458"/>
<path d="M132.116 377.936C129.202 378.685 127.048 378.175 125.843 377.689C125.532 378.571 125.12 379.679 125.338 380.316C125.606 381.098 125.987 381.275 126.323 381.284C128.985 381.355 136.073 381.449 138.102 381.476C138.386 381.48 138.542 381.149 138.36 380.93C137.857 380.328 132.333 378.068 132.116 377.936Z" fill="#F47458"/>
<path d="M124.052 260.282C124.218 261.188 123.884 262.019 123.306 262.137C122.729 262.256 122.126 261.619 121.96 260.712C121.794 259.806 122.128 258.975 122.705 258.857C123.283 258.736 123.886 259.375 124.052 260.282Z" fill="#F7A491"/>
<path d="M127.385 263.419L129.96 263.535C129.96 263.535 129.857 264.511 128.723 264.493C127.34 264.47 127.385 263.419 127.385 263.419Z" fill="white"/>
<path d="M347.031 58.0297C347.354 58.042 348.232 58.3359 349.518 60.7652C351.159 63.8681 353.558 73.2382 353.558 73.2382L346.397 75.9043L345.476 73.9486L343.961 58.8912C343.961 58.8912 346.944 58.0256 347.031 58.0297Z" fill="#DD513A"/>
<path d="M337.565 56.6781C339.615 56.6802 344.68 57.2783 347.031 58.0295C347.031 58.0295 348.76 72.8767 345.476 84.1596C344.743 86.6848 346.084 94.6279 346.084 94.6279L324.866 94.3483C324.866 94.3483 327.381 75.1447 326.434 72.0418C325.486 68.9409 325.464 58.1296 325.464 58.1296C325.464 58.1296 325.609 58.1071 330.231 57.3069C332.386 56.9353 335.381 56.674 337.565 56.6781Z" fill="#F47458"/>
<path d="M335.093 122.187C335.093 122.187 335.563 127.605 336.426 129.105C337.29 130.605 336.381 133.155 336.336 133.506C336.29 133.855 334.52 134.356 331.702 134.055C328.885 133.755 328.93 133.106 329.159 132.055C329.385 131.006 330.884 129.654 330.976 128.654C331.066 127.654 330.112 124.055 330.112 124.055L335.093 122.187Z" fill="#F7A491"/>
<path d="M343.69 90.1566C343.69 90.1566 358.337 89.3441 361.609 91.3243C364.879 93.3045 359.284 103.026 359.284 103.026C359.284 103.026 349.093 102.556 329.13 103.71C324.402 103.981 323.994 91.3835 324.878 90.3404C325.762 89.2972 343.69 90.1566 343.69 90.1566Z" fill="#E0973F"/>
<path d="M331.351 134.475C328.45 134.167 328.81 132.742 329.043 131.66C329.189 130.983 330.022 130.184 330.518 129.431C330.778 129.637 331.198 130.001 332.458 130.374C333.766 130.76 335.559 129.995 336.702 129.517C337.108 131.032 337.126 132.965 337.088 133.257C337.043 133.618 334.25 134.786 331.351 134.475Z" fill="#DD513A"/>
<path d="M332.952 100.636C333.538 105.063 336.434 127.109 336.434 127.109L329.712 127.941C329.712 127.941 321.444 99.1677 321.869 94.7665C322.292 90.3672 325.386 89.9957 325.386 89.9957C325.386 89.9957 331.402 88.9137 332.952 100.636Z" fill="#F7CC7F"/>
<path d="M325.233 59.7788C327.215 59.0357 328.187 76.9103 328.455 84.2675C331.968 84.6064 338.092 84.2696 339.615 84.1553C340.334 84.1022 341.987 83.4959 342.7 83.404C343.43 83.3081 344.094 83.257 344.453 83.3203C344.584 83.3428 348.246 84.8412 348.558 85.1698C348.948 85.5761 349.998 86.6029 349.82 87.0479C349.644 87.4909 347.801 85.8108 347.801 85.8108L346.901 85.3046C348.021 86.3988 350.159 87.842 349.853 88.3667C349.55 88.8791 347.623 87.4154 346.247 86.4192C347.427 87.4827 348.891 89.3894 348.554 89.6854C348.25 89.9528 346.584 87.7461 344.804 87.1112C344.145 86.8765 343.485 87.5277 342.967 87.6073C342.585 87.6644 341.997 87.7869 341.622 87.6808L339.695 87.1357C339.037 87.1949 339.021 87.5828 338.357 87.7236C337.588 87.8869 336.324 88.0605 335.344 88.2993C329.696 89.6793 327.814 90.3203 326.084 90.3203C320.848 90.3162 320.544 61.5385 325.233 59.7788Z" fill="#F7A491"/>
<path d="M321.467 76.5617C321.095 69.0248 321.15 59.7363 325.376 58.1522C327.042 57.5255 329.982 61.2858 329.453 76.7148C327.197 76.9005 323.886 77.0516 321.467 76.5617Z" fill="#DD513A"/>
<path d="M354.754 126.821C354.754 126.821 354.166 128.703 355.217 129.946C356.267 131.189 360.631 132.41 361.205 133.084C361.779 133.757 361.734 134.331 361.734 134.331L349.483 133.994L349.618 130.293L350.181 127.635L354.754 126.821Z" fill="#F7A491"/>
<path d="M355.979 130.565C355.979 130.565 352.831 131.838 351.31 131.085C349.789 130.332 349.836 130.122 349.395 130.403C348.956 130.685 348.799 134.153 348.799 134.153L362.573 134.558C363.532 134.535 364.016 133.829 363.238 133.225C362.703 132.81 362.087 132.533 361.736 132.332C360.658 131.714 355.979 130.565 355.979 130.565Z" fill="#DD513A"/>
<path d="M354.289 93.6292C355.236 91.6347 357.39 89.0421 361.178 90.6038C364.792 92.094 365.761 95.7563 364.622 99.5064C363.481 103.256 355.975 125.304 355.714 128.335L349.72 128.376C349.72 128.376 350.81 110.918 351.078 106.698C351.335 102.638 352.649 97.0771 354.289 93.6292Z" fill="#F7CC7F"/>
<path d="M364.018 73.3231H343.984C343.455 73.3231 342.977 73.6436 342.775 74.1356L336.608 89.2318H325.562C325.254 89.2318 325.005 89.4829 325.005 89.7932C325.005 90.1014 325.254 90.3525 325.562 90.3525H356.998C357.861 90.3525 358.645 89.8442 358.998 89.0522L365.21 75.1706C365.598 74.303 364.965 73.3231 364.018 73.3231Z" fill="black"/>
<path d="M353.231 82.1132C353.096 82.7909 352.506 83.2441 351.914 83.1257C351.325 83.0073 350.953 82.3602 351.088 81.6825C351.224 81.0047 351.814 80.5515 352.406 80.6699C352.996 80.7883 353.368 81.4355 353.231 82.1132Z" fill="white"/>
<path d="M342.328 38.5435C341.724 38.3393 341.13 38.1087 340.556 37.8331C339.907 37.5207 339.066 37.1533 338.535 37.0716C337.416 36.8981 335.495 37.0145 334.434 38.1638C333.113 39.5989 330.765 38.423 331.239 45.9313C331.774 54.4297 336.5 53.4968 336.614 53.3519C336.728 53.209 340.828 47.9156 340.828 47.9156C340.828 47.9156 342.261 51.0512 342.261 50.9369C342.261 50.8246 349.579 40.985 342.328 38.5435Z" fill="#0E2E35"/>
<path d="M338.739 53.9811L339.148 57.0167C339.148 57.0167 340.062 61.3914 338.886 62.2345C337.71 63.0776 333.887 56.8922 333.887 56.8922L334.291 49.1981L338.739 53.9811Z" fill="#F7A491"/>
<path d="M334.16 51.69C335.132 54.3152 337.445 55.928 339.086 56.5547L338.739 53.9805L334.291 49.1974L334.16 51.69Z" fill="#F47458"/>
<path d="M338.498 40.8241C340.989 40.424 343.224 42.4266 343.161 44.9192C343.134 46.0032 343.047 47.3566 342.82 48.8142C342.279 52.3193 339.886 55.4059 338.306 55.1303C336.724 54.8547 332.746 51.8314 333.446 46.8442C333.879 43.7637 335.885 41.2467 338.498 40.8241Z" fill="#F7A491"/>
<path d="M334.544 47.4382C334.411 48.2098 333.793 48.7447 333.164 48.6365C332.537 48.5262 332.135 47.8118 332.27 47.0422C332.403 46.2705 333.019 45.7356 333.648 45.8438C334.277 45.9541 334.677 46.6686 334.544 47.4382Z" fill="#F7A491"/>
<path d="M333.648 45.844C333.648 45.844 335.561 46.3197 336.269 45.0908C336.98 43.8598 339.517 41.208 342.74 42.3063C345.966 43.4066 339.903 39.632 339.646 39.632C339.386 39.632 336.292 39.6096 336.292 39.6096C336.292 39.6096 333.905 41.5734 333.819 41.7898C333.732 42.0041 333.044 44.3558 333.044 44.3558L333.648 45.844Z" fill="#0E2E35"/>
<path d="M337.147 50.9754L340.625 51.6388C340.625 51.6388 340.293 52.9494 338.756 52.7024C336.879 52.4003 337.147 50.9754 337.147 50.9754Z" fill="white"/>
<path d="M278.299 293.183C278.432 293.643 278.507 293.794 278.677 294.102C279.767 296.088 282.298 298.922 282.298 298.922L284.258 294.51C284.258 294.51 283.938 293.124 283.384 291.144C281.494 291.638 279.691 291.924 278.299 293.183Z" fill="#F8A492"/>
<path d="M289.525 289.358C289.525 289.358 278.603 294.061 278.25 293.971C278.024 293.912 273.771 286.796 273.724 280.102C273.704 277.011 276.915 273.292 280.496 274.029C282.3 274.398 282.272 274.901 284.94 278.777C287.608 282.654 289.525 289.358 289.525 289.358Z" fill="#13375B"/>
<path d="M298.846 373.674L298.587 377.971C298.491 378.516 298.115 379.861 298.115 380.358C298.115 382.217 306.946 378.777 304.968 377.953C304.789 377.879 303.85 377.316 303.79 376.683C303.701 375.707 303.47 373.733 303.47 373.733L298.846 373.674Z" fill="#F7A491"/>
<path d="M304.946 377.937C304.946 377.937 302.872 378.504 301.81 378.647C300.749 378.79 299.348 377.592 298.597 377.916C297.77 378.271 297.803 381.476 297.803 381.476C297.803 381.476 308.92 382.389 312.048 381.446C313.287 381.07 309.184 379.261 304.946 377.937Z" fill="#DD513A"/>
<path d="M280.782 373.674L280.52 377.971C280.426 378.516 280.051 379.861 280.051 380.358C280.051 382.217 288.882 378.777 286.902 377.953C286.724 377.879 285.507 376.893 285.448 376.26C285.356 375.287 285.405 373.733 285.405 373.733L280.782 373.674Z" fill="#F7A491"/>
<path d="M286.881 377.937C286.881 377.937 284.807 378.504 283.746 378.647C282.684 378.79 281.284 377.592 280.532 377.916C279.706 378.272 279.673 381.477 279.673 381.477C279.673 381.477 290.842 382.54 293.983 381.446C295.202 381.019 291.119 379.262 286.881 377.937Z" fill="#DD513A"/>
<path d="M283.48 295.561L291.258 284.664C291.291 284.57 291.362 284.374 291.47 284.076C291.862 282.994 292.677 280.744 293.387 278.507L293.393 278.483C293.618 277.701 294.09 276.337 294.547 275.016C295.055 273.548 295.686 271.728 295.708 271.417C295.69 271.364 295.653 271.268 295.604 271.142C295.318 270.403 294.933 268.639 294.796 267.873C294.71 267.385 294.622 266.197 295.204 266.197C296.115 266.197 295.682 267.383 296.102 268.122C296.255 267.628 296.568 266.646 296.733 265.654L296.886 263.337C296.915 263.164 296.729 261.886 297.37 261.886H297.401C297.974 261.929 297.962 263.286 298.201 265.585C298.276 265.32 298.352 265.001 298.409 264.709C298.403 264.552 298.517 263.86 298.603 263.497C298.489 262.856 298.556 261.845 299.238 261.941C299.579 261.988 299.55 263.399 299.55 263.399C299.548 263.59 299.528 265.081 299.538 265.377C299.607 264.877 299.881 262.743 300.416 262.743C300.859 262.743 300.896 263.317 300.885 263.772C300.881 264.04 300.602 266.35 300.587 266.62C300.796 266.269 301.043 264.234 301.251 264.234C302.114 264.234 301.802 267.128 301.484 267.882C301.455 267.959 301.422 268.11 301.386 268.286C301.277 268.802 301.098 269.666 300.644 270.439C300.101 271.368 299.352 272.846 299.238 273.073C299.154 273.534 298.893 275.194 298.566 277.282C298.425 278.174 298.272 279.154 298.113 280.169L298.105 280.167C298.074 280.387 297.913 281.085 297.297 283.704C296.456 287.289 296.368 287.444 296.331 287.51C295.966 288.157 287.579 299.544 287.222 300.03L287.012 300.315L283.48 295.561Z" fill="#F7A491"/>
<path d="M297.946 270.149C297.946 270.149 297.315 268.535 296.192 268.531C296.192 268.531 296.819 268.304 297.358 268.731C297.897 269.157 297.946 270.149 297.946 270.149Z" fill="#F47458"/>
<path d="M281.602 267.031L280.6 273.361C280.6 273.361 284.415 276.426 286.638 275.778C288.504 275.237 287.226 272.798 287.226 272.798C287.226 272.798 286.232 269.417 286.536 267.645C286.84 265.873 281.602 267.031 281.602 267.031Z" fill="#F7A491"/>
<path d="M282.321 268.943C283.276 269.397 285.167 270.011 286.638 270.162C286.498 269.274 286.418 268.337 286.536 267.645C286.677 266.828 285.636 266.635 284.476 266.663C282.956 266.792 281.602 267.031 281.602 267.031L281.408 268.247C281.698 268.551 282.002 268.794 282.321 268.943Z" fill="#FE875E"/>
<path d="M276.787 259.726C276.629 259.726 278.295 266.799 280.873 268.016C283.45 269.233 287.294 268.6 288.014 266.693C288.812 264.587 285.903 257.37 282.278 256.454C278.652 255.537 276.787 259.726 276.787 259.726Z" fill="#F7A491"/>
<path d="M279.769 253.227C277.711 254.415 276.766 256.177 276.448 256.898C275.482 257.357 274.312 258.347 273.751 261.021C273.061 264.306 275.515 266.839 278.116 267.601C280.716 268.362 281.118 270.083 281.118 270.083L281.414 268.231C281.414 268.231 280.835 266.619 279.965 265.81C279.095 265.004 280.377 263.828 280.49 262.869C280.577 262.13 280.032 260.695 280.151 259.482C280.151 259.482 281.596 257.292 283.021 256.751C285.45 255.828 282.411 251.704 279.769 253.227Z" fill="#13375B"/>
<path d="M280.865 264.099C281.202 264.915 281.063 265.728 280.557 265.912C280.051 266.093 279.367 265.581 279.03 264.764C278.693 263.948 278.83 263.135 279.338 262.952C279.845 262.768 280.528 263.282 280.865 264.099Z" fill="#F7A491"/>
<path d="M290.466 295.734L305.468 293.289C305.468 293.289 303.762 288.992 303.151 288.992C302.541 288.992 291.807 293.679 291.807 293.679L290.954 295.391L290.466 295.734Z" fill="#F8A492"/>
<path d="M282.782 306.021C282.782 306.021 281.286 313.256 281.894 318.743C282.504 324.228 282.553 343.716 282.553 343.716L280.224 374.896L285.746 375.017C285.746 375.017 292.295 343.85 292.173 344.651C292.052 345.451 294.369 322.708 294.369 322.708L286.563 305.335L282.782 306.021Z" fill="#184655"/>
<path d="M284.246 305.678C284.246 305.678 283.27 312.193 284.489 315.05C285.71 317.908 294.951 345.943 295.073 348.227C295.196 350.514 298.268 375.778 298.268 375.778L304.689 375.599L306.079 347.509L303.17 312.205L300.346 303.278L284.246 305.678Z" fill="#13375B"/>
<path d="M280.6 273.362C280.6 273.362 282.184 274.401 283.66 274.28C285.138 274.162 287.226 272.798 287.226 272.798L286.934 271.814C286.934 271.814 283.115 271.257 283.019 271.318C282.923 271.377 280.6 273.362 280.6 273.362Z" fill="#F7A491"/>
<path d="M297.476 288.78C297.476 288.78 303.151 294.137 305.713 293.222C308.275 292.308 309.335 289.182 303.084 284.609C297.49 280.516 297.476 288.78 297.476 288.78Z" fill="#F8A492"/>
<path d="M301.322 295.392C300.479 290.807 294.369 276.535 293.881 273.906C293.645 272.628 290.348 272.6 287.21 272.767C283.895 272.943 280.6 273.361 280.6 273.361C280.6 273.361 277.664 273.845 276.374 275.053C275.082 276.264 274.739 279.61 276.595 285.963C278.06 290.978 279.877 293.732 280.777 297.384C280.959 298.609 281.114 299.818 281.323 301.23C281.651 306.693 281.318 313.908 281.318 313.908C281.318 313.908 297.297 317.223 303.274 312.193C303.274 312.193 302.186 300.091 301.322 295.392Z" fill="#355389"/>
<path d="M305.395 285.532C305.395 285.532 299.126 290.707 298.76 290.707C298.525 290.707 289.813 284.299 287.802 279.034C286.691 276.123 289.023 272.867 291.685 272.877C293.532 272.886 294.353 273.361 298.011 276.446C301.671 279.532 305.395 285.532 305.395 285.532Z" fill="#466EB6"/>
<path d="M195.101 54.5119C196.129 52.0397 197.174 49.5614 199.84 48.31C201.997 47.2975 204.251 47.6792 206.168 49.1205C211.6 53.2033 206.866 57.7046 213.05 65.4497C214.971 67.8565 217.296 69.8 218.447 72.6192C220.058 76.5672 218.139 78.4616 215.062 80.352C200.347 89.3995 192.632 70.8268 192.909 66.5766C193.115 63.4165 194.44 56.1042 195.101 54.5119Z" fill="#13375B"/>
<path d="M179.828 102.652C180.449 102.554 181.956 101.474 182.488 101.376C182.9 101.301 183.792 101.166 184.171 101.109C184.637 99.3696 187.001 89.8954 187.265 87.1171C187.552 84.108 189.68 71.09 189.68 71.09L195.19 72.0923C195.19 72.0923 192.902 82.1075 192.269 86.9619C191.726 91.1325 187.149 100.511 186.568 101.501C186.567 101.523 186.567 101.548 186.565 101.572C186.476 103.044 185.767 102.554 185.767 102.554L184.615 102.848C184.615 102.848 180.538 103.24 180.272 103.338C180.006 103.436 179.208 102.75 179.828 102.652Z" fill="#F7A491"/>
<path d="M194.484 63.4815C190.589 64.8023 188.375 75.3911 188.375 75.3911C188.375 75.3911 194.486 77.0957 196.051 76.2016C196.051 76.2016 197.829 68.3238 198.465 68.5994L194.484 63.4815Z" fill="#6A97CE"/>
<path d="M164.354 120.948C163.162 124.091 162.544 127.119 162.488 127.484C162.462 127.662 162.71 128.515 162.687 128.699C160.295 131.961 156.856 132.676 153.909 132.884C155.411 131.418 157.617 130.028 157.723 129.562C157.892 128.823 158.799 125.533 159.245 120.97C161.078 121.819 162.322 121.146 164.354 120.948Z" fill="#F7A491"/>
<path d="M198.253 85.7822L203.518 100.609C203.518 100.609 195.058 102.201 191.896 102.781C188.734 103.361 171.064 104.132 170.616 104.447C170.284 104.68 166.634 116.485 165.003 122.993C163.154 123.401 159.987 122.911 158.303 122.332C159.213 113.017 162.5 98.2614 163.553 96.6548C165.267 94.0397 198.253 85.7822 198.253 85.7822Z" fill="#256653"/>
<path d="M177.69 127.447C177.108 130.757 177.068 133.847 177.082 134.217C177.088 134.396 177.493 135.188 177.504 135.372C175.766 139.026 172.522 140.372 169.666 141.129C170.867 139.406 172.773 137.628 172.79 137.152C172.817 136.395 173.092 132.99 172.675 128.427C174.635 128.915 175.731 128.023 177.69 127.447Z" fill="#F7A491"/>
<path d="M204.398 86.5514L206.442 90.0381C209.549 95.3478 207.166 102.178 201.431 104.403C201.4 104.416 201.369 104.428 201.339 104.44C198.341 105.602 181.129 109.672 180.748 110.064C180.465 110.354 179.092 122.635 178.711 129.335C176.97 130.08 173.768 130.195 172.005 129.939C171.154 120.62 171.617 105.51 172.35 103.734C173.544 100.843 204.398 86.5514 204.398 86.5514Z" fill="#327F6B"/>
<path d="M176.818 134.321C177.276 133.814 178.959 136.601 179.379 137.195C179.852 137.863 179.717 138.367 179.661 138.471C179.512 138.747 170.64 143.966 168.476 144.338C168.272 144.373 167.917 144.244 167.828 144.166C166.983 143.417 170.875 137.889 172.623 137.164C173.752 136.695 174.756 136.597 176.818 134.321Z" fill="#13375B"/>
<path d="M162.205 127.584C162.75 127.174 163.881 130.226 164.183 130.887C164.522 131.632 164.295 132.104 164.22 132.196C164.022 132.439 154.329 135.903 152.134 135.862C151.927 135.858 151.603 135.664 151.53 135.57C150.84 134.678 155.699 129.977 157.551 129.591C158.749 129.342 159.754 129.436 162.205 127.584Z" fill="#13375B"/>
<path d="M198.178 63.4508H198.178C198.078 63.4508 197.933 63.4161 197.785 63.3692C197.062 63.2406 195.481 63.0507 194.25 63.5693C192.753 64.2001 190.434 70.1018 190.572 76.1566C190.627 77.0834 190.683 77.9122 190.731 78.4899C191.109 83.0647 192.421 91.6488 192.492 91.6958C194.278 92.8451 205.049 88.3887 205.79 87.4109C206.531 86.431 206.968 74.5398 207.328 73.9478L208.036 63.606C206.787 63.2345 200.094 63.4366 198.178 63.4508Z" fill="#9BC1F9"/>
<path d="M202.544 59.6417C202.544 59.6417 201.85 63.2285 201.989 64.6452C202.128 66.0599 201.46 70.6204 198.465 70.6347C195.47 70.6511 197.896 64.8371 198.178 63.451C198.46 62.0628 198.527 57.7718 198.527 57.7718L202.544 59.6417Z" fill="#F7A491"/>
<path d="M198.465 59.9255C198.512 58.7496 198.527 57.7718 198.527 57.7718L202.544 59.6417C202.544 59.6417 202.402 60.3767 202.26 61.3096C200.502 61.6628 199.227 61.0136 198.465 59.9255Z" fill="#F47458"/>
<path d="M204.012 49.7407C204.012 49.7407 205.56 50.6002 206.125 52.4599C206.693 54.3217 206.048 59.123 202.049 60.2826C198.051 61.4421 196.319 57.639 197.143 54.6667C197.966 51.6923 199.757 47.928 204.012 49.7407Z" fill="#F7A491"/>
<path d="M196.642 53.5139C196.721 54.3121 197.161 54.9225 197.627 54.8776C198.092 54.8326 198.405 54.1468 198.327 53.3486C198.249 52.5504 197.808 51.94 197.343 51.9849C196.878 52.0318 196.564 52.7157 196.642 53.5139Z" fill="#F7A491"/>
<path d="M203.543 49.4979C203.543 49.4979 204.267 54.8545 206.001 55.8222C207.732 56.7898 207.007 59.166 207.007 59.166C207.007 59.166 208.579 53.646 207.209 51.8741C205.839 50.1021 203.543 49.4979 203.543 49.4979Z" fill="#13375B"/>
<path d="M204.974 56.5919C204.504 57.29 204.506 58.1127 204.978 58.4291C205.449 58.7476 206.213 58.4393 206.682 57.7412C207.152 57.043 207.152 56.2203 206.678 55.9019C206.207 55.5855 205.443 55.8937 204.974 56.5919Z" fill="#F7A491"/>
<path d="M199.149 56.8897L201.967 57.598C201.967 57.598 201.628 58.6677 200.38 58.3921C198.858 58.0573 199.149 56.8897 199.149 56.8897Z" fill="white"/>
<path d="M213.139 102.204C213.274 102.198 225.288 101.594 225.288 101.594C225.288 101.594 220.303 105.177 220.201 105.177C220.099 105.177 216.23 103.65 216.061 103.65C215.891 103.65 213.139 102.204 213.139 102.204Z" fill="#50BFA5"/>
<path d="M456.363 373.85L456.602 378.071C456.69 378.606 457.035 379.929 457.035 380.415C457.035 382.242 448.928 378.863 450.745 378.055C450.909 377.981 451.77 377.426 451.825 376.806C451.909 375.846 452.119 373.909 452.119 373.909L456.363 373.85Z" fill="#F7A491"/>
<path d="M450.668 378.073C450.668 378.073 452.57 378.63 453.544 378.771C454.52 378.91 455.804 377.734 456.494 378.052C457.253 378.401 457.223 381.549 457.223 381.549C457.223 381.549 447.018 382.445 444.147 381.518C443.01 381.151 446.777 379.373 450.668 378.073Z" fill="#F7CC7F"/>
<path d="M469.861 373.631L470.102 377.853C470.188 378.387 470.533 379.71 470.533 380.196C470.533 382.023 462.426 378.645 464.243 377.836C464.408 377.763 465.525 376.795 465.578 376.172C465.662 375.215 465.619 373.69 465.619 373.69L469.861 373.631Z" fill="#F7A491"/>
<path d="M464.263 377.818C464.263 377.818 466.166 378.377 467.142 378.516C468.116 378.657 469.402 377.481 470.09 377.797C470.849 378.148 470.88 381.296 470.88 381.296C470.88 381.296 460.746 381.713 457.743 381.266C456.563 381.09 460.373 379.12 464.263 377.818Z" fill="#F7CC7F"/>
<path d="M467.458 306.701C467.458 306.701 468.832 313.809 468.271 319.201C467.711 324.59 467.669 343.736 467.669 343.736L470.251 374.36L464.735 374.488C464.735 374.488 458.725 343.869 458.835 344.655C458.948 345.441 456.82 323.096 456.82 323.096L463.986 306.028L467.458 306.701Z" fill="#355389"/>
<path d="M465.535 302.113C465.535 302.113 471.759 308.668 469.445 315.827C468.514 318.703 459.842 346.179 459.729 348.424C459.617 350.67 456.796 375.491 456.796 375.491L450.902 375.314L449.627 347.716L451.311 310.532L454.889 304.26L465.535 302.113Z" fill="#466EB6"/>
<path d="M427.751 280.776C429.79 278.502 434.224 275.266 434.224 275.266C434.224 275.266 436.868 273.01 437.944 272.639C439.53 272.092 442.245 270.634 446.174 276.587C448.983 280.847 466.721 302.905 469.632 303.646L450.619 312.742C450.098 308.398 440.701 300.19 439.35 298.659C436.327 295.237 425.822 282.929 427.751 280.776Z" fill="#F47458"/>
<path d="M428.639 271.534L434.561 275.001C434.561 275.001 434.728 280.057 432.791 281.37C431.166 282.472 429.931 279.827 429.931 279.827C429.931 279.827 427.728 276.775 426.054 275.825C424.382 274.874 428.639 271.534 428.639 271.534Z" fill="#F7A491"/>
<path d="M429.631 273.759C429.408 274.814 428.894 276.339 428.094 277.595C427.443 276.888 426.708 276.196 426.054 275.825C425.283 275.386 425.775 274.439 426.526 273.545C427.59 272.438 428.639 271.534 428.639 271.534L429.776 272.199C429.849 272.632 429.707 273.408 429.631 273.759Z" fill="#F47458"/>
<path d="M425.552 262.844C425.652 262.721 430.521 268.782 429.921 271.624C429.321 274.467 426.377 277.06 424.331 276.347C422.07 275.557 417.862 268.423 419.371 264.958C420.879 261.496 425.552 262.844 425.552 262.844Z" fill="#F7A491"/>
<path d="M420.222 260.933C422.345 259.751 425.807 259.413 428.394 260.768C431.574 262.432 432.299 266.623 431.303 269.179C430.307 271.734 431.448 273.178 431.448 273.178L429.76 272.194C429.76 272.194 428.774 270.655 428.645 269.43C428.516 268.203 426.728 268.421 425.856 267.864C425.183 267.435 424.325 266.045 423.237 265.322C423.237 265.322 420.5 264.988 419.152 265.743C416.856 267.031 417.182 262.624 420.222 260.933Z" fill="#13375B"/>
<path d="M427.224 268.887C427.208 269.795 427.639 270.539 428.184 270.549C428.731 270.557 429.184 269.828 429.2 268.918C429.217 268.009 428.786 267.264 428.241 267.256C427.696 267.248 427.24 267.977 427.224 268.887Z" fill="#F7A491"/>
<path d="M422.237 273.709L424.815 271.782C424.815 271.782 425.497 272.825 424.389 273.705C423.035 274.779 422.237 273.709 422.237 273.709Z" fill="white"/>
<path d="M415.764 312.053C416.409 311.11 416.69 309.748 417.585 308.709C417.883 308.36 418.36 307.968 418.903 307.576C423.198 305.063 434.385 298.586 434.82 298.083C435.337 297.487 442.972 284.802 442.972 284.802L436.114 283.248L429.412 295.082C428.853 295.525 418.215 303.389 418.215 303.389C418.215 303.389 416.1 305.04 414.943 305.814C414.359 306.155 413.794 306.376 413.298 306.549C412.673 306.765 411.485 307.36 411.244 307.57C410.964 307.817 410.405 308.341 410.072 308.662C409.739 308.984 409.337 309.346 409.182 309.538C409.086 309.654 408.792 309.813 408.578 309.921C408.255 310.081 408.298 310.556 408.643 310.654C408.968 310.746 409.409 310.542 409.68 310.416C410.452 310.052 411.393 309.076 411.442 309.195C411.491 309.315 410.536 311.408 410.442 311.655C410.35 311.902 409.252 314.341 409.194 314.884C409.139 315.429 409.466 315.554 409.711 315.356C409.921 315.184 411.685 311.926 411.685 311.926C411.685 311.926 411.911 311.512 411.999 311.749C412.087 311.987 410.491 314.947 410.333 315.433C410.178 315.919 410.303 316.317 410.752 316.148C411.299 315.94 412.808 312.675 412.808 312.675C412.808 312.675 413.004 312.269 413.138 312.41C413.271 312.551 411.873 315.047 411.856 315.335C411.84 315.623 412.101 315.907 412.479 315.666C412.922 315.382 414.245 312.457 414.245 312.457C414.245 312.457 414.408 312.263 414.459 312.4C414.51 312.534 413.469 314.749 413.547 315.072C413.612 315.343 413.857 315.288 413.857 315.288C414.402 315.288 415.119 312.996 415.764 312.053Z" fill="#F8A492"/>
<path d="M441.093 291.503C441.093 291.503 438.86 290.793 437.429 290.135C436.47 289.696 432.285 287.614 432.285 287.614C432.285 287.614 434.089 280.004 435.308 277.266C439.785 267.224 444.87 274.151 445.56 275.766C447.105 279.375 441.093 291.503 441.093 291.503Z" fill="#355389"/>
<path d="M285.105 265.206L287.23 263.616C287.23 263.616 287.794 264.475 286.879 265.202C285.765 266.088 285.105 265.206 285.105 265.206Z" fill="white"/>
<path d="M534.596 381.325H40.8425C40.2251 381.325 39.7248 381.964 39.7248 382.752C39.7248 383.54 40.2251 384.177 40.8425 384.177H534.596C535.213 384.177 535.713 383.54 535.713 382.752C535.713 381.964 535.213 381.325 534.596 381.325Z" fill="#184655"/>
<path d="M225.564 101.583C225.512 101.454 225.4 101.452 225.286 101.448C224.171 101.415 223.057 101.364 221.952 101.199C221.766 101.172 221.585 101.13 221.415 101.062C221.107 100.94 220.805 100.942 220.493 101.03C220.325 101.074 220.154 101.085 219.98 101.083C219.421 101.081 217.82 100.535 217 100.393C216.812 100.36 216.663 100.219 216.616 100.033C215.808 96.8365 214.074 89.665 213.85 87.3051C213.562 84.29 211.48 70.6901 211.48 70.6901L205.907 72.2456C205.907 72.2456 208.199 82.2832 208.834 87.15C209.324 90.9082 213.08 98.884 214.258 101.176C214.832 102.883 216.124 102.932 216.422 102.969C216.594 102.989 216.753 103.073 216.865 103.206C217.067 103.442 217.3 103.649 217.567 103.816C217.765 103.941 217.916 104.104 218.047 104.294C218.284 104.639 218.496 105 218.706 105.363C218.845 105.602 218.99 105.68 219.196 105.623C219.417 105.561 219.523 105.398 219.519 105.129C219.513 104.731 219.384 104.371 219.186 104.03C218.998 103.714 219.013 103.528 219.229 103.236C219.356 103.067 219.484 102.904 219.647 102.771C219.815 102.634 219.992 102.532 220.219 102.563C220.619 102.663 221.023 102.744 221.434 102.789L221.771 102.859L221.954 102.897C221.983 102.904 222.577 102.969 222.779 102.969C222.942 102.971 223.206 102.981 223.43 102.991C223.634 103.002 224.065 102.895 224.079 102.895C224.277 102.891 224.453 102.82 224.6 102.687C224.659 102.632 224.718 102.571 224.688 102.479C224.659 102.393 224.594 102.358 224.506 102.342C224.373 102.318 223.681 102.234 223.687 102.205C223.894 102.205 224.537 102.189 224.743 102.185C225.02 102.177 225.259 102.077 225.451 101.873C225.527 101.791 225.615 101.711 225.564 101.583Z" fill="#F7A491"/>
<path d="M208.103 63.5836C210.853 63.0835 213.123 75.3911 213.123 75.3911C213.123 75.3911 207.011 77.0957 205.445 76.2016C205.445 76.2016 203.668 68.3238 203.031 68.5994L208.103 63.5836Z" fill="#9BC1F9"/>
<path d="M141.597 284.783C141.779 284.26 139.243 283.84 139.108 283.313C138.973 282.784 142.311 282.743 142.43 282.28C142.65 281.427 138.772 282.1 138.848 281.7C138.924 281.302 142.89 280.41 142.461 279.724C142.032 279.038 138.446 281.078 138.337 280.614C138.229 280.149 141.843 279.018 141.779 277.997C141.744 277.452 135.846 280.714 135.162 280.418C134.478 280.122 135.898 277.562 135.353 277.181C134.808 276.801 133.245 282.386 132.869 282.572C132.495 282.758 124.526 287.306 121.69 288.029C121.346 287.079 120.602 285.799 120.298 284.901C118.707 286.032 117.526 286.602 115.884 287.633C117.074 290.613 118.767 293.877 119.596 294.253C122.119 295.392 131.877 287.298 133.825 285.914C135.775 284.528 136.891 284.977 138.209 284.538C139.527 284.101 141.415 285.303 141.597 284.783Z" fill="#F7A491"/>
<path d="M115.544 289.063C115.544 289.063 113.359 279.418 113.738 276.619C114.117 273.82 117.443 271.213 119.748 272.179C122.052 273.149 123.097 286.614 123.097 286.614L115.544 289.063Z" fill="#F7CC7F"/>
</g>
<defs>
<clipPath id="clip0">
<rect width="562" height="408.282" fill="white"/>
</clipPath>
</defs>
</svg>
