<svg width="262" height="280" viewBox="0 0 262 280" fill="none" xmlns="http://www.w3.org/2000/svg">
<path d="M152.866 209.473C121.262 209.473 91.6287 199.186 86.14 174.092C73.4028 115.848 -9.85877 165.147 0.968445 64.2117C4.01122 35.8405 15.4445 0.657745 55.0307 0.018692C55.785 0.0070343 56.5365 0.000396729 57.2786 0.000396729C75.7725 0.000396729 90.461 3.70657 104.452 7.41107C118.439 11.1172 131.732 14.8234 147.417 14.8234C158.881 14.8234 171.62 12.8463 186.853 7.44266C193.048 5.24591 199.01 4.23909 204.667 4.23909C245.524 4.23909 270.754 56.7095 258.002 91.9039C255.638 98.4276 248.332 106.589 242.922 119.969C240.54 126.221 240.54 123.535 239.055 132.935C237.571 142.334 236.086 154.419 224.207 157.105C215.063 157.105 227.774 132.619 227.177 140.991C226.091 156.249 215.71 146.786 222.896 148.335C224.091 148.593 225.293 148.738 226.49 148.738C230.168 148.738 233.809 147.362 237.156 143.617C236.489 150.226 236.434 157.65 237.266 166.032C239.793 191.519 194.613 209.473 152.866 209.473ZM117.451 168.81C116.057 168.81 35.2352 111.3 95.7359 108.128C83.2076 110.827 79.1302 121.871 82.8771 131.307C87.848 143.835 94.1451 147.769 100.543 147.769C101.811 147.769 103.084 147.615 104.35 147.342C111.962 145.702 118.374 140.061 117.227 123.903C116.595 115.04 127.135 168.81 117.451 168.81Z" fill="#7474B4"/>
<path d="M212.103 207.982C216.023 193.154 223.007 171.686 233.851 154.259C233.962 154.081 233.922 153.839 233.76 153.718C233.599 153.595 233.38 153.64 233.27 153.818C222.353 171.361 215.358 192.891 211.425 207.763C211.369 207.97 211.477 208.186 211.666 208.245C211.853 208.307 212.049 208.188 212.103 207.982Z" fill="#2C0F30"/>
<path d="M233.238 153.069C233.238 153.069 226.66 138.253 232.601 137.864C238.545 137.475 233.238 153.069 233.238 153.069Z" fill="#F685A6"/>
<path d="M234.412 154.037C234.412 154.037 248.191 147.653 248.197 154.224C248.204 160.793 234.412 154.037 234.412 154.037Z" fill="#F685A6"/>
<path d="M232.543 153.34C232.543 153.34 220.803 150.121 223.68 145.855C226.557 141.586 232.543 153.34 232.543 153.34Z" fill="#F685A6"/>
<path d="M233.963 154.765C233.963 154.765 239.588 166.587 242.658 162.488C245.727 158.388 233.963 154.765 233.963 154.765Z" fill="#F685A6"/>
<path d="M233.82 153.181C233.82 153.181 238.076 140.677 241.581 144.326C245.088 147.975 233.82 153.181 233.82 153.181Z" fill="#F685A6"/>
<path d="M204.869 215.806C204.869 215.806 200.31 197.099 212.967 193.6C225.867 190.032 227.144 179.451 229.198 174.924C236.111 159.666 254.165 171.277 245.004 193.201C235.842 215.122 220.302 223.832 204.869 215.806Z" fill="#EBC464"/>
<path d="M204.998 216.171C205.017 216.162 210.81 213.648 218.089 207.879C225.365 202.108 234.13 193.08 240.063 180.035C240.151 179.84 240.08 179.608 239.906 179.511C239.732 179.413 239.519 179.492 239.431 179.684C233.567 192.582 224.89 201.527 217.676 207.245C214.07 210.104 210.832 212.157 208.496 213.494C207.329 214.161 206.387 214.65 205.738 214.97C205.413 215.132 205.163 215.25 204.994 215.329C204.91 215.369 204.845 215.398 204.802 215.417C204.781 215.426 204.763 215.433 204.753 215.438L204.74 215.445C204.557 215.523 204.467 215.749 204.54 215.951C204.611 216.15 204.815 216.25 204.998 216.171Z" fill="#2C0F30"/>
<path d="M214.795 153.91C219.655 155.305 225.456 163.424 220.322 169.63C215.184 175.833 220.971 177.884 217.333 182.729C213.696 187.577 210.529 191.166 215.933 201.569C221.332 211.974 211.415 217.729 207.078 218.116C204.977 218.303 200.646 217.372 198.844 216.171C195.053 213.643 187.618 203.858 196.402 196.805C205.186 189.751 203.624 185.046 202.102 178.983C200.58 172.915 206.639 173.651 204.229 165.677C200.853 154.496 211.142 152.86 214.795 153.91Z" fill="#58236C"/>
<path d="M203.779 217.459C203.779 217.459 203.796 217.312 203.833 217.029C204.095 214.905 205.323 205.212 207.095 194.059C207.981 188.483 209.004 182.543 210.11 177.002C211.217 171.461 212.408 166.322 213.625 162.355C213.69 162.151 213.589 161.93 213.406 161.861C213.221 161.792 213.019 161.901 212.957 162.106C211.643 166.386 210.372 171.972 209.2 177.949C205.686 195.885 203.08 217.352 203.078 217.357C203.052 217.571 203.188 217.765 203.381 217.794C203.575 217.825 203.753 217.673 203.779 217.459Z" fill="#2C0F30"/>
<path d="M136.204 279.625C82.14 279.625 38.3135 268.408 38.3135 254.569C38.3135 240.733 82.14 229.516 136.204 229.516C190.269 229.516 234.096 240.733 234.096 254.569C234.096 268.408 190.269 279.625 136.204 279.625Z" fill="#404099"/>
<path d="M84.9647 245.037C84.9647 245.037 85.8635 250.298 82.0338 253.799C79.961 255.694 70.59 252.508 68.8096 252.774C58.7312 254.272 58.5097 257.004 51.0482 259.986C46.2509 261.904 40.3354 249.476 56.3508 242.725C66.3582 238.506 70.3105 233.633 73.7423 233.673C77.3763 233.716 85.2012 238.665 84.9647 245.037Z" fill="#F7987B"/>
<path d="M55.8347 241.811C65.84 237.59 70.0008 233.274 73.4327 233.314C76.5656 233.35 83.1176 237.398 84.6292 242.492C84.3604 242.466 84.0916 242.438 83.8207 242.409C79.7223 241.991 75.5787 242.259 71.5124 242.917C64.6917 244.019 57.2517 247.119 52.7189 253.085C51.1664 255.129 50.3923 257.671 50.6739 260.102C44.851 262.336 40.2343 248.389 55.8347 241.811Z" fill="#222851"/>
<path d="M207.778 222.307L188.907 187.899L182.443 163.599L168.98 168.112C168.98 168.112 173.466 189.115 176.9 195.792C179.422 200.704 202.632 227.124 202.632 227.124L207.778 222.307Z" fill="#F7987B"/>
<path d="M184.77 166.156C184.284 168.471 168.568 169.636 167.901 168.509C164.775 163.196 167.88 152.698 167.622 146.597C167.377 140.733 164.635 130.62 166.957 130.855C172.589 131.42 175.629 134.91 179.526 142.849C182.383 148.674 186.342 158.678 184.77 166.156Z" fill="#FE4400"/>
<path d="M202.085 226.126C202.085 226.126 207.19 243.781 215.688 240.187C218.083 239.174 219.984 234.836 213.914 229.027C213.914 229.027 218.319 232.415 219.334 230.416C220.139 228.83 213.862 222.553 206.818 221.203L202.085 226.126Z" fill="#F7987B"/>
<path d="M144.476 210.423C144.476 210.423 109.988 223.413 173.041 254.154C174.634 254.93 177.971 259.566 200.917 257.192C219.218 255.298 219.999 233.84 200.633 228.465C183.407 223.686 144.476 210.423 144.476 210.423Z" fill="#3E1749"/>
<path d="M180.338 230.655C193.356 230.273 212.034 228.079 213.769 239.856C216.388 257.646 201.334 258.589 178.958 257.931C159.263 257.352 111.918 255.944 110.699 255.142C106.796 252.573 107.222 236.248 110.979 235.153C123.846 231.407 170.927 230.932 180.338 230.655Z" fill="#3E1749"/>
<path d="M114.357 209.581C114.357 209.581 88.3037 240.62 142.921 253.314C150.933 255.175 152.664 257.727 175.61 255.353C193.911 253.459 198.764 234.068 179.399 228.693C162.173 223.915 114.357 209.581 114.357 209.581Z" fill="#4F1F60"/>
<path d="M157.743 230.911C170.748 230.18 189.374 227.49 191.365 239.217C194.371 256.934 179.343 258.275 156.962 258.216C137.259 258.161 85.6264 256.858 84.3921 256.089C80.4334 253.625 80.5043 237.294 84.233 236.1C97.0121 232.01 148.342 231.438 157.743 230.911Z" fill="#58236C"/>
<path d="M114.1 209.623C112.219 215.572 169.286 223.15 168.015 214.981C161.988 176.257 168.499 173.126 171.528 156.406C172.141 153.031 174.057 136.631 169.675 132.427C166.877 129.742 157.838 128.643 157.838 128.643L142.149 126.815C142.149 126.815 127.656 123.9 122.444 146.177C114.795 178.871 123.925 178.555 114.1 209.623Z" fill="#FE662E"/>
<path d="M134.926 88.5398C133.522 110.304 141.36 117.906 150.654 120.116C160.005 122.338 169.606 118.734 176.883 98.5133C181.461 85.8003 176.481 70.9227 161.179 67.2858C146.596 63.8174 135.81 74.8777 134.926 88.5398Z" fill="#F7987B"/>
<path d="M142.142 126.875C141.273 127.898 143.172 131.129 149.636 131.882C156.732 132.71 158.538 129.864 157.73 128.395C154.108 121.812 157.392 115.889 157.392 115.889L145.144 114.459C145.144 114.459 147.591 120.468 142.142 126.875Z" fill="#F7987B"/>
<path d="M171.015 214.22L135.219 187.743L135.983 163.828L121.991 162.201L121.219 192.899C121.371 195.496 122.672 197.839 124.696 199.169L167.719 222.462L171.015 214.22Z" fill="#F7987B"/>
<path d="M120.507 164.496C121.214 166.741 136.954 166.06 137.509 164.859C140.111 159.211 137.96 147.41 137.631 141.316C137.313 135.455 140.816 126.757 135.991 127.336C132.015 127.811 126.143 132.789 123.031 141.141C120.75 147.27 118.225 157.243 120.507 164.496Z" fill="#FE4400"/>
<path d="M166.497 220.853C166.497 220.853 176.627 235.636 183.557 229.126C185.512 227.291 185.998 222.503 178.526 219.251C178.526 219.251 183.704 220.829 184.058 218.569C184.338 216.782 176.53 213.166 169.475 214.474L166.497 220.853Z" fill="#F7987B"/>
<path d="M145.801 89.0066C145.801 89.0066 143.825 102.825 136.722 107.791C136.722 107.791 129.721 92.9096 136.722 78.6673C144.511 62.8283 155.63 62.9754 165.603 67.3815C172.944 70.6243 184.405 79.1397 176.182 100.292C176.182 100.292 168.678 99.8193 164.887 86.7957C164.887 86.7957 154.238 96.1897 145.801 89.0066Z" fill="#141830"/>
<path d="M164.359 104.157C164.056 105.767 164.559 107.243 165.486 107.457C166.413 107.668 167.411 106.541 167.718 104.931C168.022 103.322 167.516 101.845 166.589 101.631C165.66 101.418 164.665 102.548 164.359 104.157Z" fill="#141830"/>
<path d="M148.52 100.211C148.217 101.818 148.72 103.295 149.649 103.508C150.576 103.722 151.574 102.592 151.879 100.982C152.182 99.3754 151.679 97.8981 150.75 97.684C149.826 97.4689 148.824 98.601 148.52 100.211Z" fill="#141830"/>
<path d="M169.871 101.742C168.733 101.78 167.645 101.289 166.74 100.543C165.845 99.786 165.132 98.6774 164.983 97.4292C165.805 98.2907 166.497 99.0454 167.314 99.7148C168.112 100.408 168.968 100.994 169.871 101.742Z" fill="#1A1F3F"/>
<path d="M147.575 95.3914C148.624 95.0909 149.576 94.937 150.514 94.6754C151.462 94.4437 152.337 94.0995 153.374 93.7444C152.793 94.7673 151.781 95.4144 150.736 95.691C149.682 95.9505 148.559 95.9153 147.575 95.3914Z" fill="#1A1F3F"/>
<path d="M159.291 116.984C159.56 116.749 158.214 113.798 155.56 113.188C152.911 112.577 150.806 114.762 150.959 115.151C151.17 115.69 153.212 114.572 155.148 115.018C157.081 115.464 158.975 117.257 159.291 116.984Z" fill="#F57474"/>
<path d="M156.715 110.598C156.566 110.598 156.418 110.581 156.274 110.548C155.852 110.453 155.468 110.22 155.169 109.912C154.874 109.598 154.644 109.216 154.554 108.784C155.169 109.321 155.756 109.724 156.399 109.864C156.594 109.909 156.796 109.931 157.003 109.931C157.132 109.931 157.261 109.921 157.394 109.907C157.743 109.869 158.099 109.779 158.489 109.691C158.233 110.03 157.895 110.28 157.512 110.439C157.261 110.541 156.99 110.598 156.715 110.598Z" fill="#E47464"/>
<path d="M144.173 75.8225C144.173 75.8225 140.154 71.4069 135.767 72.9856C129.14 75.3714 130.658 89.8041 132.718 102.029C134.78 114.252 129.523 126.568 116.311 129.569C103.098 132.572 121.913 122.267 116.991 104.555C109.271 76.7721 118.004 58.1555 136.625 58.1484C148.865 58.1412 153.021 70.4573 153.021 70.4573L144.173 75.8225Z" fill="#141830"/>
<path d="M150.638 65.3578C149.512 64.7263 148.239 64.5886 146.994 64.7216C145.751 64.8688 144.51 65.3388 143.429 66.1151C141.25 67.6605 139.831 70.4286 140.012 73.1729C140.876 72.1734 141.603 71.2595 142.373 70.4642C143.14 69.6665 143.923 68.9828 144.76 68.3775C145.603 67.7745 146.499 67.2522 147.471 66.7703C148.447 66.286 149.475 65.8445 150.638 65.3578Z" fill="#F685A6"/>
<path d="M80.8894 256.195C80.8894 256.893 81.4592 257.458 82.1667 257.458H87.1683C87.8715 257.458 88.4456 256.893 88.4456 256.195V235.463C88.4456 234.768 87.8715 234.2 87.1683 234.2H82.1667C81.4592 234.2 80.8894 234.768 80.8894 235.463V256.195Z" fill="#703886"/>
</svg>
